<?xml version="1.0" encoding="UTF-8" standalone="no"?>
<svg
   xmlns:dc="http://purl.org/dc/elements/1.1/"
   xmlns:cc="http://creativecommons.org/ns#"
   xmlns:rdf="http://www.w3.org/1999/02/22-rdf-syntax-ns#"
   xmlns:svg="http://www.w3.org/2000/svg"
   xmlns="http://www.w3.org/2000/svg"
   xmlns:sodipodi="http://sodipodi.sourceforge.net/DTD/sodipodi-0.dtd"
   xmlns:inkscape="http://www.inkscape.org/namespaces/inkscape"
   version="1.1"
   id="svg2"
   width="466.16949"
   height="423.05084"
   viewBox="0 0 466.16949 423.05084"
   sodipodi:docname="logo_favicon.svg"
   inkscape:version="1.0.1 (3bc2e813f5, 2020-09-07)">
  <metadata
     id="metadata8">
    <rdf:RDF>
      <cc:Work
         rdf:about="">
        <dc:format>image/svg+xml</dc:format>
        <dc:type
           rdf:resource="http://purl.org/dc/dcmitype/StillImage" />
        <dc:title></dc:title>
      </cc:Work>
    </rdf:RDF>
  </metadata>
  <defs
     id="defs6" />
  <sodipodi:namedview
     pagecolor="#ffffff"
     bordercolor="#666666"
     borderopacity="1"
     objecttolerance="10"
     gridtolerance="10"
     guidetolerance="10"
     inkscape:pageopacity="0"
     inkscape:pageshadow="2"
     inkscape:window-width="1920"
     inkscape:window-height="1051"
     id="namedview4"
     showgrid="false"
     inkscape:zoom="0.54426082"
     inkscape:cx="37.905212"
     inkscape:cy="206.97434"
     inkscape:window-x="0"
     inkscape:window-y="0"
     inkscape:window-maximized="1"
     inkscape:current-layer="g10" />
  <g
     inkscape:groupmode="layer"
     inkscape:label="Image"
     id="g10">
    <path
       style="font-variation-settings:normal;vector-effect:none;fill:#3f3d56;fill-opacity:1;stroke:#3f3d56;stroke-width:12;stroke-linecap:butt;stroke-linejoin:miter;stroke-miterlimit:4;stroke-dasharray:none;stroke-dashoffset:0;stroke-opacity:1;stop-color:#000000"
       d="M 82.94605,422.25505 C 80.80653,421.76075 78.10693,419.5201 72.0878,413.24276 34.9506,374.51245 11.27455,327.06516 2.72688,274.24205 0.74845,262.01571 0.29382,229.96318 1.90257,216.12625 4.21936,196.19949 8.75778,177.38178 16.05344,157.45234 20.32337,145.78821 32.67308,121.64341 40.14035,110.36022 65.80144,71.58585 101.5785,40.81403 142.74266,22.11205 c 59.023,-26.81572 125.37275,-29.3148 185.6324,-6.99189 10.01885,3.71144 29.26602,12.91627 38.44203,18.38465 6.90948,4.11765 25.49339,17.02757 25.08615,17.42692 -0.11628,0.11403 -5.02081,2.38231 -10.89894,5.04062 l -10.68752,4.83329 -7.898,-5.09932 C 291.8208,10.12489 198.36153,9.71238 126.71475,54.66596 91.01022,77.06818 62.79411,108.36448 44.31346,146.06251 c -10.03619,20.47247 -16.26742,39.67785 -20.04663,61.78606 -2.16206,12.648 -2.96944,40.86959 -1.56024,54.53783 3.89155,37.74537 18.91716,76.65231 42.10748,109.03203 3.20468,4.47458 6.75171,9.2339 7.88228,10.57627 l 2.05559,2.44068 0.0305,-11.79661 c 0.0337,-13.01687 0.80366,-15.85511 5.17095,-19.06081 2.20196,-1.61629 3.45343,-1.69483 30.71186,-1.92759 l 28.41636,-0.24262 v -80.38619 -80.38618 l 5.49153,-1.56801 5.49152,-1.56801 0.23512,-6.13944 0.23513,-6.13944 -4.53417,-6.85018 c -5.84366,-8.82852 -7.02331,-12.73249 -7.5201,-24.88717 -0.52759,-12.90819 0.78939,-18.84346 7.01101,-31.5967 7.18195,-14.72174 19.61374,-32.55147 27.55006,-39.51243 l 3.05686,-2.68118 0.40678,-15.70202 0.40678,-15.70203 3.06209,-3.06228 3.0621,-3.06229 10.44225,-0.26561 c 12.06427,-0.30686 15.36532,0.59133 17.98897,4.89462 1.48619,2.43764 1.64218,4.08414 1.64493,17.36256 l 0.003,14.66953 4.94657,4.85589 c 5.58231,5.47998 14.34334,16.7969 19.33683,24.97805 3.29174,5.39307 9.07254,16.42124 9.07254,17.30791 0,0.53628 -14.99165,7.57452 -17.44609,8.19055 -1.42332,0.35722 -2.12159,-0.44841 -4.40884,-5.08671 -5.05102,-10.24293 -13.12848,-21.56604 -20.93534,-29.34747 -4.15251,-4.13898 -7.91969,-7.52542 -8.37154,-7.52542 -1.58845,0 -10.43845,8.02253 -14.4904,13.13555 -9.26235,11.6879 -17.60458,26.2289 -20.20494,35.21846 -1.05682,3.65349 -1.30327,6.76965 -1.01267,12.80451 0.37442,7.77551 0.46864,8.09646 3.74975,12.77401 7.91371,11.28179 9.06201,16.65548 7.89239,36.93403 l -0.5966,10.34364 -5.0031,1.47336 -5.00312,1.47336 -0.20724,83.14188 -0.20743,83.14187 H 128.13183 96.03742 l -0.24074,21.76271 c -0.22427,20.27446 -0.35201,21.91344 -1.86786,23.96666 -1.27359,1.7251 -6.99166,5.05439 -7.94867,4.62803 -0.10281,-0.0458 -1.46828,-0.37931 -3.03438,-0.74112 z m 147.05469,-132.64873 -0.20723,-83.1251 -5.02106,-1.54135 -5.02105,-1.54135 -0.65794,-5.48157 c -0.36186,-3.01486 -0.62303,-10.24089 -0.58037,-16.05783 0.0904,-12.33094 0.74425,-14.61033 6.73885,-23.49395 4.10623,-6.08517 5.70485,-10.55703 5.74202,-16.06226 0.0196,-2.90187 0.0779,-2.95316 3.88429,-3.42114 2.12543,-0.2613 6.88475,-0.72184 10.57627,-1.02342 l 6.71187,-0.54832 v 4.10128 c 0,4.50318 -1.77281,14.64198 -3.23161,18.4817 -0.50999,1.34238 -2.81245,5.32217 -5.11658,8.84399 -4.08138,6.23833 -4.19025,6.55995 -4.22565,12.48272 l -0.0364,6.07941 5.69491,1.78765 5.69492,1.78765 0.20737,80.36504 0.20736,80.36503 31.52145,-0.33 c 30.52541,-0.31956 31.79355,-0.39625 40.13273,-2.42682 45.76841,-11.14449 81.75081,-38.92789 103.10305,-79.60985 12.41191,-23.64814 18.034,-46.02509 18.04358,-71.81668 0.009,-24.56286 -5.38439,-47.87803 -15.96951,-69.03325 -1.50563,-3.00917 -2.73753,-5.7963 -2.73753,-6.19362 0,-0.39732 3.5695,-0.97526 7.93221,-1.28432 4.36271,-0.30905 9.27614,-0.76747 10.91871,-1.01871 2.81968,-0.43129 3.075,-0.28115 4.5704,2.68774 5.30007,10.52245 11.1852,29.14259 14.10778,44.63606 2.15495,11.424 2.95988,36.32841 1.56661,48.47087 -4.87883,42.51972 -24.37309,81.09247 -56.02377,110.85271 -24.02025,22.58557 -50.69343,36.32689 -85.07363,43.82769 -7.79376,1.70038 -10.51594,1.81203 -50.74023,2.08094 l -42.50462,0.28416 z"
       id="path847" />
    <path
       style="font-variation-settings:normal;vector-effect:none;fill:#9b8f00;fill-opacity:1;stroke:none;stroke-width:1.40049;stroke-linecap:butt;stroke-linejoin:miter;stroke-miterlimit:4;stroke-dasharray:none;stroke-dashoffset:0;stroke-opacity:1;paint-order:fill markers stroke;stop-color:#000000"
       d="m 242.78888,111.91853 c 34.42936,-15.50205 77.90078,-35.07651 96.60315,-43.49876 41.4163,-18.65106 54.87376,-24.60238 56.6275,-25.04255 1.73373,-0.43513 5.76371,2.80421 16.70798,13.43004 13.19755,12.81356 23.48446,25.14599 32.66176,39.15649 3.9761,6.07009 11.18355,18.61344 12.6031,21.93358 l 0.56649,1.32492 -10.63782,0.92265 c -5.85081,0.50744 -10.8029,1.02073 -11.00464,1.14065 -0.20175,0.11992 -25.58906,2.41517 -56.41624,5.10059 -91.45129,7.96648 -164.07571,18.99226 -170.59386,9.58242 -2.90795,-6.45776 24.74715,-20.33202 32.88258,-24.05003 z"
       id="path851"
       sodipodi:nodetypes="cssssscssscc" />
    <path
       style="font-variation-settings:normal;opacity:0.79878679;vector-effect:none;fill:#a2b3ba;fill-opacity:1;stroke:#a2b3ba;stroke-width:1.2486;stroke-linecap:butt;stroke-linejoin:miter;stroke-miterlimit:4;stroke-dasharray:none;stroke-dashoffset:0;stroke-opacity:1;paint-order:fill markers stroke;stop-color:#000000"
       d="m 257.56729,265.0769 v -79.10182 l -5.51206,-1.92151 c -3.03164,-1.05684 -5.51206,-2.68307 -5.51206,-3.61385 0,-0.93078 2.37502,-6.14303 5.27783,-11.58276 2.9028,-5.43974 5.83851,-14.37801 6.52379,-19.86283 l 1.24597,-9.9724 32.51998,-3.21576 c 74.68417,-7.38518 126.01916,-12.00945 126.62242,-11.40619 3.26905,3.26905 13.87008,35.15513 16.27422,48.95003 8.54166,49.01195 -8.22773,96.36603 -47.06358,132.90001 -11.93617,11.2287 -19.02059,16.10912 -33.70105,23.21652 -26.13166,12.65136 -35.78663,14.71238 -68.92102,14.71238 h -27.75444 z"
       id="path915" />
    <path
       style="font-variation-settings:normal;opacity:0.79878679;vector-effect:none;fill:#a2b3ba;fill-opacity:1;stroke:#a2b3ba;stroke-width:1.2486;stroke-linecap:butt;stroke-linejoin:miter;stroke-miterlimit:4;stroke-dasharray:none;stroke-dashoffset:0;stroke-opacity:1;paint-order:fill markers stroke;stop-color:#000000"
       d="m 245.69056,100.117 c -5.07232,-9.03755 -15.3114,-23.010001 -21.66173,-29.560031 l -4.45334,-4.593385 -0.29556,-14.698835 C 219.00974,37.828167 218.8037,36.27538 216.8806,33.182673 l -2.10376,-3.383241 4.40045,-0.750807 c 8.52209,-1.454042 44.89592,-0.850337 56.27296,0.933976 14.6453,2.296887 32.47992,7.027001 45.50727,12.069476 14.01419,5.424449 36.72973,17.145181 35.30201,18.215083 -0.49625,0.371884 -102.76708,46.29406 -104.75506,47.03766 -1.11075,0.41548 -2.53443,-1.34464 -5.81391,-7.18782 z"
       id="path917" />
    <path
       style="font-variation-settings:normal;opacity:0.79878679;vector-effect:none;fill:#a2b3ba;fill-opacity:1;stroke:#a2b3ba;stroke-width:1.2486;stroke-linecap:butt;stroke-linejoin:miter;stroke-miterlimit:4;stroke-dasharray:none;stroke-dashoffset:0;stroke-opacity:1;paint-order:fill markers stroke;stop-color:#000000"
       d="M 62.836954,356.72491 C 41.919958,323.1931 29.990925,286.16653 28.65188,250.6177 27.354541,216.17611 33.224391,186.28958 47.436521,154.97506 69.195975,107.03103 109.01687,67.390888 156.64136,46.265919 c 15.37141,-6.81835 13.76693,-7.658489 13.33903,6.98462 l -0.3666,12.545275 -6.23038,7.20998 c -8.55771,9.903231 -16.54759,22.126273 -23.0204,35.216936 -7.43045,15.0274 -8.5237,19.8742 -7.97668,35.36378 0.49527,14.02422 1.61176,17.93681 8.00876,28.06574 5.24631,8.30696 4.93887,10.42512 -1.79499,12.36653 l -5.05272,1.45674 -0.23472,79.54477 -0.23473,79.54477 -25.0289,0.64007 c -13.765892,0.35205 -26.495504,1.0144 -28.288023,1.4719 -5.541348,1.41429 -9.783817,7.08632 -10.862952,14.52338 l -0.616966,4.25193 z"
       id="path919" />
    <g
       id="g839"
       transform="translate(-1062.923,-146.25707)" />
  </g>
</svg>
