<?xml version="1.0" encoding="UTF-8" standalone="no"?>
<svg
   xmlns:dc="http://purl.org/dc/elements/1.1/"
   xmlns:cc="http://creativecommons.org/ns#"
   xmlns:rdf="http://www.w3.org/1999/02/22-rdf-syntax-ns#"
   xmlns:svg="http://www.w3.org/2000/svg"
   xmlns="http://www.w3.org/2000/svg"
   xmlns:sodipodi="http://sodipodi.sourceforge.net/DTD/sodipodi-0.dtd"
   xmlns:inkscape="http://www.inkscape.org/namespaces/inkscape"
   version="1.1"
   id="svg2"
   width="466.16949"
   height="423.05084"
   viewBox="0 0 466.16949 423.05084"
   sodipodi:docname="logo.svg"
   inkscape:version="1.0.1 (3bc2e813f5, 2020-09-07)">
  <metadata
     id="metadata8">
    <rdf:RDF>
      <cc:Work
         rdf:about="">
        <dc:format>image/svg+xml</dc:format>
        <dc:type
           rdf:resource="http://purl.org/dc/dcmitype/StillImage" />
        <dc:title></dc:title>
      </cc:Work>
    </rdf:RDF>
  </metadata>
  <defs
     id="defs6" />
  <sodipodi:namedview
     pagecolor="#ffffff"
     bordercolor="#666666"
     borderopacity="1"
     objecttolerance="10"
     gridtolerance="10"
     guidetolerance="10"
     inkscape:pageopacity="0"
     inkscape:pageshadow="2"
     inkscape:window-width="1920"
     inkscape:window-height="1051"
     id="namedview4"
     showgrid="false"
     inkscape:zoom="0.38485052"
     inkscape:cx="192.80864"
     inkscape:cy="-310.6581"
     inkscape:window-x="0"
     inkscape:window-y="0"
     inkscape:window-maximized="1"
     inkscape:current-layer="g10" />
  <g
     inkscape:groupmode="layer"
     inkscape:label="Image"
     id="g10">
    <g
       id="g845"
       transform="translate(-130.69887,685.07935)"
       style="font-variation-settings:normal;opacity:1;vector-effect:none;fill:#3f3d56;fill-opacity:1;stroke-width:1.2486;stroke-linecap:butt;stroke-linejoin:miter;stroke-miterlimit:4;stroke-dasharray:none;stroke-dashoffset:0;stroke-opacity:1;stop-color:#000000;stop-opacity:1">
      <path
         style="font-variation-settings:normal;vector-effect:none;fill:#3f3d56;fill-opacity:1;stroke-width:1.2486;stroke-linecap:butt;stroke-linejoin:miter;stroke-miterlimit:4;stroke-dasharray:none;stroke-dashoffset:0;stroke-opacity:1;stop-color:#000000;stop-opacity:1"
         d="m 213.64492,-262.8243 c -2.13952,-0.4943 -4.83912,-2.73495 -10.85825,-9.01229 -37.1372,-38.73031 -60.81325,-86.1776 -69.36092,-139.00071 -1.97843,-12.22634 -2.43306,-44.27887 -0.82431,-58.1158 2.31679,-19.92676 6.85521,-38.74447 14.15087,-58.67391 4.26993,-11.66413 16.61964,-35.80893 24.08691,-47.09212 25.66109,-38.77437 61.43815,-69.54619 102.60231,-88.24817 59.023,-26.81572 125.37275,-29.3148 185.6324,-6.99189 10.01885,3.71144 29.26602,12.91627 38.44203,18.38465 6.90948,4.11765 25.49339,17.02757 25.08615,17.42692 -0.11628,0.11403 -5.02081,2.38231 -10.89894,5.04062 l -10.68752,4.83329 -7.898,-5.09932 c -70.59798,-45.58143 -164.05725,-45.99394 -235.70403,-1.04036 -35.70453,22.40222 -63.92064,53.69852 -82.40129,91.39655 -10.03619,20.47247 -16.26742,39.67785 -20.04663,61.78606 -2.16206,12.648 -2.96944,40.86959 -1.56024,54.53783 3.89155,37.74537 18.91716,76.65231 42.10748,109.03203 3.20468,4.47458 6.75171,9.2339 7.88228,10.57627 l 2.05559,2.44068 0.0305,-11.79661 c 0.0337,-13.01687 0.80366,-15.85511 5.17095,-19.06081 2.20196,-1.61629 3.45343,-1.69483 30.71186,-1.92759 l 28.41636,-0.24262 v -80.38619 -80.38618 l 5.49153,-1.56801 5.49152,-1.56801 0.23512,-6.13944 0.23513,-6.13944 -4.53417,-6.85018 c -5.84366,-8.82852 -7.02331,-12.73249 -7.5201,-24.88717 -0.52759,-12.90819 0.78939,-18.84346 7.01101,-31.5967 7.18195,-14.72174 19.61374,-32.55147 27.55006,-39.51243 l 3.05686,-2.68118 0.40678,-15.70202 0.40678,-15.70203 3.06209,-3.06228 3.0621,-3.06229 10.44225,-0.26561 c 12.06427,-0.30686 15.36532,0.59133 17.98897,4.89462 1.48619,2.43764 1.64218,4.08414 1.64493,17.36256 l 0.003,14.66953 4.94657,4.85589 c 5.58231,5.47998 14.34334,16.7969 19.33683,24.97805 3.29174,5.39307 9.07254,16.42124 9.07254,17.30791 0,0.53628 -14.99165,7.57452 -17.44609,8.19055 -1.42332,0.35722 -2.12159,-0.44841 -4.40884,-5.08671 -5.05102,-10.24293 -13.12848,-21.56604 -20.93534,-29.34747 -4.15251,-4.13898 -7.91969,-7.52542 -8.37154,-7.52542 -1.58845,0 -10.43845,8.02253 -14.4904,13.13555 -9.26235,11.6879 -17.60458,26.2289 -20.20494,35.21846 -1.05682,3.65349 -1.30327,6.76965 -1.01267,12.80451 0.37442,7.77551 0.46864,8.09646 3.74975,12.77401 7.91371,11.28179 9.06201,16.65548 7.89239,36.93403 l -0.5966,10.34364 -5.0031,1.47336 -5.00312,1.47336 -0.20724,83.14188 -0.20743,83.14187 H 258.8307 226.73629 l -0.24074,21.76271 c -0.22427,20.27446 -0.35201,21.91344 -1.86786,23.96666 -1.27359,1.7251 -6.99166,5.05439 -7.94867,4.62803 -0.10281,-0.0458 -1.46828,-0.37931 -3.03438,-0.74112 z m 147.05469,-132.64873 -0.20723,-83.1251 -5.02106,-1.54135 -5.02105,-1.54135 -0.65794,-5.48157 c -0.36186,-3.01486 -0.62303,-10.24089 -0.58037,-16.05783 0.0904,-12.33094 0.74425,-14.61033 6.73885,-23.49395 4.10623,-6.08517 5.70485,-10.55703 5.74202,-16.06226 0.0196,-2.90187 0.0779,-2.95316 3.88429,-3.42114 2.12543,-0.2613 6.88475,-0.72184 10.57627,-1.02342 l 6.71187,-0.54832 v 4.10128 c 0,4.50318 -1.77281,14.64198 -3.23161,18.4817 -0.50999,1.34238 -2.81245,5.32217 -5.11658,8.84399 -4.08138,6.23833 -4.19025,6.55995 -4.22565,12.48272 l -0.0364,6.07941 5.69491,1.78765 5.69492,1.78765 0.20737,80.36504 0.20736,80.36503 31.52145,-0.33 c 30.52541,-0.31956 31.79355,-0.39625 40.13273,-2.42682 45.76841,-11.14449 81.75081,-38.92789 103.10305,-79.60985 12.41191,-23.64814 18.034,-46.02509 18.04358,-71.81668 0.009,-24.56286 -5.38439,-47.87803 -15.96951,-69.03325 -1.50563,-3.00917 -2.73753,-5.7963 -2.73753,-6.19362 0,-0.39732 3.5695,-0.97526 7.93221,-1.28432 4.36271,-0.30905 9.27614,-0.76747 10.91871,-1.01871 2.81968,-0.43129 3.075,-0.28115 4.5704,2.68774 5.30007,10.52245 11.1852,29.14259 14.10778,44.63606 2.15495,11.424 2.95988,36.32841 1.56661,48.47087 -4.87883,42.51972 -24.37309,81.09247 -56.02377,110.85271 -24.02025,22.58557 -50.69343,36.32689 -85.07363,43.82769 -7.79376,1.70038 -10.51594,1.81203 -50.74023,2.08094 l -42.50462,0.28416 z"
         id="path847" />
      <path
         style="font-variation-settings:normal;vector-effect:none;fill:#9b8f00;fill-opacity:1;stroke:none;stroke-width:1.2486;stroke-linecap:butt;stroke-linejoin:miter;stroke-miterlimit:4;stroke-dasharray:none;stroke-dashoffset:0;stroke-opacity:1;paint-order:fill markers stroke;stop-color:#000000;stop-opacity:1;opacity:1"
         d="m 325.21949,-544.77179 c 2.52636,-1.21986 29.70772,-13.52584 60.40302,-27.34662 30.6953,-13.82077 69.452,-31.27227 86.12599,-38.78108 36.92447,-16.62824 48.92239,-21.93411 50.48593,-22.32654 1.54569,-0.38794 5.1386,2.50008 14.8959,11.97348 11.7662,11.42385 20.93744,22.41876 29.11941,34.90974 3.54487,5.41176 9.97063,16.59471 11.23622,19.55476 l 0.50505,1.18123 -9.48409,0.82258 c -5.21625,0.45241 -9.63126,0.91003 -9.81112,1.01694 -0.17987,0.10691 -22.81378,2.15323 -50.29758,4.5474 -81.53288,7.10247 -172.48366,15.26429 -181.57105,16.29398 -6.50502,0.73708 -6.63884,0.58344 -1.60768,-1.84587 z"
         id="path851" />
    </g>
    <g
       id="g839"
       transform="translate(-1062.923,-146.25707)" />
  </g>
</svg>
