<?xml version="1.0" encoding="UTF-8"?>
<svg width="1200" height="900" data-name="Layer 1" version="1.1" viewBox="0 0 1200 900" xmlns="http://www.w3.org/2000/svg" xmlns:cc="http://creativecommons.org/ns#" xmlns:dc="http://purl.org/dc/elements/1.1/" xmlns:rdf="http://www.w3.org/1999/02/22-rdf-syntax-ns#">
 <metadata>
  <rdf:RDF>
   <cc:Work rdf:about="">
    <dc:format>image/svg+xml</dc:format>
    <dc:type rdf:resource="http://purl.org/dc/dcmitype/StillImage"/>
    <dc:title>light_the_fire</dc:title>
   </cc:Work>
  </rdf:RDF>
 </metadata>
 <title>light_the_fire</title>
 <g stroke-width="1.1128">
  <ellipse cx="600" cy="857.09" rx="600" ry="42.912" fill="#3f3d56"/>
  <ellipse cx="570.11" cy="250.52" rx="61.922" ry="61.469" fill="#9b8f00"/>
  <path d="m679.54 813.6s-131.85 57.41-225.27 1.1598l0.86477-16.237 8.0498-150.77 7.6121-142.65 9.0961-170.49h175.09l8.4128 170.49 7.0463 142.65 7.4413 150.77z" fill="#3f3d56"/>
  <path d="m454.27 334.6" fill="none" stroke="#2f2e41" stroke-miterlimit="10"/>
  <path d="m679.54 813.6s-121.17 58.57-225.27 1.1598l0.86477-16.237h222.75z" fill="#9b8f00"/>
 </g>
 <polygon transform="matrix(1.0676 0 0 1.1598 0 -9.6901e-6)" points="433.85 558.5 440.98 435.5 621.38 435.5 627.98 558.5" fill="#9b8f00"/>
 <g fill="#3f3d56">
  <g stroke-width="1.1128">
   <rect x="469.22" y="316.04" width="196.44" height="23.196"/>
   <rect x="469.22" y="238.34" width="196.44" height="23.196"/>
   <rect x="486.3" y="261.53" width="11.744" height="60.309"/>
   <rect x="517.26" y="261.53" width="11.744" height="60.309"/>
   <rect x="548.22" y="261.53" width="11.744" height="60.309"/>
   <rect x="579.18" y="261.53" width="11.744" height="60.309"/>
   <rect x="610.14" y="261.53" width="11.744" height="60.309"/>
   <rect x="517.26" y="169.33" width="11.744" height="79.446"/>
   <rect x="548.22" y="169.33" width="11.744" height="79.446"/>
   <rect x="579.18" y="169.33" width="11.744" height="79.446"/>
   <rect x="610.14" y="169.33" width="11.744" height="79.446"/>
   <rect x="641.1" y="261.53" width="11.744" height="60.309"/>
   <rect x="486.83" y="178.61" width="11.744" height="70.747"/>
   <rect x="641.64" y="178.61" width="11.744" height="70.747"/>
  </g>
  <polygon transform="matrix(1.0676 0 0 1.1598 0 -9.6901e-6)" points="624 105.5 624 165.5 440 165.5 440 105.5 532 31"/>
 </g>
 <g stroke-width="1.1128">
  <ellipse cx="570.11" cy="249.36" rx="165.15" ry="179.41" fill="#9b8f00" opacity=".3"/>
  <ellipse cx="570.11" cy="249.36" rx="229.54" ry="249.36" fill="#9b8f00" opacity=".3"/>
  <path d="m54.885 803.43c6.4838 26.037 28.692 42.163 28.692 42.163s11.696-26.089 5.2124-52.127c-6.4838-26.037-28.692-42.163-28.692-42.163s-11.696 26.089-5.2124 52.127z" fill="#8985a8"/>
  <path d="m64.412 797.83c17.792 18.815 19.965 47.738 19.965 47.738s-26.673-1.5821-44.464-20.397c-17.792-18.815-19.965-47.738-19.965-47.738s26.673 1.5821 44.464 20.397z" fill="#3f3d56"/>
  <path d="m338.18 765.94c-9.5585 38.385-42.299 62.157-42.299 62.157s-17.243-38.461-7.6841-76.846c9.5585-38.385 42.299-62.157 42.299-62.157s17.243 38.461 7.6841 76.846z" fill="#8985a8"/>
  <path d="m251.22 765.94c9.5585 38.385 42.299 62.157 42.299 62.157s17.243-38.461 7.6842-76.846c-9.5585-38.385-42.299-62.157-42.299-62.157s-17.243 38.461-7.6841 76.846z" fill="#8985a8"/>
  <path d="m265.26 757.69c26.229 27.737 29.432 70.375 29.432 70.375s-39.321-2.3324-65.55-30.069c-26.229-27.737-29.432-70.375-29.432-70.375s39.321 2.3324 65.55 30.069z" fill="#3f3d56"/>
  <path d="m324.13 757.69c-26.229 27.737-29.432 70.375-29.432 70.375s39.321-2.3324 65.55-30.069c26.229-27.737 29.432-70.375 29.432-70.375s-39.321 2.3324-65.55 30.069z" fill="#3f3d56"/>
  <path d="m970.42 424.45c-8.4175-15.451-25.071-16.171-25.071-16.171s-16.228-2.2544-26.638 21.278c-9.7029 21.934-23.094 43.111-2.1559 48.246l3.7821-12.788 2.3422 13.74a81.925 88.999 0 0 0 8.9587 0.16632c22.423-0.78646 43.778 0.23009 43.09-8.511-0.914-11.62 3.7902-31.093-4.309-45.96z" fill="#2f2e41"/>
 </g>
 <g fill="#a0616a" stroke-width="1.1128">
  <ellipse cx="947.02" cy="444.78" rx="21.734" ry="23.611"/>
  <path d="m938.13 460.17s9.8792 25.042-3.2931 30.05l13.172 47.221 22.393-1.431 5.9275-15.74-1.3172-23.611-1.9758-15.74s-13.831 3.5774-12.514-22.895z"/>
  <path d="m932.86 489.5s-21.734-2.1464-19.758 15.025 3.9517 20.749 3.9517 20.749l1.9758 25.757-11.855 7.8702h-11.196s-34.248 8.5857-17.124 17.887c17.124 9.3012 23.051-7.1548 23.051-7.1548s31.613 0 33.589-5.7238c1.9758-5.7238-2.6344-74.409-2.6344-74.409z"/>
  <path d="m975.02 482.34s20.417-7.8702 21.734 9.3012c1.3172 17.171 1.3172 18.602 1.3172 18.602l3.9517 24.326s7.9033 21.464 7.9033 27.904 5.9275 26.473 5.9275 26.473 7.9034 27.904-0.6586 27.188c-8.5619-0.71549-9.8792-30.05-9.8792-30.05l-17.782-38.636-5.2689-23.611z"/>
 </g>
 <g stroke-width="1.1128">
  <path d="m936.16 486.64h-5.2689l-0.65862 30.05s-8.5619 12.879 1.9758 24.326l2.6344 18.602 48.079-2.1464 3.293-19.318s6.5861-15.74-2.6344-30.05l-8.5619-29.334h-4.6103s10.678 42.77-11.855 43.644c-18.441 0.71546-22.393-35.774-22.393-35.774z" fill="#d0cde1"/>
  <path d="m937.47 556.04-3.9517 14.31s-82.326 251.85-57.299 258.29 59.934 15.025 63.227 8.5857c3.2931-6.4393 20.417-194.61 20.417-194.61s-2.6344 196.76 5.9275 196.76c8.5619 0 65.203 1.4309 68.496-7.8702 3.2931-9.3012-29.638-258.29-48.737-264.01l-5.2689-12.879z" fill="#2f2e41"/>
  <path d="m984.89 548.88-52.03 2.1464s-2.3746 19.318 0 19.318c0.65861 0 54.665 5.0083 54.006-3.5774s-1.9759-17.887-1.9759-17.887z" fill="#3f3d56"/>
 </g>
 <g fill="#2f2e41">
  <ellipse cx="947.39" cy="408.36" rx="12.041" ry="13.081" stroke-width="1.1128"/>
  <path d="m934.08 404.92a12.042 13.081 0 0 1 10.774-13.007 12.041 13.081 0 1 0 0 26.015 12.042 13.081 0 0 1-10.774-13.007z" stroke-width="1.1128"/>
  <polygon transform="matrix(1.0676 0 0 1.1598 0 -9.6901e-6)" points="888.23 379.37 906.21 379 905.47 364.69 890.06 356.62 868.78 359.92 864.38 379.37 875.34 378.94 878.4 371.8 878.4 378.83 883.46 378.63 886.39 367.26"/>
 </g>
 <rect transform="matrix(.94999 -.31229 .26833 .96333 0 0)" x="701.42" y="751.95" width="6.3132" height="101.45" fill="#3f3d56" stroke-width="1.1133"/>
 <path d="m891.93 481.95a25.634 27.847 0 0 1-49.07 16.131c-4.1004-14.72 9.2852-62.813 9.2852-62.813s35.685 31.962 39.785 46.683z" fill="#9b8f00" stroke-width="1.1128"/>
 <path d="m884.45 490.31a17.451 18.958 0 1 1-33.406 10.981c-2.7914-10.021 6.3211-42.762 6.3211-42.762s24.293 21.759 27.085 31.78z" opacity=".1" stroke-width="1.1128"/>
</svg>
