<svg xmlns="http://www.w3.org/2000/svg" data-name="Layer 1" width="1200" height="927.734"><path d="M1175.014 927.734q-68.093-13.081-130.982-22.482l16.729-36.23c-5.584-2.195-30.236 18.538-30.236 18.538l22.185-105.192c-28.14 3.795-42.87 111.21-42.87 111.21l-31.278-36.352 15.05 40.85c-128.326-17.171-239.187-23.6-332.453-23.92l14.318-31.01c-5.583-2.194-30.236 18.538-30.236 18.538l22.185-105.192c-28.14 3.796-42.87 111.211-42.87 111.211l-31.278-36.352 15.94 43.267c-78.197 1.685-141.983 7.638-191.226 14.448 14.55-48.313 63.506-94.229 63.506-94.229-37.297 12.45-56.918 33.357-67.205 52.855-.549-59.672 5.133-170.3 44.62-292.744 0 0-77.742 188.774-68.425 315.548l1.085 22.51c-65.31 10.471-98.168 21.4-98.168 21.4z" fill="#3f3d56"/><path d="M1130.622 920.826c-.326-.532-8.01-13.363-10.674-40.007-2.444-24.445-.873-65.647 20.496-123.122 40.482-108.882-9.33-196.734-9.838-197.609l2.457-1.425c.129.222 12.982 22.62 20.575 58.287a254.288 254.288 0 01-10.531 141.737c-40.413 108.696-10.368 160.152-10.06 160.66z" fill="#3f3d56"/><circle cx="1114.793" cy="535.233" r="18.462" fill="#9B8F00"/><circle cx="1173.018" cy="603.399" r="18.462" fill="#3f3d56"/><circle cx="1133.254" cy="648.843" r="18.462" fill="#9B8F00"/><circle cx="1181.539" cy="687.186" r="18.462" fill="#9B8F00"/><circle cx="1119.053" cy="746.831" r="18.462" fill="#3f3d56"/><path d="M1141.775 921.506s-18.461-45.444 36.923-79.527zM1119.07 920.681s-8.402-48.325-73.432-47.911z" fill="#3f3d56"/><path d="M751.72 414.27c3.218-.118 6.491-.293 9.73-.52l.228 3.257c-3.275.23-6.584.407-9.838.526z" fill="#e6e6e6"/><path d="M474.564 20.236l-3.029-1.216c12.247-27.302 12.263-21.698 3.03 1.216zm-9.817 17.532l3.107 1.004a287.649 287.649 0 00-5.415 18.964l-3.169-.788a289.331 289.331 0 015.477-19.18zm548.495-13.519l-3.055 1.154c-12.07-27.262-5.778-24.423 3.055-1.154zM455.138 76.434l3.217.568c-1.136 6.44-2.06 13-2.75 19.498l-3.246-.345a291.722 291.722 0 012.779-19.72zm564.495-33.322a290.31 290.31 0 015.078 19.257l-3.185.723a286.758 286.758 0 00-5.02-19.039zm-568.692 72.906l3.263.122a291.017 291.017 0 00-.057 19.69l-3.263.101a293.59 293.59 0 01.057-19.913zm577.514-34.09a296.284 296.284 0 012.404 19.77l-3.253.284c-.57-6.523-1.37-13.1-2.378-19.55zm-573.03 73.557a291.444 291.444 0 002.594 19.52l-3.22.54a294.933 294.933 0 01-2.625-19.74zm6.513 38.818a288.433 288.433 0 005.238 18.982l-3.115.976a290.678 290.678 0 01-5.298-19.198zm11.773 37.558c2.379 6.082 5 12.159 7.79 18.06l-2.952 1.396a289.77 289.77 0 01-7.878-18.267zm16.81 35.545a288.04 288.04 0 0010.203 16.829l-2.733 1.788a291.407 291.407 0 01-10.319-17.02zm21.538 32.922a290.425 290.425 0 0012.411 15.284l-2.461 2.143a292.94 292.94 0 01-12.554-15.456zm25.84 29.687a290.18 290.18 0 0014.379 13.458l-2.148 2.459a294.157 294.157 0 01-14.543-13.61zm29.644 25.906a291.092 291.092 0 0016.08 11.382l-1.794 2.728a293.663 293.663 0 01-16.262-11.51zm32.898 21.642a290.07 290.07 0 0017.488 9.085l-1.405 2.948a292.955 292.955 0 01-17.686-9.189zm35.56 16.948a286.397 286.397 0 0018.573 6.603l-.987 3.112a290.619 290.619 0 01-18.785-6.677zm37.56 11.909a286.68 286.68 0 0019.287 3.977l-.548 3.219a289.754 289.754 0 01-19.507-4.023zm38.803 6.613c6.5.651 13.11 1.085 19.65 1.29l-.103 3.265c-6.614-.208-13.3-.647-19.872-1.305z" fill="#e6e6e6" stroke="#e6e6e6" stroke-width="1.42"/><path d="M1028.67 122.13l3.264-.06c.06 3.296.064 6.61.013 9.85l-3.264-.051c.05-3.203.045-6.48-.014-9.74z" fill="#e6e6e6"/><path fill="#ffb8b8" d="M800.237 775.943l-38.344-12.781-12.78 45.444 32.662 5.68zM1004.734 770.262l-34.083 4.26 8.52 51.125 32.663 2.84z"/><circle cx="884.024" cy="163.873" r="41.183" fill="#ffb8b8"/><path d="M858.462 189.435s7.1 44.023 5.68 48.284c-1.42 4.26 44.734-6.39 44.734-6.39s2.13-46.155 3.55-48.995zM908.166 327.186l14.2-7.101 8.522 95.148-22.722-2.84z" fill="#ffb8b8"/><path d="M920.726 230.568a11.788 11.788 0 00-12.697-8.86c-17.135 1.831-50.307 5.76-52.408 8.91-1.836 2.755-14.95 27.472-23.993 44.602a144.957 144.957 0 01-14.81 22.23c-5.243 6.615-10.9 19.263-3.8 39.677 11.36 32.663 12.78 78.106 12.78 78.106l89.468-19.881s-7.1-39.764 9.941-65.326c13.44-20.158 1.266-76.527-4.481-99.458z" fill="#3f3d56"/><path d="M820.118 398.192l8.521 69.586-73.846 302.485s56.805 21.302 56.805 19.882c0-1.42 85.207-213.018 85.207-213.018l69.586 207.337 61.065-5.68-61.065-262.722s-.71-74.556-44.024-113.61l-8.482-21.88s-54.003-29.244-93.767 17.62zM1016.095 814.287l-51.125-8.521-2.84 32.663-25.562 14.2s-39.763 1.421-25.562 31.244c14.201 29.822 51.124 22.721 51.124 22.721s38.343 21.302 62.485 12.781c0 0 4.97-14.91 2.84-19.881-2.306-5.382-9.94-45.444-9.94-45.444zM795.976 797.245l-51.124-8.52-2.84 32.662-25.562 14.202s-39.764 1.42-25.562 31.242c14.2 29.823 51.124 22.722 51.124 22.722s38.343 21.302 62.485 12.781c0 0 4.97-10.65 2.84-19.882-1.316-5.705-9.94-45.443-9.94-45.443z" fill="#2f2e41"/><path d="M884.024 227.778s-36.498-4.504-38.841 21.89c-2.343 26.394 3.338 115.861 3.338 115.861l-34.083 120.71s-46.864 65.326-17.042 59.645c29.823-5.68 38.344-55.384 38.344-55.384l42.603-103.669 16.365-86.498a137.595 137.595 0 00.218-51c-2.09-11.114-5.47-20.952-10.902-21.555z" fill="#ffb8b8"/><path d="M907.76 103.223c-27.117 0-49.1 30.468-49.1 68.05v47.75h11.76l6.808-17.691-1.702 17.692h75.583l6.189-16.084-1.547 16.084h8.51V181.53c0-43.248-25.297-78.308-56.501-78.308z" fill="#2f2e41"/><path d="M912.922 113.806a32.159 32.159 0 00-25.375-12.949h-1.203c-23.212 0-42.028 21.004-42.028 46.913h7.777l1.256-9.56 1.842 9.56h46.128l3.865-8.088-.967 8.088h9.075q6.352 31.545-18.253 63.09h15.459l7.729-16.177-1.933 16.177h29.468l5.797-37.207c0-27.864-16.19-51.493-38.637-59.847z" fill="#2f2e41"/><path fill="#3f3d56" d="M0 39.612h617.751v46.864H0zM0 158.902h617.751v46.864H0zM0 278.192h617.751v46.864H0z"/><circle cx="308.166" cy="63.044" r="46.864" fill="#9B8F00"/><circle cx="72.426" cy="182.334" r="46.864" fill="#9B8F00"/><circle cx="482.84" cy="301.624" r="46.864" fill="#9B8F00"/></svg>