<svg xmlns="http://www.w3.org/2000/svg" data-name="Layer 1" width="1200" height="883.717"><path fill="#f2f2f2" d="M129.715 116.467h1004.6v540.938h-1004.6z"/><path opacity=".3" fill="#9B8F00" d="M226.863 209.2h324.563v398.528H226.863z"/><path fill="#3f3d56" d="M676.173 237.903h259.43v14.351h-259.43zM676.173 264.397h377.553v14.351H676.173zM676.173 328.427h259.43v14.351h-259.43zM676.173 434.407h259.43v14.351h-259.43zM676.173 354.922h377.553v14.351H676.173zM676.173 381.417h377.553v14.351H676.173zM676.173 407.912h377.553v14.351H676.173z"/><path fill="#9B8F00" d="M676.173 498.436H811.96v37.535H676.173z"/><path fill="#3f3d56" d="M247.838 187.672h324.563V586.2H247.838z"/><path d="M526.035 408.03c0 77.4-46.013 104.425-102.772 104.425-56.76 0-102.772-27.025-102.772-104.424 0-77.4 102.772-175.864 102.772-175.864s102.772 98.464 102.772 175.864z" fill="#9B8F00"/><path fill="#3f3d56" d="M420.736 425.678l.474-29.127 30.19-57.979-30.065 50.271v.001l.85-52.385 32.33-46.158-32.196 37.92.533-96.054-3.342 127.16.275-5.246-32.868-50.31 32.34 60.379-3.062 58.505-.09-1.553-37.892-52.944 37.776 58.43-.383 7.316-.068.11.03.601-7.769 148.43h10.38l1.247-76.667 37.682-58.286-37.59 52.523 1.054-64.777 43.804-80.137z"/><ellipse cx="145.17" cy="864.949" rx="144.618" ry="18.767" fill="#3f3d56"/><path d="M76.86 345.401l-4.803 11.41 5.404 73.86s-3.002 4.203 0 7.205c3.003 3.002 2.402 4.203 2.402 4.203s-4.804 0-2.402 3.603 2.402 5.405 2.402 5.405l-1.2 3.603s2.401 3.002 2.401 5.404 15.613 76.262 15.613 76.262l15.012-29.424-8.407-117.095z" fill="#9B8F00"/><path d="M234.82 530.156s26.42 19.46 27.351 35.022c.93 15.561-34.057-23.174-34.294-27.54-.238-4.365 6.944-7.482 6.944-7.482z" fill="#ffb9b9"/><path d="M69.055 824.589l-6.606 21.617s-9.608 21.017 3.603 24.02c13.21 3.002 25.821-8.407 25.821-8.407v-14.412l4.804-22.818zM177.142 824.589s-3.002 40.833 3.603 43.235c6.605 2.402 30.024 3.002 30.625 0 .6-3.002 7.806-6.005 2.402-10.208-5.405-4.204-9.008-28.824-9.008-28.824z" fill="#2f2e41"/><path d="M116.493 437.876v18.015s-19.816 41.433-27.022 106.886c-7.206 65.453-31.826 264.814-25.82 268.417 6.004 3.603 70.857 6.005 72.658 1.201 1.801-4.804 3.603-145.317 3.603-145.317l22.218-99.08s4.203 35.428 7.806 41.433c3.603 6.005-6.005 201.163 0 204.165 6.005 3.003 87.07 8.407 85.87-1.2-1.201-9.609-28.223-270.22-28.223-270.22s-13.811-123.1-18.015-124.3c-4.203-1.201-42.634-2.402-48.639-1.201-6.005 1.201-44.436 1.201-44.436 1.201z" fill="#2f2e41"/><circle cx="162.13" cy="254.728" r="34.228" fill="#ffb9b9"/><path d="M169.336 283.551s-17.414 27.022-13.21 34.228c4.202 7.206-44.437-7.206-44.437-7.206s29.424-36.03 28.823-40.233c-.6-4.203 28.824 13.211 28.824 13.211z" fill="#ffb9b9"/><path d="M205.365 323.784s-31.826-10.209-36.03-14.412a57.757 57.757 0 01-7.205-9.007s-38.431-5.405-39.632-5.405c-1.201 0-10.208 10.809-12.61 13.211-2.402 2.402-33.027 18.615-33.027 22.818 0 4.204-4.804 25.821-4.804 25.821s10.809 22.218 17.414 27.022c6.605 4.804 8.407 3.603 9.007 11.41.6 7.806 9.008 20.416 9.008 20.416s5.404 13.811 4.203 18.015c-1.2 4.203-6.605 7.806 6.005 6.605 12.61-1.201 75.06 2.402 75.06-4.203 0-6.606-12.009-69.657-12.009-69.657z" fill="#9B8F00"/><path d="M193.956 324.985l11.409-1.201s4.203 2.402 4.804 25.82c.6 23.42.6 79.865 4.804 84.669 4.203 4.804 21.617 79.264 21.617 79.264s4.804 1.201 4.804 5.405c0 4.203 5.404 7.806 3.002 12.61-2.401 4.804 2.402 3.603-.6 6.605-3.002 3.003-17.414 9.007-18.015 5.404-.6-3.602 1.802-4.203-.6-5.404-2.402-1.2-2.402-1.801-3.002-6.005-.601-4.203-6.005-8.407-5.405-10.208.6-1.801-26.421-54.044-26.421-55.845 0-1.802-1.802-8.407-4.204-9.608-2.402-1.2-6.005-2.402-4.203-5.404 1.801-3.003-4.804-93.076-4.804-93.076z" fill="#9B8F00"/><path d="M191.074 233.021c-10.496-11.393-26.979-17.44-42.095-14.052-15.115 3.39-27.844 16.81-29.026 32.255-.242 3.16-.04 6.387-.858 9.449-1.375 5.15-5.467 9.23-6.91 14.361-.965 3.437-.679 7.137-1.703 10.556-1.892 6.32-7.748 10.44-12.212 15.296a15.478 15.478 0 00-3.91 6.397 24.123 24.123 0 00-.295 6.51 45.325 45.325 0 01-12.152 31.62 77.998 77.998 0 0115.122-8.792c-2.654 8.451-.228 18.45 6.45 24.271 6.678 5.82 17.373 6.725 24.593 1.593 4.29-3.049 7.075-7.728 9.736-12.268l10.074-17.19c1.823-3.11 3.725-6.309 6.637-8.433 2.314-1.687 5.125-2.585 7.454-4.252 5.876-4.204 7.453-12.432 6.36-19.573-1.095-7.141-4.306-13.772-6.148-20.758-1.457-5.525-1.914-11.857 1.363-16.538 4.35-6.213 13.29-7.006 19.202-11.759 2.225-1.789 3.22-3.966 4.814-6.206 1.471-2.068 1.846-1.326 4.126-1.421 6.26-.26 1.698-8.548-.622-11.066z" fill="#2f2e41"/><ellipse cx="161.178" cy="266.605" rx="2.76" ry="6.624" fill="#ffb9b9"/><circle cx="744.066" cy="766.145" r="35.327" fill="#f2f2f2"/><circle cx="35.327" cy="70.653" r="35.327" fill="#f2f2f2"/><circle cx="1164.674" cy="35.327" r="35.327" fill="#f2f2f2"/></svg>