<?xml version="1.0" encoding="UTF-8" standalone="no"?>
<svg
   xmlns:dc="http://purl.org/dc/elements/1.1/"
   xmlns:cc="http://creativecommons.org/ns#"
   xmlns:rdf="http://www.w3.org/1999/02/22-rdf-syntax-ns#"
   xmlns:svg="http://www.w3.org/2000/svg"
   xmlns="http://www.w3.org/2000/svg"
   xmlns:sodipodi="http://sodipodi.sourceforge.net/DTD/sodipodi-0.dtd"
   xmlns:inkscape="http://www.inkscape.org/namespaces/inkscape"
   id="a7041ee8-d42c-4836-81ad-e3e5854f3a9a"
   data-name="Layer 1"
   width="1200"
   height="927.73425"
   viewBox="0 0 1200 927.73423"
   version="1.1"
   sodipodi:docname="undraw_options_2fvi.svg"
   inkscape:version="0.92.4 (unknown)">
  <metadata
     id="metadata69">
    <rdf:RDF>
      <cc:Work
         rdf:about="">
        <dc:format>image/svg+xml</dc:format>
        <dc:type
           rdf:resource="http://purl.org/dc/dcmitype/StillImage" />
        <dc:title>options</dc:title>
      </cc:Work>
    </rdf:RDF>
  </metadata>
  <defs
     id="defs67" />
  <sodipodi:namedview
     pagecolor="#ffffff"
     bordercolor="#666666"
     borderopacity="1"
     objecttolerance="10"
     gridtolerance="10"
     guidetolerance="10"
     inkscape:pageopacity="0"
     inkscape:pageshadow="2"
     inkscape:window-width="640"
     inkscape:window-height="480"
     id="namedview65"
     showgrid="false"
     fit-margin-top="0"
     fit-margin-left="0"
     fit-margin-right="0"
     fit-margin-bottom="0"
     inkscape:zoom="0.30715153"
     inkscape:cx="330.8088"
     inkscape:cy="148.68009"
     inkscape:current-layer="a7041ee8-d42c-4836-81ad-e3e5854f3a9a" />
  <title
     id="title2">options</title>
  <path
     d="m 1175.0139,927.73428 q -68.0934,-13.08146 -130.9822,-22.4826 l 16.729,-36.22969 c -5.5834,-2.19498 -30.2356,18.53781 -30.2356,18.53781 l 22.1847,-105.19214 c -28.1405,3.79565 -42.87,111.21106 -42.87,111.21106 l -31.27786,-36.35228 15.04968,40.84961 C 865.28555,880.9047 754.42534,874.47533 661.15858,874.15539 L 675.477,843.14656 c -5.58343,-2.19496 -30.23561,18.53783 -30.23561,18.53783 l 22.18474,-105.19214 c -28.14053,3.79563 -42.87004,111.21104 -42.87004,111.21104 l -31.27792,-36.35219 15.93997,43.26641 c -78.19671,1.68568 -141.9833,7.63897 -191.22603,14.44885 14.55025,-48.31385 63.5056,-94.22938 63.5056,-94.22938 -37.29647,12.45057 -56.91798,33.35655 -67.20507,52.85489 -0.54835,-59.67181 5.13301,-170.2993 44.62113,-292.7439 0,0 -77.7425,188.77421 -68.426,315.54813 l 1.08497,22.51083 c -65.31001,10.47027 -98.16758,21.3982 -98.16758,21.3982 z"
     id="path4"
     inkscape:connector-curvature="0"
     style="fill:#3f3d56;stroke-width:1.42011833" />
  <path
     d="m 1130.6222,920.82611 c -0.3259,-0.53254 -8.0103,-13.36354 -10.6744,-40.0074 -2.4436,-24.44434 -0.8723,-65.64719 20.496,-123.12176 40.4817,-108.88175 -9.3293,-196.73354 -9.8382,-197.60864 l 2.4574,-1.42566 c 0.129,0.22189 12.9822,22.62065 20.5751,58.28725 a 254.28811,254.28811 0 0 1 -10.5316,141.73724 c -40.4123,108.69586 -10.3679,160.15163 -10.0601,160.65921 z"
     id="path6"
     inkscape:connector-curvature="0"
     style="fill:#3f3d56;stroke-width:1.42011833" />
  <circle
     cx="1114.7928"
     cy="535.23346"
     r="18.461538"
     id="circle8"
     style="fill:#9B8F00;stroke-width:1.42011833" />
  <circle
     cx="1173.0177"
     cy="603.39917"
     r="18.461538"
     id="circle10"
     style="fill:#3f3d56;stroke-width:1.42011833" />
  <circle
     cx="1133.2544"
     cy="648.84296"
     r="18.461538"
     id="circle12"
     style="fill:#9B8F00;stroke-width:1.42011833" />
  <circle
     cx="1181.5385"
     cy="687.18616"
     r="18.461538"
     id="circle14"
     style="fill:#9B8F00;stroke-width:1.42011833" />
  <circle
     cx="1119.0532"
     cy="746.83118"
     r="18.461538"
     id="circle16"
     style="fill:#3f3d56;stroke-width:1.42011833" />
  <path
     d="m 1141.7751,921.50566 c 0,0 -18.4615,-45.44379 36.9231,-79.52663 z"
     id="path18"
     inkscape:connector-curvature="0"
     style="fill:#3f3d56;stroke-width:1.42011833" />
  <path
     d="m 1119.0703,920.68132 c 0,0 -8.402,-48.32569 -73.4322,-47.9115 z"
     id="path20"
     inkscape:connector-curvature="0"
     style="fill:#3f3d56;stroke-width:1.42011833" />
  <path
     d="m 751.72046,414.26963 c 3.21708,-0.11756 6.49086,-0.29263 9.72906,-0.51955 l 0.22826,3.25727 c -3.2748,0.22949 -6.58367,0.40615 -9.83732,0.52554 z"
     id="path22"
     inkscape:connector-curvature="0"
     style="fill:#e6e6e6;stroke-width:1.42011833" />
  <path
     d="m 474.56448,20.23627 -3.02927,-1.21659 c 12.24674,-27.3012903 12.26239,-21.6979303 3.02927,1.21659 z m -9.81702,17.5321 3.10703,1.00335 c -2.01354,6.23053 -3.83599,12.61065 -5.41577,18.96426 l -3.16867,-0.78805 c 1.59704,-6.4267 3.43991,-12.88016 5.47741,-19.17951 z m 548.49414,-13.51932 -3.055,1.15386 c -12.0694,-27.2617903 -5.7777,-24.42250027 3.055,-1.15386 z m -558.10408,52.185405 3.21712,0.567309 c -1.13574,6.44072 -2.06014,13.000885 -2.74919,19.498225 l -3.24628,-0.344691 c 0.69665,-6.571399 1.63183,-13.205837 2.77835,-19.720843 z M 1019.6331,43.11158 c 1.9044,6.32996 3.6131,12.80946 5.0775,19.257412 l -3.1842,0.723409 c -1.4481,-6.375541 -3.1373,-12.781331 -5.0206,-19.039261 z m -568.69177,72.90654 3.26259,0.12142 c -0.24131,6.52349 -0.25977,13.14803 -0.0569,19.69074 l -3.263,0.10083 c -0.20625,-6.61523 -0.18664,-13.31496 0.0574,-19.91296 z M 1028.4547,81.928439 c 1.018,6.522333 1.8269,13.173614 2.4042,19.769201 l -3.2533,0.28392 c -0.5698,-6.522603 -1.3703,-13.099342 -2.3777,-19.548908 z M 455.42515,155.48502 c 0.64189,6.51433 1.5145,13.08204 2.59379,19.52018 l -3.21941,0.54046 c -1.09242,-6.51154 -1.97497,-13.15286 -2.62519,-19.74014 z m 6.51293,38.81802 c 1.52507,6.36774 3.28638,12.75408 5.23801,18.98245 l -3.11537,0.97591 c -1.97415,-6.29872 -3.75654,-12.75792 -5.29792,-19.19884 z m 11.77244,37.5576 c 2.37934,6.08252 4.99961,12.15935 7.78976,18.06046 l -2.95167,1.39597 c -2.82212,-5.96917 -5.47279,-12.11503 -7.87777,-18.26684 z m 16.80986,35.54556 c 3.1968,5.70559 6.63029,11.36741 10.20314,16.82848 l -2.73241,1.78815 c -3.614,-5.52372 -7.08557,-11.24999 -10.31886,-17.02011 z m 21.5391,32.92227 c 3.95066,5.21882 8.12768,10.36104 12.41077,15.28331 l -2.4614,2.14316 c -4.33327,-4.97705 -8.55754,-10.17749 -12.55385,-15.45545 z m 25.84028,29.68642 c 4.61723,4.6271 9.45444,9.15486 14.37823,13.45846 l -2.14843,2.45845 c -4.97994,-4.35235 -9.87189,-8.93142 -14.54227,-13.60994 z m 29.64298,25.90613 c 5.21311,3.96201 10.62315,7.79196 16.08033,11.38205 l -1.79392,2.7277 c -5.51912,-3.6305 -10.99131,-7.50324 -16.26189,-11.50997 z m 32.89875,21.64233 c 5.70745,3.21614 11.59075,6.27292 17.48721,9.08424 l -1.4045,2.94817 c -5.96429,-2.84412 -11.91387,-5.93461 -17.68631,-9.18855 z m 35.56016,16.94791 c 6.09016,2.40536 12.33843,4.62623 18.57275,6.60275 l -0.98699,3.11229 c -6.30461,-1.99878 -12.62502,-4.24576 -18.78575,-6.6774 z m 37.55966,11.90826 c 6.354,1.5406 12.84245,2.87836 19.28698,3.97709 l -0.548,3.21897 c -6.51891,-1.11108 -13.08196,-2.46441 -19.50752,-4.02237 z m 38.8029,6.61397 c 6.49943,0.65054 13.10995,1.08473 19.65008,1.28971 l -0.10367,3.26455 c -6.61383,-0.2078 -13.29984,-0.64709 -19.87172,-1.30456 z"
     id="path24"
     inkscape:connector-curvature="0"
     style="fill:#e6e6e6;fill-opacity:1;stroke:#e6e6e6;stroke-width:1.42011833;stroke-miterlimit:4;stroke-dasharray:none;stroke-opacity:1"
     sodipodi:nodetypes="ccccccccccccccccccccccccccccccccccccccccccccccccccccccccccccccccccccccccccccccccccccccc" />
  <path
     d="m 1028.6698,122.12916 3.2643,-0.0593 c 0.06,3.29624 0.064,6.60994 0.013,9.85003 l -3.264,-0.051 c 0.05,-3.20322 0.045,-6.48019 -0.014,-9.73973 z"
     id="path26"
     inkscape:connector-curvature="0"
     style="fill:#e6e6e6;stroke-width:1.42011833" />
  <polygon
     points="563.5,661.464 536.5,652.464 527.5,684.464 550.5,688.464 "
     id="polygon28"
     transform="matrix(1.4201183,0,0,1.4201183,0,-163.41419)"
     style="fill:#ffb8b8" />
  <polygon
     points="707.5,657.464 683.5,660.464 689.5,696.464 712.5,698.464 "
     id="polygon30"
     transform="matrix(1.4201183,0,0,1.4201183,0,-163.41419)"
     style="fill:#ffb8b8" />
  <circle
     cx="884.02368"
     cy="163.87251"
     r="41.183434"
     id="circle32"
     style="fill:#ffb8b8;stroke-width:1.42011833" />
  <path
     d="m 858.46154,189.43465 c 0,0 7.10059,44.02367 5.68047,48.28402 -1.42012,4.26036 44.73373,-6.39053 44.73373,-6.39053 0,0 2.13018,-46.15385 3.5503,-48.99408 z"
     id="path34"
     inkscape:connector-curvature="0"
     style="fill:#ffb8b8;stroke-width:1.42011833" />
  <polygon
     points="639.5,345.464 649.5,340.464 655.5,407.464 639.5,405.464 "
     id="polygon36"
     transform="matrix(1.4201183,0,0,1.4201183,0,-163.41419)"
     style="fill:#ffb8b8" />
  <path
     d="m 920.72595,230.5684 a 11.788402,11.788402 0 0 0 -12.69728,-8.86089 c -17.13445,1.83195 -50.30671,5.75967 -52.40733,8.91057 -1.83621,2.75443 -14.951,27.47219 -23.99305,44.60221 a 144.95716,144.95716 0 0 1 -14.81057,22.22934 c -5.24227,6.61527 -10.90056,19.26313 -3.79997,39.67733 11.36095,32.66272 12.78107,78.10651 12.78107,78.10651 l 89.46745,-19.88166 c 0,0 -7.10059,-39.76331 9.94083,-65.32544 13.43896,-20.15844 1.26598,-76.52687 -4.48115,-99.45797 z"
     id="path38"
     inkscape:connector-curvature="0"
     style="fill:#3f3d56;stroke-width:1.42011833" />
  <path
     d="m 820.11834,398.19205 8.52071,69.58579 -73.84615,302.48521 c 0,0 56.80473,21.30178 56.80473,19.88166 0,-1.42012 85.2071,-213.01775 85.2071,-213.01775 l 69.5858,207.33728 61.06507,-5.68048 -61.06507,-262.72189 c 0,0 -0.71006,-74.55621 -44.02367,-113.60947 l -8.48157,-21.87989 c 0,0 -54.00363,-29.24437 -93.76695,17.61954 z"
     id="path40"
     inkscape:connector-curvature="0"
     style="fill:#2f2e41;stroke-width:1.42011833" />
  <path
     d="m 1016.0947,814.28672 -51.12429,-8.52071 -2.84023,32.66272 -25.56213,14.20119 c 0,0 -39.76332,1.42011 -25.56213,31.2426 14.20118,29.82248 51.12426,22.72189 51.12426,22.72189 0,0 38.34322,21.30178 62.48522,12.78107 0,0 4.9704,-14.91124 2.8402,-19.88166 -2.3065,-5.38186 -9.9408,-45.44379 -9.9408,-45.44379 z"
     id="path42"
     inkscape:connector-curvature="0"
     style="fill:#2f2e41;stroke-width:1.42011833" />
  <path
     d="m 795.97633,797.2453 -51.12426,-8.52071 -2.84024,32.66272 -25.56213,14.20119 c 0,0 -39.76331,1.42011 -25.56213,31.2426 14.20119,29.82248 51.12426,22.72189 51.12426,22.72189 0,0 38.3432,21.30178 62.48521,12.78107 0,0 4.97042,-10.65089 2.84024,-19.88166 -1.31662,-5.70535 -9.94083,-45.44379 -9.94083,-45.44379 z"
     id="path44"
     inkscape:connector-curvature="0"
     style="fill:#2f2e41;stroke-width:1.42011833" />
  <path
     d="m 884.02367,227.77784 c 0,0 -36.49816,-4.50431 -38.84079,21.88986 -2.34263,26.39418 3.33783,115.86162 3.33783,115.86162 l -34.08284,120.71006 c 0,0 -46.86391,65.32545 -17.04142,59.64497 29.82248,-5.68047 38.34319,-55.38461 38.34319,-55.38461 L 878.3432,386.8311 894.70779,300.33253 a 137.59456,137.59456 0 0 0 0.2187,-50.99929 c -2.09099,-11.11398 -5.47087,-20.95185 -10.90282,-21.5554 z"
     id="path46"
     inkscape:connector-curvature="0"
     style="fill:#ffb8b8;stroke-width:1.42011833" />
  <path
     d="m 907.75988,103.22334 v 0 c -27.11682,0 -49.09935,30.46722 -49.09935,68.05035 v 47.74982 h 11.75914 l 6.80787,-17.69169 -1.70199,17.69169 h 75.58326 l 6.18899,-16.08335 -1.54723,16.08335 h 8.50979 v -37.4921 c 0,-43.24829 -25.29613,-78.30807 -56.50048,-78.30807 z"
     id="path48"
     inkscape:connector-curvature="0"
     style="fill:#2f2e41;stroke-width:1.42011833" />
  <path
     d="m 912.92166,113.80581 a 32.158764,32.158764 0 0 0 -25.37424,-12.94864 h -1.20386 c -23.21142,0 -42.02791,21.00366 -42.02791,46.91304 v 1e-4 h 7.77754 l 1.25605,-9.56064 1.84162,9.56064 h 46.12815 l 3.86466,-8.08847 -0.96619,8.08847 h 9.07473 q 6.35188,31.54509 -18.25321,63.09009 h 15.45851 l 7.72925,-16.17695 -1.93228,16.17695 h 29.46781 l 5.79692,-37.2071 c 9e-5,-27.86465 -16.19008,-51.49332 -38.63755,-59.84749 z"
     id="path50"
     inkscape:connector-curvature="0"
     style="fill:#2f2e41;stroke-width:1.42011833" />
  <rect
     y="39.612156"
     width="617.75146"
     height="46.863907"
     id="rect52"
     x="0"
     style="fill:#3f3d56;stroke-width:1.42011833" />
  <rect
     y="158.9021"
     width="617.75146"
     height="46.863907"
     id="rect54"
     x="0"
     style="fill:#3f3d56;stroke-width:1.42011833" />
  <rect
     y="278.19205"
     width="617.75146"
     height="46.863907"
     id="rect56"
     x="0"
     style="fill:#3f3d56;stroke-width:1.42011833" />
  <circle
     cx="308.16568"
     cy="63.044109"
     r="46.863907"
     id="circle58"
     style="fill:#9B8F00;stroke-width:1.42011833" />
  <circle
     cx="72.426033"
     cy="182.33405"
     r="46.863907"
     id="circle60"
     style="fill:#9B8F00;stroke-width:1.42011833" />
  <circle
     cx="482.84024"
     cy="301.62399"
     r="46.863907"
     id="circle62"
     style="fill:#9B8F00;stroke-width:1.42011833" />
</svg>
