<?xml version="1.0" encoding="UTF-8" standalone="no"?>
<svg
   xmlns:dc="http://purl.org/dc/elements/1.1/"
   xmlns:cc="http://creativecommons.org/ns#"
   xmlns:rdf="http://www.w3.org/1999/02/22-rdf-syntax-ns#"
   xmlns:svg="http://www.w3.org/2000/svg"
   xmlns="http://www.w3.org/2000/svg"
   xmlns:sodipodi="http://sodipodi.sourceforge.net/DTD/sodipodi-0.dtd"
   xmlns:inkscape="http://www.inkscape.org/namespaces/inkscape"
   id="bd4103a6-87b0-4a08-8ab5-5811762a7009"
   data-name="Layer 1"
   width="1200"
   height="900"
   viewBox="0 0 1200.0001 900"
   version="1.1"
   sodipodi:docname="undraw_light_the_fire_gt58.svg"
   inkscape:version="1.0.1 (3bc2e813f5, 2020-09-07)">
  <metadata
     id="metadata95">
    <rdf:RDF>
      <cc:Work
         rdf:about="">
        <dc:format>image/svg+xml</dc:format>
        <dc:type
           rdf:resource="http://purl.org/dc/dcmitype/StillImage" />
        <dc:title>light_the_fire</dc:title>
      </cc:Work>
    </rdf:RDF>
  </metadata>
  <defs
     id="defs93" />
  <sodipodi:namedview
     pagecolor="#ffffff"
     bordercolor="#666666"
     borderopacity="1"
     objecttolerance="10"
     gridtolerance="10"
     guidetolerance="10"
     inkscape:pageopacity="0"
     inkscape:pageshadow="2"
     inkscape:window-width="1920"
     inkscape:window-height="1051"
     id="namedview91"
     showgrid="false"
     fit-margin-top="0"
     fit-margin-left="0"
     fit-margin-right="0"
     fit-margin-bottom="0"
     inkscape:zoom="0.30412371"
     inkscape:cx="-121.9322"
     inkscape:cy="322.23733"
     inkscape:current-layer="bd4103a6-87b0-4a08-8ab5-5811762a7009"
     inkscape:document-rotation="0"
     inkscape:window-x="0"
     inkscape:window-y="0"
     inkscape:window-maximized="1" />
  <title
     id="title2">light_the_fire</title>
  <ellipse
     cx="600"
     cy="857.08765"
     rx="600"
     ry="42.912373"
     id="ellipse4"
     style="fill:#3f3d56;stroke-width:1.11275" />
  <ellipse
     cx="570.10681"
     cy="250.51544"
     rx="61.921707"
     ry="61.469074"
     id="ellipse6"
     style="fill:#9b8f00;stroke-width:1.11275" />
  <path
     d="m 679.53737,813.59532 c 0,0 -131.85053,57.40978 -225.2669,1.15979 l 0.86477,-16.23712 8.04982,-150.77318 7.6121,-142.65463 9.09609,-170.48969 h 175.08897 l 8.41281,170.48969 7.04626,142.65463 7.44128,150.77318 z"
     id="path8"
     inkscape:connector-curvature="0"
     style="fill:#3f3d56;stroke-width:1.11275" />
  <path
     d="M 454.27047,334.60049"
     stroke-miterlimit="10"
     id="path10"
     inkscape:connector-curvature="0"
     style="fill:none;stroke:#2f2e41;stroke-width:1.11275;stroke-miterlimit:10" />
  <path
     d="m 679.53737,813.59532 c 0,0 -121.17437,58.56958 -225.2669,1.15979 l 0.86477,-16.23712 h 222.74733 z"
     id="path12"
     inkscape:connector-curvature="0"
     style="fill:#9b8f00;stroke-width:1.11275" />
  <polygon
     points="433.85,558.5 440.98,435.5 621.38,435.5 627.98,558.5 "
     id="polygon14"
     transform="matrix(1.0676157,0,0,1.1597938,0,-9.6900692e-6)"
     style="fill:#9b8f00" />
  <rect
     x="469.2171"
     y="316.04382"
     width="196.44128"
     height="23.195873"
     id="rect16"
     style="fill:#3f3d56;stroke-width:1.11275" />
  <rect
     x="469.2171"
     y="238.3376"
     width="196.44128"
     height="23.195873"
     id="rect18"
     style="fill:#3f3d56;stroke-width:1.11275" />
  <rect
     x="486.29895"
     y="261.53348"
     width="11.743773"
     height="60.309277"
     id="rect20"
     style="fill:#3f3d56;stroke-width:1.11275" />
  <rect
     x="517.25983"
     y="261.53348"
     width="11.743773"
     height="60.309277"
     id="rect22"
     style="fill:#3f3d56;stroke-width:1.11275" />
  <rect
     x="548.22064"
     y="261.53348"
     width="11.743773"
     height="60.309277"
     id="rect24"
     style="fill:#3f3d56;stroke-width:1.11275" />
  <rect
     x="579.18152"
     y="261.53348"
     width="11.743773"
     height="60.309277"
     id="rect26"
     style="fill:#3f3d56;stroke-width:1.11275" />
  <rect
     x="610.1424"
     y="261.53348"
     width="11.743773"
     height="60.309277"
     id="rect28"
     style="fill:#3f3d56;stroke-width:1.11275" />
  <rect
     x="517.25983"
     y="169.3299"
     width="11.743773"
     height="79.445877"
     id="rect30"
     style="fill:#3f3d56;stroke-width:1.11275" />
  <rect
     x="548.22064"
     y="169.3299"
     width="11.743773"
     height="79.445877"
     id="rect32"
     style="fill:#3f3d56;stroke-width:1.11275" />
  <rect
     x="579.18152"
     y="169.3299"
     width="11.743773"
     height="79.445877"
     id="rect34"
     style="fill:#3f3d56;stroke-width:1.11275" />
  <rect
     x="610.1424"
     y="169.3299"
     width="11.743773"
     height="79.445877"
     id="rect36"
     style="fill:#3f3d56;stroke-width:1.11275" />
  <rect
     x="641.10321"
     y="261.53348"
     width="11.743773"
     height="60.309277"
     id="rect38"
     style="fill:#3f3d56;stroke-width:1.11275" />
  <rect
     x="486.83276"
     y="178.60823"
     width="11.743773"
     height="70.747421"
     id="rect40"
     style="fill:#3f3d56;stroke-width:1.11275" />
  <rect
     x="641.63702"
     y="178.60823"
     width="11.743773"
     height="70.747421"
     id="rect42"
     style="fill:#3f3d56;stroke-width:1.11275" />
  <polygon
     points="624,105.5 624,165.5 440,165.5 440,105.5 532,31 "
     id="polygon44"
     transform="matrix(1.0676157,0,0,1.1597938,0,-9.6900692e-6)"
     style="fill:#3f3d56" />
  <ellipse
     cx="570.10681"
     cy="249.35565"
     id="circle46"
     style="opacity:0.3;fill:#9b8f00;stroke-width:1.11275"
     rx="165.15494"
     ry="179.41444" />
  <ellipse
     cx="570.10681"
     cy="249.35565"
     id="circle48"
     style="opacity:0.3;fill:#9b8f00;stroke-width:1.11275"
     rx="229.53737"
     ry="249.35565" />
  <path
     d="m 54.884659,803.42912 c 6.483812,26.03741 28.6923,42.16306 28.6923,42.16306 0,0 11.696167,-26.08939 5.212367,-52.12683 -6.483802,-26.03743 -28.6923,-42.16306 -28.6923,-42.16306 0,0 -11.696168,26.08939 -5.212367,52.12683 z"
     id="path50"
     inkscape:connector-curvature="0"
     style="fill:#8985a8;stroke-width:1.11275" />
  <path
     d="m 64.412157,797.83339 c 17.791645,18.81481 19.964766,47.73757 19.964766,47.73757 0,0 -26.67284,-1.58208 -44.464496,-20.39691 -17.791654,-18.81482 -19.964765,-47.73763 -19.964765,-47.73763 0,0 26.672841,1.58214 44.464495,20.39697 z"
     id="path52"
     inkscape:connector-curvature="0"
     style="fill:#3f3d56;stroke-width:1.11275" />
  <path
     d="m 338.17511,765.93731 c -9.55851,38.38474 -42.29857,62.15738 -42.29857,62.15738 0,0 -17.24265,-38.46133 -7.68414,-76.84608 9.55851,-38.38474 42.29857,-62.15739 42.29857,-62.15739 0,0 17.24265,38.46132 7.68414,76.84609 z"
     id="path54"
     inkscape:connector-curvature="0"
     style="fill:#8985a8;stroke-width:1.11275" />
  <path
     d="m 251.21932,765.93731 c 9.55852,38.38474 42.29857,62.15738 42.29857,62.15738 0,0 17.24266,-38.46133 7.68415,-76.84608 -9.55852,-38.38474 -42.29858,-62.15739 -42.29858,-62.15739 0,0 -17.24265,38.46132 -7.68414,76.84609 z"
     id="path56"
     inkscape:connector-curvature="0"
     style="fill:#8985a8;stroke-width:1.11275" />
  <path
     d="m 265.26488,757.68801 c 26.22869,27.73706 29.43233,70.37539 29.43233,70.37539 0,0 -39.32147,-2.33235 -65.55016,-30.0694 -26.22869,-27.73707 -29.43234,-70.37535 -29.43234,-70.37535 0,0 39.32147,2.33235 65.55017,30.06936 z"
     id="path58"
     inkscape:connector-curvature="0"
     style="fill:#3f3d56;stroke-width:1.11275" />
  <path
     d="m 324.12955,757.68801 c -26.22869,27.73708 -29.43234,70.37539 -29.43234,70.37539 0,0 39.32149,-2.33235 65.55017,-30.0694 26.22869,-27.73707 29.43234,-70.37535 29.43234,-70.37535 0,0 -39.32146,2.33235 -65.55017,30.06936 z"
     id="path60"
     inkscape:connector-curvature="0"
     style="fill:#3f3d56;stroke-width:1.11275" />
  <path
     d="m 970.41781,424.45313 c -8.41746,-15.45092 -25.07074,-16.171 -25.07074,-16.171 0,0 -16.22766,-2.25436 -26.63761,21.27757 -9.70289,21.9337 -23.09413,43.11111 -2.15587,48.24563 l 3.78206,-12.78781 2.34219,13.73986 a 81.925304,88.998746 0 0 0 8.95871,0.16632 c 22.42319,-0.78646 43.77787,0.23009 43.09028,-8.51101 -0.914,-11.62006 3.79025,-31.09271 -4.30902,-45.95956 z"
     id="path62"
     inkscape:connector-curvature="0"
     style="fill:#2f2e41;stroke-width:1.11275" />
  <ellipse
     cx="947.02423"
     cy="444.78238"
     id="circle64"
     style="fill:#a0616a;stroke-width:1.11275"
     rx="21.734167"
     ry="23.610699" />
  <path
     d="m 938.13292,460.16511 c 0,0 9.87916,25.04164 -3.29306,30.04998 l 13.17224,47.2214 22.39278,-1.43096 5.9275,-15.74047 -1.31722,-23.61069 -1.97585,-15.74046 c 0,0 -13.83083,3.57738 -12.5136,-22.89523 z"
     id="path66"
     inkscape:connector-curvature="0"
     style="fill:#a0616a;stroke-width:1.11275" />
  <path
     d="m 932.86402,489.49961 c 0,0 -21.73416,-2.14642 -19.75836,15.025 1.9758,17.17142 3.95167,20.74878 3.95167,20.74878 l 1.97584,25.75712 -11.85501,7.87023 h -11.19635 c 0,0 -34.24778,8.58572 -17.12389,17.88691 17.1239,9.30118 23.05138,-7.15477 23.05138,-7.15477 0,0 31.61333,0 33.58917,-5.72383 1.97583,-5.7238 -2.63445,-74.40944 -2.63445,-74.40944 z"
     id="path68"
     inkscape:connector-curvature="0"
     style="fill:#a0616a;stroke-width:1.11275" />
  <path
     d="m 975.01514,482.34485 c 0,0 20.41693,-7.87023 21.73416,9.30119 1.31722,17.17143 1.31721,18.60237 1.31721,18.60237 l 3.95169,24.32617 c 0,0 7.9033,21.46429 7.9033,27.90355 0,6.43926 5.9275,26.4726 5.9275,26.4726 0,0 7.9034,27.90354 -0.6586,27.18807 -8.5619,-0.71549 -9.8792,-30.04998 -9.8792,-30.04998 l -17.78246,-38.63568 -5.26888,-23.6107 z"
     id="path70"
     inkscape:connector-curvature="0"
     style="fill:#a0616a;stroke-width:1.11275" />
  <path
     d="m 936.15708,486.6377 h -5.26888 l -0.65862,30.04998 c 0,0 -8.56194,12.87856 1.97584,24.32618 l 2.63444,18.60236 48.07861,-2.14643 3.29305,-19.31783 c 0,0 6.58612,-15.74047 -2.63444,-30.04998 l -8.56194,-29.33448 h -4.61029 c 0,0 10.67785,42.76978 -11.855,43.64401 -18.44111,0.71546 -22.39277,-35.77381 -22.39277,-35.77381 z"
     id="path72"
     inkscape:connector-curvature="0"
     style="fill:#d0cde1;stroke-width:1.11275" />
  <path
     d="m 937.4743,556.03884 -3.95167,14.30954 c 0,0 -82.32638,251.84739 -57.29916,258.28667 25.02722,6.43928 59.93361,15.02499 63.22666,8.58571 3.29306,-6.43928 20.41695,-194.60937 20.41695,-194.60937 0,0 -2.63444,196.75581 5.92749,196.75581 8.56194,0 65.20253,1.43094 68.49553,-7.87023 3.2931,-9.30119 -29.6375,-258.2867 -48.73719,-264.01051 l -5.26889,-12.87856 z"
     id="path74"
     inkscape:connector-curvature="0"
     style="fill:#2f2e41;stroke-width:1.11275" />
  <path
     d="m 984.89429,548.88408 -52.03025,2.14643 c 0,0 -2.37465,19.31785 0,19.31785 0.65861,0 54.66472,5.00833 54.00611,-3.57738 -0.65861,-8.58571 -1.97586,-17.8869 -1.97586,-17.8869 z"
     id="path76"
     inkscape:connector-curvature="0"
     style="fill:#3f3d56;stroke-width:1.11275" />
  <ellipse
     cx="947.38519"
     cy="408.36038"
     id="circle78"
     style="fill:#2f2e41;stroke-width:1.11275"
     rx="12.041231"
     ry="13.080873" />
  <path
     d="m 934.07652,404.91806 a 12.041701,13.081383 0 0 1 10.77374,-13.00733 12.041232,13.080874 0 1 0 0,26.01466 12.041638,13.081315 0 0 1 -10.77374,-13.00733 z"
     id="path80"
     inkscape:connector-curvature="0"
     style="fill:#2f2e41;stroke-width:1.11275" />
  <polygon
     points="888.227,379.366 906.206,378.999 905.472,364.689 890.062,356.616 868.78,359.919 864.377,379.366 875.338,378.944 878.4,371.799 878.4,378.826 883.457,378.632 886.392,367.257 "
     id="polygon82"
     transform="matrix(1.0676157,0,0,1.1597938,0,-9.6900692e-6)"
     style="fill:#2f2e41" />
  <rect
     x="701.41864"
     y="751.95312"
     width="6.3132253"
     height="101.45037"
     transform="matrix(0.94998819,-0.31228583,0.26833398,0.96332594,0,0)"
     id="rect84"
     style="fill:#3f3d56;stroke-width:1.11334" />
  <path
     d="m 891.92647,481.94968 a 25.633901,27.847136 0 0 1 -49.0704,16.1307 c -4.10035,-14.72036 9.2852,-62.81326 9.2852,-62.81326 0,0 35.68485,31.9622 39.7852,46.68256 z"
     id="path86"
     inkscape:connector-curvature="0"
     style="fill:#9b8f00;stroke-width:1.11275" />
  <path
     d="m 884.45039,490.30714 a 17.450867,18.957577 0 1 1 -33.4058,10.98136 c -2.7914,-10.02122 6.32112,-42.76159 6.32112,-42.76159 0,0 24.29329,21.75902 27.08468,31.78023 z"
     id="path88"
     inkscape:connector-curvature="0"
     style="opacity:0.1;stroke-width:1.11275" />
</svg>
