<?xml version="1.0" encoding="UTF-8" standalone="no"?>
<svg
   xmlns:dc="http://purl.org/dc/elements/1.1/"
   xmlns:cc="http://creativecommons.org/ns#"
   xmlns:rdf="http://www.w3.org/1999/02/22-rdf-syntax-ns#"
   xmlns:svg="http://www.w3.org/2000/svg"
   xmlns="http://www.w3.org/2000/svg"
   xmlns:sodipodi="http://sodipodi.sourceforge.net/DTD/sodipodi-0.dtd"
   xmlns:inkscape="http://www.inkscape.org/namespaces/inkscape"
   id="b225c2ac-b0fc-4c56-8095-6e63207963c3"
   data-name="Layer 1"
   width="1200"
   height="900"
   viewBox="0 0 1200 900.00005"
   version="1.1"
   sodipodi:docname="undraw_hire_te5y.svg"
   inkscape:version="1.0.1 (3bc2e813f5, 2020-09-07)">
  <metadata
     id="metadata199">
    <rdf:RDF>
      <cc:Work
         rdf:about="">
        <dc:format>image/svg+xml</dc:format>
        <dc:type
           rdf:resource="http://purl.org/dc/dcmitype/StillImage" />
        <dc:title>hire</dc:title>
      </cc:Work>
    </rdf:RDF>
  </metadata>
  <defs
     id="defs197" />
  <sodipodi:namedview
     pagecolor="#ffffff"
     bordercolor="#666666"
     borderopacity="1"
     objecttolerance="10"
     gridtolerance="10"
     guidetolerance="10"
     inkscape:pageopacity="0"
     inkscape:pageshadow="2"
     inkscape:window-width="1920"
     inkscape:window-height="1051"
     id="namedview195"
     showgrid="false"
     fit-margin-top="0"
     fit-margin-left="0"
     fit-margin-right="0"
     fit-margin-bottom="0"
     inkscape:zoom="0.5148184"
     inkscape:cx="865.87687"
     inkscape:cy="351.99561"
     inkscape:current-layer="b225c2ac-b0fc-4c56-8095-6e63207963c3"
     inkscape:document-rotation="0"
     inkscape:window-x="0"
     inkscape:window-y="0"
     inkscape:window-maximized="1" />
  <title
     id="title2">hire</title>
  <ellipse
     cx="763.15985"
     cy="851.41101"
     rx="436.84012"
     ry="48.588966"
     id="ellipse4"
     style="fill:#3f3d56;stroke-width:1.2486" />
  <rect
     x="-1023.7957"
     y="-397.01218"
     width="474.15784"
     height="397.01218"
     transform="scale(-1)"
     id="rect6"
     style="opacity:0.3;fill:#3f3d56;stroke-width:1.2486" />
  <rect
     x="853.13251"
     y="36.375458"
     width="140.3978"
     height="189.1524"
     id="rect8"
     style="fill:#f2f2f2;stroke-width:1.2486" />
  <rect
     x="-766.53992"
     y="-47.807739"
     width="135.35356"
     height="11.432287"
     transform="scale(-1)"
     id="rect10"
     style="fill:#f2f2f2;stroke-width:1.2486" />
  <rect
     x="-901.0528"
     y="-266.06049"
     width="47.920204"
     height="11.432287"
     transform="scale(-1)"
     id="rect12"
     style="fill:#f2f2f2;stroke-width:1.2486" />
  <rect
     x="-991.84888"
     y="-286.8465"
     width="137.03497"
     height="11.432287"
     transform="scale(-1)"
     id="rect14"
     style="fill:#f2f2f2;stroke-width:1.2486" />
  <rect
     x="-798.48669"
     y="-89.379684"
     width="195.04364"
     height="11.432287"
     transform="scale(-1)"
     id="rect16"
     style="fill:#f2f2f2;stroke-width:1.2486" />
  <rect
     x="-798.48669"
     y="-121.59796"
     width="195.04364"
     height="11.432287"
     transform="scale(-1)"
     id="rect18"
     style="fill:#f2f2f2;stroke-width:1.2486" />
  <rect
     x="-798.48669"
     y="-153.81624"
     width="195.04364"
     height="11.432287"
     transform="scale(-1)"
     id="rect20"
     style="fill:#f2f2f2;stroke-width:1.2486" />
  <rect
     x="-798.48669"
     y="-186.0345"
     width="195.04364"
     height="11.432287"
     transform="scale(-1)"
     id="rect22"
     style="fill:#f2f2f2;stroke-width:1.2486" />
  <rect
     x="-798.48669"
     y="-218.25278"
     width="195.04364"
     height="11.432287"
     transform="scale(-1)"
     id="rect24"
     style="fill:#f2f2f2;stroke-width:1.2486" />
  <rect
     x="-798.48669"
     y="-250.47102"
     width="195.04364"
     height="11.432287"
     transform="scale(-1)"
     id="rect26"
     style="fill:#f2f2f2;stroke-width:1.2486" />
  <rect
     x="-798.48669"
     y="-282.68927"
     width="195.04364"
     height="11.432287"
     transform="scale(-1)"
     id="rect28"
     style="fill:#f2f2f2;stroke-width:1.2486" />
  <path
     d="m 874.21717,144.38527 a 24.835069,30.701672 0 0 1 6.79839,-4.21467 173.35134,214.30083 0 0 1 47.90042,-12.89028 c 14.24304,-1.24858 29.67994,0.2344 40.80449,11.30041 a 14.030373,17.344663 0 0 1 4.13912,5.96132 c 1.39956,3.73357 0.97544,8.07348 0.52232,12.15015 a 11.105779,13.729214 0 0 1 -0.95306,4.57405 c -1.497,3.52356 -5.18272,4.7579 -8.38394,4.33539 -3.20132,-0.42251 -6.20518,-2.09696 -9.36289,-2.87332 a 41.852238,51.73868 0 0 0 -5.91349,-0.74449 l -19.80396,-1.32539 c -12.31482,-0.82419 -24.7919,-1.63466 -36.87172,1.43783 a 36.727766,45.403692 0 0 0 -10.653,4.53812 c -2.75908,1.91498 -4.61697,4.66286 -7.17709,1.12581 -4.49773,-6.2141 -6.98732,-17.63524 -1.04559,-23.37493 z"
     id="path30"
     inkscape:connector-curvature="0"
     style="fill:#2f2e41;stroke-width:1.2486" />
  <path
     d="m 904.90541,155.21165 c 0,0 26.63715,-14.76144 36.74085,2.271 10.10367,17.03244 -5.51113,10.21947 -5.51113,10.21947 l -17.4519,6.81298 -19.28894,-4.54198 z"
     id="path32"
     inkscape:connector-curvature="0"
     style="fill:#f2f2f2;stroke-width:1.2486" />
  <path
     d="m 906.28318,144.42445 c 0,0 3.67408,21.57442 0.91852,27.25191 -2.75556,5.67748 15.61485,13.62596 15.61485,13.62596 l 17.4519,-9.08397 c 0,0 -4.5926,-35.20039 0,-42.01338 z"
     id="path34"
     inkscape:connector-curvature="0"
     style="fill:#ffb9b9;stroke-width:1.2486" />
  <path
     d="m 906.28318,144.42445 c 0,0 3.67408,21.57442 0.91852,27.25191 -2.75556,5.67748 15.61485,13.62596 15.61485,13.62596 l 17.4519,-9.08397 c 0,0 -4.5926,-35.20039 0,-42.01338 z"
     id="path36"
     inkscape:connector-curvature="0"
     style="opacity:0.1;stroke-width:1.2486" />
  <path
     d="m 948.53516,122.85001 a 27.578201,34.092793 0 0 1 -27.55565,34.06491 26.892586,33.245221 0 0 1 -4.89572,-0.54502 27.554506,34.063501 0 1 1 32.45137,-33.51989 z"
     id="path38"
     inkscape:connector-curvature="0"
     style="fill:#ffb9b9;stroke-width:1.2486" />
  <path
     d="m 965.17336,226.56715 h -87.87898 l 1.99246,-10.69443 8.62563,-46.467 9.97075,-8.32479 0.009,-0.0116 4.68278,-3.91817 2.32878,-1.94349 c 0,0 1.37865,0.77947 2.96761,1.83958 0.46232,0.32208 0.9332,0.65476 1.40401,1.00809 0.009,-0.0116 0.009,0 0.009,0 a 16.44922,20.334896 0 0 1 2.16899,1.86037 c 0.12612,0.14553 0.23543,0.27024 0.34475,0.40539 1.74864,2.1617 6.85167,13.63558 15.29239,7.76353 a 12.856351,15.89331 0 0 0 1.23581,-0.95607 61.157618,75.604426 0 0 0 6.28005,-6.1631 c 1.77398,-2.00591 2.92573,-3.55445 3.86732,-4.62496 a 6.106486,7.5489755 0 0 1 1.42916,-1.30952 2.7171231,3.3589688 0 0 1 1.28631,-0.38441 c 2.75754,0 6.43141,6.80733 6.43141,6.80733 l 0.1093,0.39494 0.009,0.0311 11.59339,43.02688 z"
     id="path40"
     inkscape:connector-curvature="0"
     style="fill:#f2f2f2;stroke-width:1.2486" />
  <path
     d="m 877.2944,226.56715 h 26.63355 a 64.819664,80.131529 0 0 0 -0.4792,-11.39071 c -0.81549,-7.59727 -2.81636,-14.91392 -4.07742,-22.41769 a 76.288548,94.309621 0 0 1 -1.60574,-19.99609 c 0.009,-0.92498 0.0252,-1.86035 0.0924,-2.79571 a 10.353897,12.799721 0 0 1 1.45442,-6.06946 c 0.63054,-1.19519 1.49645,-2.21371 2.16902,-3.35692 a 6.2308113,7.7026693 0 0 0 0.61372,-1.19522 v -0.0116 a 5.588342,6.9084343 0 0 0 0.22699,-0.63396 4.1510705,5.1316469 0 0 0 0.25221,-1.54858 c 0.15132,-3.42967 -2.36238,-6.73463 -5.07786,-8.1481 a 18.984657,23.469261 0 0 0 -11.89593,-0.59234 56.62315,69.998814 0 0 0 -11.18139,5.65379 c -1.2022,0.7275 -2.396,1.47579 -3.54778,2.30727 a 17.612428,21.772881 0 0 0 -3.75795,3.53363 c -2.85839,3.64794 -4.11104,8.7301 -5.1199,13.64599 a 23.33747,28.850306 0 0 0 -0.96681,11.64015 c 0.009,0.12472 0.0336,0.25983 0.0504,0.38455 1.00044,6.47483 5.27122,11.33875 7.54953,17.30432 2.63982,6.92172 2.46327,14.9867 1.41239,22.532 -0.0504,0.38455 -0.10929,0.76909 -0.16813,1.15365 h 7.42341 z"
     id="path42"
     inkscape:connector-curvature="0"
     style="fill:#2f2e41;stroke-width:1.2486" />
  <path
     d="m 985.7117,184.9848 a 208.14404,257.31235 0 0 0 -7.25512,41.58235 h -37.96642 q -1.48796,-5.01976 -2.96761,-10.05005 a 60.951057,75.34907 0 0 1 -2.02613,-7.73231 29.934958,37.00627 0 0 1 -0.84912,-9.31224 c 0,-0.74826 0.0252,-1.5069 0.0757,-2.25518 a 0.02561523,0.03166613 0 0 0 0,-0.0415 30.083484,37.189881 0 0 1 2.19413,-11.5051 34.713889,42.914092 0 0 1 1.93366,-4.85344 c 1.76556,-3.9494 3.90088,-7.67003 5.8009,-11.53619 a 42.828525,52.945588 0 0 0 3.08541,-7.39981 0.03090447,0.03820481 0 0 1 0.009,-0.0311 21.485246,26.560545 0 0 0 1.74018,-10.34097 c -0.0588,-4.58333 -6.3304,-12.57561 0.48753,-11.80654 9.30668,1.0393 17.30186,7.65976 24.59064,15.20507 1.94215,2.01618 3.84212,4.10518 5.70001,6.16298 2.87531,3.20112 5.91027,6.69303 6.77612,11.35945 a 9.7968976,12.111146 0 0 1 0.24381,2.26574 25.16042,31.103878 0 0 1 -1.57217,10.28912 z"
     id="path44"
     inkscape:connector-curvature="0"
     style="fill:#2f2e41;stroke-width:1.2486" />
  <path
     d="m 928.80616,172.45055 a 20.529061,25.378488 0 0 0 -4.31061,-8.59208 15.992088,19.76978 0 0 0 -6.58461,-4.12394 36.008979,44.515111 0 0 0 -9.6594,-1.71144 c -3.89001,-0.0301 -8.40052,1.25997 -10.05244,5.6139 -1.31179,3.45741 -0.29484,7.55152 1.02592,11.00371 a 8.7271675,10.788721 0 0 0 2.72303,4.5474 c 1.67754,1.40116 3.84712,1.35677 5.83576,1.82607 a 26.916663,33.274985 0 0 1 8.6252,4.83175 l 6.81336,5.09129 11.70292,8.745 c -0.30837,-0.23045 -0.19876,-10.15163 -0.5582,-11.77759 -1.15788,-5.23785 -3.76455,-10.49393 -5.56093,-15.45407 z"
     id="path46"
     inkscape:connector-curvature="0"
     style="fill:#ffb9b9;stroke-width:1.2486" />
  <path
     d="m 947.842,105.09721 a 6.9943496,8.6465725 0 0 0 -3.03359,-4.89499 16.052359,19.844288 0 0 0 -0.6405,-6.459944 c -1.66875,-6.098794 -5.62197,-5.749215 -9.35193,-8.445589 -1.61829,-1.169874 -1.51828,-2.203851 -2.36078,-4.125337 a 12.385125,15.310771 0 0 0 -4.77229,-6.019365 c -2.39301,-1.884821 -4.91905,-3.825922 -7.74997,-4.064465 -5.94919,-0.501286 -10.51051,6.416205 -16.19666,8.636337 -2.50632,0.978533 -5.19941,1.018858 -7.71897,1.943949 -2.51956,0.925089 -5.0332,3.133972 -5.40875,6.349807 -0.17334,1.484653 0.13251,3.007704 -0.0433,4.491951 -0.34955,2.950034 -2.44312,5.016034 -3.84463,7.442442 -3.09922,5.365604 -2.74474,12.945724 -0.26629,18.783704 a 21.357653,26.402812 0 0 0 1.78715,3.4573 17.203427,21.267264 0 0 0 1.88693,7.89766 c 2.47842,5.83799 6.74326,10.20047 11.19838,13.82488 a 26.432096,32.675953 0 0 1 -0.6608,-5.89525 3.289642,4.0667296 0 0 1 0.20277,-1.95328 c 0.49616,-1.28214 1.80716,-1.62314 2.80674,-2.32533 2.07038,-1.45444 2.88228,-4.6732 2.94214,-7.6161 0.0599,-2.9429 -0.44462,-5.89066 -0.19521,-8.81819 a 3.8976696,4.818387 0 0 1 1.33429,-3.54441 4.6087195,5.6974029 0 0 1 2.51556,-0.74143 c 4.242,-0.21395 8.67421,-0.31028 12.4159,-2.79017 a 18.40029,22.746853 0 0 1 3.86446,-2.41666 c 3.17986,-1.02509 6.42982,1.73013 8.26243,5.10225 1.83263,3.37211 2.74632,7.38494 4.43715,10.86844 1.69083,3.48348 4.61189,6.58995 7.88109,6.17723 a 1.3082744,1.6173183 0 0 0 0.97632,-0.53669 1.4634593,1.8091614 0 0 0 0.17983,-1.02829 l 0.18267,-15.4484 a 18.888495,23.350383 0 0 0 -0.6301,-7.85206 z"
     id="path48"
     inkscape:connector-curvature="0"
     style="fill:#2f2e41;stroke-width:1.2486" />
  <path
     d="m 875.16739,208.26513 q 0.8953,9.1198 1.08455,18.30202 h -23.11938 v -24.01821 c 0.11771,-0.58207 0.24378,-1.15364 0.3951,-1.72527 1.44604,-5.50834 4.48102,-10.12277 7.11234,-14.91393 0.12623,-0.23914 0.26067,-0.47816 0.38679,-0.71717 a 31.563664,39.019712 0 0 0 2.87525,-6.41235 c 0.37828,-1.10172 0.98356,-6.43332 1.62251,-6.89055 2.74071,-1.96429 4.96859,6.43317 5.34687,8.30397 1.3451,6.66195 2.5138,13.38617 3.39649,20.17284 q 0.51704,3.94415 0.89948,7.89865 z"
     id="path50"
     inkscape:connector-curvature="0"
     style="fill:#2f2e41;stroke-width:1.2486" />
  <path
     d="m 992.0002,226.56715 h -53.07365 c -0.45401,-1.31991 -0.8996,-2.63984 -1.37045,-3.94936 a 93.400418,115.4637 0 0 0 -12.72819,-25.80576 5.5229843,6.8276376 0 0 1 -1.57217,-3.85588 2.6399967,3.2636235 0 0 1 0.34481,-1.73556 c 0.80705,-1.86039 2.94246,-2.9517 4.67427,-3.83495 a 16.107048,19.911895 0 0 0 4.85914,-3.78319 10.419659,12.881018 0 0 0 2.80804,-5.12367 9.0947645,11.243153 0 0 0 0.35303,-1.76676 c 0.24384,0.39481 0.4961,0.80027 0.73993,1.1951 0.59687,0.97699 1.20215,1.94355 1.81586,2.9101 5.88494,9.34326 12.34997,18.55144 20.47967,24.09087 a 34.45521,42.594307 0 0 0 6.69204,3.52339 1.7561647,2.1710104 0 0 0 1.41225,0 1.7091791,2.1129257 0 0 0 0.6137,-1.39275 c 0.7231,-3.74145 0.97525,-7.59733 1.50487,-11.39063 a 52.483086,64.880774 0 0 1 5.54038,-19.72586 c 1.50477,-3.46093 6.39761,-16.10914 9.49986,-8.13781 q 1.3367,3.44519 2.69037,6.91138 c 0.56318,1.46543 1.13479,2.92035 1.7065,4.38591 a 22.064256,27.276331 0 0 1 2.76592,15.27766 q 0.12618,16.1194 0.24382,32.20777 z"
     id="path52"
     inkscape:connector-curvature="0"
     style="fill:#2f2e41;stroke-width:1.2486" />
  <path
     d="m 877.2944,226.56715 h 4.59867 l -2.6062,-10.69439 -3.75794,-15.41278 a 40.6694,50.276428 0 0 1 -0.3615,7.80513 42.039394,51.970046 0 0 1 -3.66548,15.42319 c -0.3615,0.94576 -0.74823,1.9019 -1.05929,2.87885 z"
     id="path54"
     inkscape:connector-curvature="0"
     style="opacity:0.1;stroke-width:1.2486" />
  <path
     d="m 970.96608,193.70085 c -0.64755,2.15275 -0.0597,4.53353 0.43956,6.74588 a 54.981665,67.969574 0 0 1 2.00387,19.72237 0.58067171,0.71783945 0 0 1 -0.67911,0.86042 c -2.12009,0.16054 -4.54731,0.17752 -5.98573,-1.75459 z"
     id="path56"
     inkscape:connector-curvature="0"
     style="opacity:0.1;stroke-width:1.2486" />
  <rect
     y="4.0863147"
     width="474.15784"
     height="397.01218"
     id="rect58"
     x="0"
     style="opacity:0.3;fill:#3f3d56;stroke-width:1.2486" />
  <rect
     x="30.265396"
     y="40.461784"
     width="140.3978"
     height="189.1524"
     id="rect60"
     style="fill:#f2f2f2;stroke-width:1.2486" />
  <rect
     x="257.25586"
     y="40.461784"
     width="135.35356"
     height="11.432287"
     id="rect62"
     style="fill:#f2f2f2;stroke-width:1.2486" />
  <rect
     x="31.946802"
     y="258.71457"
     width="47.920204"
     height="11.432287"
     id="rect64"
     style="fill:#f2f2f2;stroke-width:1.2486" />
  <rect
     x="31.946802"
     y="279.50055"
     width="137.03497"
     height="11.432287"
     id="rect66"
     style="fill:#f2f2f2;stroke-width:1.2486" />
  <rect
     x="225.30904"
     y="82.033745"
     width="195.04364"
     height="11.432287"
     id="rect68"
     style="fill:#f2f2f2;stroke-width:1.2486" />
  <rect
     x="225.30904"
     y="114.25201"
     width="195.04364"
     height="11.432287"
     id="rect70"
     style="fill:#f2f2f2;stroke-width:1.2486" />
  <rect
     x="225.30904"
     y="146.47029"
     width="195.04364"
     height="11.432287"
     id="rect72"
     style="fill:#f2f2f2;stroke-width:1.2486" />
  <rect
     x="225.30904"
     y="178.68857"
     width="195.04364"
     height="11.432287"
     id="rect74"
     style="fill:#f2f2f2;stroke-width:1.2486" />
  <rect
     x="225.30904"
     y="210.90683"
     width="195.04364"
     height="11.432287"
     id="rect76"
     style="fill:#f2f2f2;stroke-width:1.2486" />
  <rect
     x="225.30904"
     y="243.12509"
     width="195.04364"
     height="11.432287"
     id="rect78"
     style="fill:#f2f2f2;stroke-width:1.2486" />
  <rect
     x="225.30904"
     y="275.34332"
     width="195.04364"
     height="11.432287"
     id="rect80"
     style="fill:#f2f2f2;stroke-width:1.2486" />
  <path
     d="m 166.84641,230.6535 h -18.25173 q -2.10596,-6.99967 -3.74116,-14.17607 a 22.908244,28.319688 0 0 0 -5.9522,-14.99712 22.501658,27.817057 0 0 1 -2.56415,-4.30258 16.346838,20.208329 0 0 1 -1.61413,-12.25337 25.745313,31.826936 0 0 1 0.47079,-3.47137 c 0.79868,-4.4377 2.13538,-8.69882 3.25353,-13.02232 a 3.9954589,4.9392763 0 0 1 3.26194,-3.33623 6.4703548,7.9987984 0 0 1 3.56458,0.50924 4.4271894,5.4729912 0 0 1 0.71463,0.45736 c 1.99246,1.48626 3.02652,4.52093 3.8588,7.29589 q 5.71261,18.95686 11.41681,37.91363 1.10972,3.67907 2.21947,7.37898 c 1.09291,3.61674 2.1774,7.23348 3.10221,10.92305 0.0924,0.36388 0.1765,0.71705 0.26061,1.08091 z"
     id="path82"
     inkscape:connector-curvature="0"
     style="fill:#d0cde1;stroke-width:1.2486" />
  <path
     d="m 90.864679,64.31451 c -4.537972,1.894553 -8.64921,6.325782 -9.578466,12.134495 -0.430765,2.692605 -0.166663,5.491709 -0.529161,8.199642 -0.84071,6.280258 -4.82851,11.076541 -8.506591,15.531603 -3.678082,4.45505 -7.476368,9.63172 -7.744805,15.9887 -0.293952,6.96109 3.789784,13.4825 3.083125,20.39812 -0.82099,8.03451 -7.685545,13.24076 -9.382517,21.0627 -1.13309,5.22309 0.2554,10.84935 2.539826,15.46101 4.35323,8.78798 11.794212,14.75412 19.718302,17.95246 7.924088,3.19835 16.363425,3.87119 24.698708,3.97917 10.14918,0.13148 21.16852,-0.94568 28.79411,-9.22635 a 23.067574,28.516655 0 0 0 7.65799,-18.56482 c 0.72442,-9.59189 -2.51399,-19.50288 -0.28022,-28.73224 1.40582,-5.80847 4.93128,-11.11319 4.40515,-17.14106 -0.51442,-5.89376 -4.67834,-10.07137 -7.53495,-14.83272 -2.66709,-4.44553 -4.28554,-9.695467 -5.87169,-14.871284 l -5.42713,-17.709358 c -1.06683,-3.481357 -2.23843,-7.142813 -4.61601,-9.427758 -4.45106,-4.277536 -11.60819,-3.4371 -16.81287,-2.554863 -4.82836,0.818488 -9.969453,0.414006 -14.612801,2.352553 z"
     id="path84"
     inkscape:connector-curvature="0"
     style="fill:#2f2e41;stroke-width:1.2486" />
  <path
     d="m 95.062936,122.67711 c 0,0 0.531174,19.70075 -1.062408,21.67078 -1.593579,1.97007 6.374512,15.10388 6.374512,15.10388 l 14.3426,-0.65664 7.4369,-7.22359 -6.37449,-10.50706 c 0,0 -2.65604,-17.07396 -0.53117,-21.01403 2.12486,-3.94008 -20.185944,2.62666 -20.185944,2.62666 z"
     id="path86"
     inkscape:connector-curvature="0"
     style="fill:#a0616a;stroke-width:1.2486" />
  <path
     d="m 95.062936,122.67711 c 0,0 0.531174,19.70075 -1.062408,21.67078 -1.593579,1.97007 6.374512,15.10388 6.374512,15.10388 l 14.3426,-0.65664 7.4369,-7.22359 -6.37449,-10.50706 c 0,0 -2.65604,-17.07396 -0.53117,-21.01403 2.12486,-3.94008 -20.185944,2.62666 -20.185944,2.62666 z"
     id="path88"
     inkscape:connector-curvature="0"
     style="opacity:0.1;stroke-width:1.2486" />
  <ellipse
     cx="103.82787"
     cy="106.58818"
     id="circle90"
     style="fill:#a0616a;stroke-width:1.2486"
     rx="19.123468"
     ry="23.640862" />
  <path
     d="m 113.62975,230.6535 h 15.50262 c 0.58009,-1.29912 1.12654,-2.65019 1.75708,-3.8766 v -0.0116 a 8.5824263,10.609789 0 0 1 2.82477,-3.65832 11.130383,13.75963 0 0 0 2.09334,-1.54854 5.4000627,6.6756792 0 0 0 1.27789,-2.95162 36.99927,45.739331 0 0 0 1.74866,-12.74179 c 0.0252,-1.45502 0,-2.93084 0.0673,-4.38585 a 14.915294,18.438622 0 0 1 0.35308,-3.37773 21.516645,26.599361 0 0 1 2.29514,-6.42285 q 3.15264,-7.09323 6.3221,-14.18643 a 8.0209351,9.9156608 0 0 0 0.42876,-4.15722 8.2892829,10.247398 0 0 0 -1.36194,-5.33159 c -0.29422,-0.65475 -0.61372,-1.30951 -0.95004,-1.94348 a 34.91689,43.165046 0 0 0 -4.50619,-7.10882 36.455196,45.066734 0 0 0 -12.82916,-10.73596 7.4453055,9.2040544 0 0 1 -1.72345,-1.03929 7.1532066,8.8429552 0 0 1 -1.58052,-2.33844 c -1.6814,-3.12828 -3.73273,-6.6515 -6.76768,-6.454 a 4.1608741,5.1437663 0 0 0 -3.2115,-0.2702 4.390861,5.4280814 0 0 0 -0.47079,0.18707 29.877732,36.935526 0 0 0 -3.37119,2.17213 15.649298,19.346015 0 0 1 -9.07963,2.03703 3.0753096,3.801767 0 0 1 -1.05928,-0.33258 5.4279576,6.7101636 0 0 1 -0.97522,-0.97694 5.6055348,6.9296885 0 0 0 -5.573874,-1.10165 5.0612814,6.2568701 0 0 0 -2.219459,1.93309 c -0.554866,0.86262 -0.941598,1.9019 -1.55533,2.71257 -1.58893,2.09938 -4.211937,2.18253 -6.532287,2.17214 a 60.36997,74.630717 0 0 0 -14.350878,1.63172 27.280441,33.724696 0 0 0 -11.299077,6.75545 l -0.0084,0.0116 c -0.453978,0.47808 -0.874332,0.96654 -1.294687,1.48619 a 9.5967042,11.863662 0 0 0 -2.236273,3.94933 c -0.638978,2.03702 -0.554866,4.33389 -1.134954,6.40207 -0.638977,2.31765 -2.059729,4.2092 -2.631406,6.53722 -0.437165,1.76679 -0.378321,3.72068 -1.101319,5.32117 0.03362,0.0311 0.05885,0.0624 0.09247,0.0935 3.060127,3.32577 5.674756,7.69081 8.743327,10.9854 a 17.645354,21.813584 0 0 1 4.438925,6.13192 8.1937508,10.129299 0 0 1 0.546466,1.66288 20.684436,25.570566 0 0 1 0.453976,6.04872 c 0.386722,9.71746 4.649147,18.53072 9.415904,26.26304 0.09248,0.15588 0.184955,0.31179 0.285833,0.45728 z"
     id="path92"
     inkscape:connector-curvature="0"
     style="fill:#d0cde1;stroke-width:1.2486" />
  <path
     d="m 63.750708,196.22152 q -1.084576,9.30687 -2.185874,18.60349 a 65.563864,81.051526 0 0 1 -1.496419,9.85252 c -0.437188,2.00576 -1.000442,3.97019 -1.395608,5.97597 H 36.780861 a 20.97366,25.928111 0 0 1 0.210177,-3.35692 44.894465,55.499549 0 0 1 2.732295,-11.6505 q 3.821049,-12.75231 7.633619,-25.52524 c 1.084486,-3.62715 2.017661,-7.42061 3.211493,-11.01667 0.210177,-0.66505 0.437132,-1.33021 0.680977,-1.97458 1.269419,-3.45053 4.791979,-2.03696 7.398207,-1.51735 a 7.0252877,8.6848189 0 0 1 2.068095,0.72744 5.3363447,6.5969096 0 0 1 1.942087,2.26562 c 2.471684,4.52106 1.933607,10.49702 1.294663,15.90133 q -0.100911,0.85752 -0.201766,1.71489 z"
     id="path94"
     inkscape:connector-curvature="0"
     style="fill:#d0cde1;stroke-width:1.2486" />
  <path
     d="m 130.88942,226.77694 c 0.0336,0.14538 0.39511,1.69392 0.99204,3.87656 h -18.25174 c 9.04599,-1.92275 17.2597,-3.88697 17.2597,-3.88697 z"
     id="path96"
     inkscape:connector-curvature="0"
     style="fill:#2f2e41;stroke-width:1.2486" />
  <ellipse
     cx="105.42149"
     cy="92.797661"
     rx="20.717093"
     ry="13.790505"
     id="ellipse98"
     style="fill:#2f2e41;stroke-width:1.2486" />
  <rect
     x="303.75449"
     y="150.2401"
     width="474.15784"
     height="397.01218"
     id="rect100"
     style="fill:#3f3d56;stroke-width:1.2486" />
  <ellipse
     cx="708.97455"
     cy="512.95538"
     rx="55.486557"
     ry="7.2750859"
     id="ellipse102"
     style="opacity:0.1;stroke-width:1.2486" />
  <rect
     x="334.0199"
     y="186.61555"
     width="140.3978"
     height="189.1524"
     id="rect104"
     style="fill:#f2f2f2;stroke-width:1.2486" />
  <path
     d="m 379.22934,273.46163 a 2.0608186,2.5476304 0 0 0 2.41564,-1.23389 c 1.94186,-3.78227 -1.63334,-8.6593 -0.8592,-13.03565 0.62021,-3.50609 3.84299,-5.58707 4.50192,-9.08235 0.64027,-3.39625 -1.33261,-7.22442 8.5e-4,-10.29743 1.04471,-2.40756 3.65427,-3.04112 5.8378,-2.61936 2.18353,0.42178 4.2561,1.60839 6.46199,1.77466 2.93944,0.22153 5.74142,-1.37809 8.61569,-2.17067 2.87426,-0.79259 6.38016,-0.48227 8.07104,2.49837 2.1711,3.82719 -0.0313,9.15642 0.72472,13.73658 0.60028,3.63692 3.06319,6.64833 3.1161,10.35972 0.0188,1.3191 -2.78629,0.25644 -2.63718,1.56282 0.14909,1.30635 -1.17671,0.15611 -0.1169,9.1e-4 a 2.099101,2.594956 0 0 0 1.59491,-2.34514 c 0.12601,-1.08807 1.78007,-1.45072 1.76098,-2.54971 -0.0447,-2.57546 3.72183,-0.83893 4.34212,-3.29821 a 20.173423,24.93884 0 0 0 -0.82442,-17.39751 28.185599,34.843672 0 0 1 -2.40266,-7.0753 c -0.55333,-3.41483 0.31731,-7.0807 -0.5953,-10.37556 -1.22988,-4.44032 -5.29957,-6.70388 -9.07789,-7.16358 -3.7783,-0.45967 -7.61785,0.36317 -11.37459,-0.31475 -3.36542,-0.6073 -6.62351,-2.41038 -10.018,-2.14914 -4.07306,0.31347 -7.61748,3.55778 -10.4409,7.20045 -2.8234,3.6427 -5.21849,7.83239 -8.42506,10.95301 a 16.523741,20.42702 0 0 0 -2.70144,2.87502 c -1.63321,2.46042 -1.79887,5.96541 -1.34452,9.09824 0.45433,3.13283 1.44293,6.12119 1.86035,9.26187 0.39228,2.95144 0.27126,5.9669 0.44021,8.95067 a 12.726433,15.732703 0 0 0 2.12356,8.44893 6.4502309,7.9739207 0 0 0 5.0192,3.24165 c 0.67965,0.0194 1.25367,-0.73561 1.93964,-0.53873 0.85748,0.24611 1.23029,1.25273 1.99134,1.68408 z"
     id="path106"
     inkscape:connector-curvature="0"
     style="fill:#2f2e41;stroke-width:1.2486" />
  <path
     d="m 348.3539,376.80728 c 0.61376,-10.40341 1.07614,-18.17734 1.07614,-18.17734 l 3.9681,-12.92883 12.73671,31.10621 z"
     id="path108"
     inkscape:connector-curvature="0"
     style="fill:#575a89;stroke-width:1.2486" />
  <path
     d="m 348.3539,376.80728 c 0.61376,-10.40341 1.07614,-18.17734 1.07614,-18.17734 l 3.9681,-12.92883 12.73671,31.10621 z"
     id="path110"
     inkscape:connector-curvature="0"
     style="opacity:0.1;stroke-width:1.2486" />
  <path
     d="m 377.87027,274.51984 c 0,0 11.87635,37.37185 5.03845,44.49033 -6.83789,7.11845 38.14827,-12.01239 38.14827,-12.01239 l -1.07967,-4.89393 c 0,0 -14.75546,-7.11845 -7.55768,-27.58401 7.19779,-20.46555 -34.54937,0 -34.54937,0 z"
     id="path112"
     inkscape:connector-curvature="0"
     style="fill:#a0616a;stroke-width:1.2486" />
  <path
     d="m 377.87027,274.51984 c 0,0 11.87635,37.37185 5.03845,44.49033 -6.83789,7.11845 38.14827,-12.01239 38.14827,-12.01239 l -1.07967,-4.89393 c 0,0 -14.75546,-7.11845 -7.55768,-27.58401 7.19779,-20.46555 -34.54937,0 -34.54937,0 z"
     id="path114"
     inkscape:connector-curvature="0"
     style="opacity:0.1;stroke-width:1.2486" />
  <ellipse
     cx="394.78506"
     cy="258.50333"
     id="circle116"
     style="fill:#a0616a;stroke-width:1.2486"
     rx="25.192245"
     ry="31.143223" />
  <path
     d="m 455.96419,325.68416 c 0,0 -0.10088,2.47352 -0.27744,6.79699 -0.3615,8.80293 -1.00881,25.29656 -1.65616,44.32613 h -97.65633 a 48.418653,59.85623 0 0 1 -6.21281,-13.74998 12.00257,14.837848 0 0 1 -0.73141,-4.42736 c -0.53806,-11.79608 8.01189,-28.25854 14.04815,-29.82787 6.83494,-1.78765 19.79024,-18.68665 19.79024,-18.68665 a 3.0824742,3.8106241 0 0 0 1.64775,3.07635 v 0.0116 a 6.6976576,8.2797952 0 0 0 3.38804,0.91457 c 4.22036,0 22.78306,-10.59046 28.74372,-14.05134 1.16859,-0.6755 1.84955,-1.08084 1.84955,-1.08084 a 139.69916,172.69925 0 0 0 21.23618,8.9068 22.585691,27.92094 0 0 1 15.83052,17.79276 z"
     id="path118"
     inkscape:connector-curvature="0"
     style="fill:#575a89;stroke-width:1.2486" />
  <path
     d="m 374.91067,270.34732 a 2.0608186,2.5476304 0 0 0 2.41564,-1.23391 c 1.94185,-3.78227 -1.63334,-8.6593 -0.85919,-13.03564 0.62019,-3.50609 3.84298,-5.58706 4.50191,-9.08235 0.64027,-3.39625 -1.33261,-7.2245 8.5e-4,-10.29743 1.04472,-2.40758 3.65428,-3.04113 5.83781,-2.61935 2.18352,0.42177 4.2561,1.60838 6.46198,1.77465 2.93943,0.22154 5.74142,-1.37809 8.61568,-2.17066 2.87426,-0.79258 6.38017,-0.48228 8.07105,2.49836 2.17111,3.82719 -0.0313,9.15641 0.72472,13.73657 0.60029,3.63693 7.43976,6.18966 8.06004,3.73039 a 20.17339,24.938799 0 0 0 -0.82443,-17.3975 28.186756,34.845103 0 0 1 -2.40266,-7.0753 c -0.55333,-3.41483 0.3173,-7.0807 -0.59531,-10.37558 -1.22987,-4.4403 -5.29958,-6.70389 -9.07788,-7.16356 -3.77831,-0.45969 -7.61786,0.36318 -11.3746,-0.31474 -3.36541,-0.6073 -6.6235,-2.41039 -10.01801,-2.14914 -4.07305,0.31347 -7.61746,3.55775 -10.44088,7.20045 -2.82341,3.6427 -5.21849,7.83237 -8.42506,10.953 a 16.524068,20.427425 0 0 0 -2.70143,2.875 c -1.63321,2.46043 -1.79888,5.96543 -1.34454,9.09827 0.45434,3.13285 1.44294,6.12118 1.86035,9.26185 0.39228,2.95151 0.27127,5.96691 0.44021,8.95067 a 12.726389,15.732649 0 0 0 2.12357,8.44893 6.4502084,7.9738929 0 0 0 5.01918,3.24165 c 0.67964,0.0194 1.25368,-0.73559 1.93964,-0.53871 0.85749,0.2461 1.23032,1.25272 1.99136,1.68408 z"
     id="path120"
     inkscape:connector-curvature="0"
     style="fill:#2f2e41;stroke-width:1.2486" />
  <path
     d="m 468.4487,376.80728 h -28.49993 c -2.16904,-19.6636 -3.95975,-40.2209 -3.95975,-40.2209 l 5.75887,-3.11789 11.7026,-7.78433 c 0,0 0.85753,2.51507 2.23625,6.79699 2.94248,9.15621 8.28098,26.38781 12.76196,44.32613 z"
     id="path122"
     inkscape:connector-curvature="0"
     style="opacity:0.1;stroke-width:1.2486" />
  <path
     d="m 470.9624,376.80728 h -32.16541 c -4.76678,-21.51351 -9.46634,-44.89773 -9.46634,-44.89773 l 12.24067,-11.12053 14.39287,4.89514 c 0,0 8.42389,24.78724 14.99821,51.12312 z"
     id="path124"
     inkscape:connector-curvature="0"
     style="fill:#575a89;stroke-width:1.2486" />
  <rect
     x="561.01038"
     y="186.61555"
     width="135.35356"
     height="11.432287"
     id="rect126"
     style="fill:#9b8f00;stroke-width:1.2486" />
  <rect
     x="335.70129"
     y="404.86835"
     width="47.920204"
     height="11.432287"
     id="rect128"
     style="fill:#9b8f00;stroke-width:1.2486" />
  <rect
     x="335.70129"
     y="425.65433"
     width="137.03497"
     height="11.432287"
     id="rect130"
     style="fill:#9b8f00;stroke-width:1.2486" />
  <rect
     x="529.06354"
     y="228.18752"
     width="195.04364"
     height="11.432287"
     id="rect132"
     style="fill:#f2f2f2;stroke-width:1.2486" />
  <rect
     x="529.06354"
     y="260.40579"
     width="195.04364"
     height="11.432287"
     id="rect134"
     style="fill:#f2f2f2;stroke-width:1.2486" />
  <rect
     x="529.06354"
     y="292.62405"
     width="195.04364"
     height="11.432287"
     id="rect136"
     style="fill:#f2f2f2;stroke-width:1.2486" />
  <rect
     x="529.06354"
     y="324.84232"
     width="195.04364"
     height="11.432287"
     id="rect138"
     style="fill:#f2f2f2;stroke-width:1.2486" />
  <rect
     x="529.06354"
     y="357.06055"
     width="195.04364"
     height="11.432287"
     id="rect140"
     style="fill:#f2f2f2;stroke-width:1.2486" />
  <rect
     x="529.06354"
     y="389.27884"
     width="195.04364"
     height="11.432287"
     id="rect142"
     style="fill:#f2f2f2;stroke-width:1.2486" />
  <rect
     x="529.06354"
     y="421.4971"
     width="195.04364"
     height="11.432287"
     id="rect144"
     style="fill:#f2f2f2;stroke-width:1.2486" />
  <path
     d="m 761.70153,423.04167 -53.31722,65.91205 -22.40947,-27.70337 a 7.660424,9.4699887 0 0 0 -10.83348,-8e-5 l -0.80504,-1.48853 c -2.99162,3.6983 -2.18659,11.18291 0.80503,14.88118 l 29.07602,35.94437 a 5.8450108,7.2257341 0 0 0 8.26393,0.003 l 60.04819,-74.15553 c 2.99352,-3.6968 4.07943,-10.47578 1.08743,-14.17441 v 0 c -2.99085,-3.69724 -8.92459,-2.91564 -11.91539,0.78168 z"
     id="path146"
     inkscape:connector-curvature="0"
     style="fill:#57b894;stroke-width:1.2486" />
  <path
     d="m 761.70153,423.04167 -53.31722,65.91205 -22.40947,-27.70337 a 7.660424,9.4699887 0 0 0 -10.83348,-8e-5 l -0.80504,-1.48853 c -2.99162,3.6983 -2.18659,11.18291 0.80503,14.88118 l 29.07602,35.94437 a 5.8450108,7.2257341 0 0 0 8.26393,0.003 l 60.04819,-74.15553 c 2.99352,-3.6968 4.07943,-10.47578 1.08743,-14.17441 v 0 c -2.99085,-3.69724 -8.92459,-2.91564 -11.91539,0.78168 z"
     id="path148"
     inkscape:connector-curvature="0"
     style="opacity:0.1;stroke-width:1.2486" />
  <path
     d="m 761.70153,420.11945 -53.31722,65.91204 -22.40947,-27.70331 a 7.660424,9.4699887 0 0 0 -10.83348,0 v 0 a 7.6604353,9.4700027 0 0 0 0,13.39263 l 29.07603,35.94436 a 5.8449995,7.2257201 0 0 0 8.26393,0.003 l 60.04819,-74.15552 a 7.6585149,9.4676287 0 0 0 0.003,-13.39285 v 0 a 7.6585149,9.4676287 0 0 0 -10.83074,-2e-5 z"
     id="path150"
     inkscape:connector-curvature="0"
     style="fill:#57b894;stroke-width:1.2486" />
  <path
     d="m 1153.9577,801.88311 c 0,74.31816 -83.7961,51.33089 -186.39608,51.33089 -102.59989,0 -185.15112,22.98727 -185.15112,-51.33089 0,-74.31815 83.78468,-90.48175 186.38459,-90.48175 102.59991,0 185.16261,16.16359 185.16261,90.48175 z"
     id="path152"
     inkscape:connector-curvature="0"
     style="opacity:0.1;stroke-width:1.2486" />
  <path
     d="m 1153.9577,788.00056 c 0,74.31814 -83.7961,51.33086 -186.39608,51.33086 -102.59989,0 -185.15112,22.98728 -185.15112,-51.33086 0,-74.31815 83.78468,-90.48175 186.38459,-90.48175 102.59991,0 185.16261,16.16359 185.16261,90.48175 z"
     id="path154"
     inkscape:connector-curvature="0"
     style="fill:#3f3d56;stroke-width:1.2486" />
  <path
     d="m 803.66706,555.17676 -3.79681,5.4503 c 0,0 -46.16767,5.35898 -44.29399,14.62402 1.87369,9.26505 55.58546,-12.35343 55.58546,-12.35343 z"
     id="path156"
     inkscape:connector-curvature="0"
     style="fill:#ffc1c7;stroke-width:1.2486" />
  <path
     d="m 887.35751,550.54422 c 0,0 -49.33989,21.61851 -76.19579,12.35343 l 12.49112,30.88361 c 0,0 63.70467,-2.31629 74.94671,-16.21389 11.24205,-13.89762 -11.24204,-27.02315 -11.24204,-27.02315 z"
     id="path158"
     inkscape:connector-curvature="0"
     style="fill:#9b8f00;stroke-width:1.2486" />
  <path
     d="m 887.35751,550.54422 c 0,0 -49.33989,21.61851 -76.19579,12.35343 l 12.49112,30.88361 c 0,0 63.70467,-2.31629 74.94671,-16.21389 11.24205,-13.89762 -11.24204,-27.02315 -11.24204,-27.02315 z"
     id="path160"
     inkscape:connector-curvature="0"
     style="opacity:0.1;stroke-width:1.2486" />
  <ellipse
     cx="853.94373"
     cy="344.01019"
     id="circle162"
     style="fill:#ffc1c7;stroke-width:1.2486"
     rx="33.101452"
     ry="40.920761" />
  <path
     d="m 882.16894,382.42737 a 25.820385,31.919742 0 0 0 4.28851,7.34855 54.143773,66.933752 0 0 0 15.95588,14.76011 543.69571,672.12888 0 0 1 -56.85023,10.45057 c 2.01529,-8.77247 -0.63741,-18.15543 -4.2022,-26.13936 -3.5648,-7.98391 -8.10906,-15.42531 -10.34014,-24.11761 l 22.37363,0.74348 c 4.05946,0.13488 8.13211,0.28523 12.19085,0.0395 3.03353,-0.18364 8.08735,-2.43025 10.91884,-1.60277 5.98615,1.74933 3.05169,11.95399 5.66486,18.51747 z"
     id="path164"
     inkscape:connector-curvature="0"
     style="fill:#ffc1c7;stroke-width:1.2486" />
  <path
     d="m 957.30775,574.47901 18.73668,27.79523 c 0,0 31.22777,90.3345 -36.84875,99.59958 -68.07654,9.26509 -118.66554,-6.9488 -118.66554,-6.9488 0,0 -27.4805,-16.21388 -28.105,-3.86047 -0.62451,12.35344 -3.12278,47.0975 -18.11213,81.06945 l -13.11567,37.06031 c 0,0 -6.87011,8.49299 -4.99643,20.07434 1.87366,11.58134 -41.84524,15.44179 -41.22068,0 0,0 6.24555,-13.12554 6.24555,-20.84643 0,-7.7209 9.9929,-26.25105 9.9929,-26.25105 l 18.1121,-111.18094 c 0,0 -1.24911,-57.13464 41.22068,-46.32539 42.46979,10.80925 103.0517,-2.31626 103.0517,-2.31626 l 13.74021,-59.45093 z"
     id="path166"
     inkscape:connector-curvature="0"
     style="fill:#2f2e41;stroke-width:1.2486" />
  <path
     d="m 957.30775,574.47901 18.73668,27.79523 c 0,0 31.22777,90.3345 -36.84875,99.59958 -68.07654,9.26509 -118.66554,-6.9488 -118.66554,-6.9488 0,0 -27.4805,-16.21388 -28.105,-3.86047 -0.62451,12.35344 -3.12278,47.0975 -18.11213,81.06945 l -13.11567,37.06031 c 0,0 -6.87011,8.49299 -4.99643,20.07434 1.87366,11.58134 -41.84524,15.44179 -41.22068,0 0,0 6.24555,-13.12554 6.24555,-20.84643 0,-7.7209 9.9929,-26.25105 9.9929,-26.25105 l 18.1121,-111.18094 c 0,0 -1.24911,-57.13464 41.22068,-46.32539 42.46979,10.80925 103.0517,-2.31626 103.0517,-2.31626 l 13.74021,-59.45093 z"
     id="path168"
     inkscape:connector-curvature="0"
     style="opacity:0.1;stroke-width:1.2486" />
  <path
     d="m 887.04525,572.44543 c 0,0 57.14683,-26.53373 88.99918,29.82881 0,0 8.11927,87.24614 -24.35763,91.1066 -32.47694,3.86045 -74.94676,3.08835 -84.93962,-10.03716 -9.99286,-13.12555 -73.07302,-50.18585 -73.07302,-50.18585 0,0 -31.40021,-19.79981 -37.55955,5.92793 -6.15933,25.72774 -6.78393,31.90447 -6.78393,31.90447 0,0 -32.4769,29.33941 -45.59257,34.74404 0,0 -8.74378,15.44181 -13.74023,15.44181 -4.99645,0 -35.59966,8.49298 -32.47689,-20.07434 l 50.58901,-57.13465 50.58901,-60.9951 c 0,0 14.36479,-26.25104 51.21361,-12.35344 a 761.89122,941.8671 0 0 0 74.32212,22.39061 z"
     id="path170"
     inkscape:connector-curvature="0"
     style="fill:#2f2e41;stroke-width:1.2486" />
  <path
     d="m 754.32715,827.72446 c 0,0 11.86655,37.06031 1.87367,41.69287 -9.99288,4.63253 -31.22779,1.54418 -31.22779,1.54418 0,0 -24.98223,-3.86045 -31.22778,-3.08837 -6.24556,0.77208 -31.85233,-5.40462 -28.105,-17.75806 3.74733,-12.35344 23.10856,-9.26509 23.10856,-9.26509 l 17.48755,-10.03715 c 0,0 1.87368,-7.72091 6.24556,-4.63261 4.37188,3.08827 16.863,14.66976 41.84523,1.54423 z"
     id="path172"
     inkscape:connector-curvature="0"
     style="fill:#cbceda;stroke-width:1.2486" />
  <path
     d="m 689.37336,718.08771 c 0,0 13.11567,36.28823 -8.11922,33.19985 -21.23489,-3.08836 -37.47335,-8.49296 -43.71891,-9.26506 -6.00767,-0.7427 -22.99521,-7.91495 -20.38936,-22.20396 a 10.280757,12.709303 0 0 0 0.16938,-2.80452 c 0,-1.91817 2.10784,-5.68212 18.97088,-5.10303 0,0 12.49111,0 17.48755,-10.80925 0,0 18.73668,29.33942 35.59968,16.98597 z"
     id="path174"
     inkscape:connector-curvature="0"
     style="fill:#cbceda;stroke-width:1.2486" />
  <path
     d="m 831.14751,409.25178 c 0,0 44.96801,-34.74404 82.44134,0 37.47335,34.74405 62.45558,193.02246 62.45558,193.02246 l -86.81328,-23.93477 c 0,0 -3.74739,-18.53018 -8.74378,-21.61852 -4.99638,-3.08837 -5.621,-16.21388 -5.621,-16.21388 0,0 -26.85589,-10.03719 -24.98223,-48.64173 1.87367,-38.60455 -18.73663,-82.61356 -18.73663,-82.61356 z"
     id="path176"
     inkscape:connector-curvature="0"
     style="fill:#9b8f00;stroke-width:1.2486" />
  <path
     d="m 854.25607,410.79595 h -23.10856 c 0,0 -13.74023,19.30233 -15.61395,67.94391 l -7.49461,38.60449 c 0,0 -15.61395,46.32538 -6.24556,54.04627 9.36839,7.72089 27.48044,6.94882 31.22778,-8.49299 3.74734,-15.4418 29.35411,-105.00421 29.35411,-105.00421 z"
     id="path178"
     inkscape:connector-curvature="0"
     style="fill:#9b8f00;stroke-width:1.2486" />
  <path
     d="m 847.63314,290.75518 a 33.460259,41.364326 0 0 1 34.61182,7.01524 c 11.99458,13.23287 14.41461,34.82 17.44679,54.3373 3.03219,19.51731 9.1321,41.25215 24.01182,48.77638 a 62.559741,77.337762 0 0 1 -20.1584,-0.72509 l 22.48597,24.91101 -37.87878,-15.26305 c -11.88815,-4.79027 -24.37353,-9.64067 -36.68426,-6.93538 -20.39426,4.48169 -34.59259,28.18281 -54.18093,36.50926 l 2.17675,-13.13102 -13.14195,-0.12446 a 25.73962,31.819898 0 0 0 7.52967,-10.90556 7.2870324,9.0083936 0 0 0 -5.02727,-3.25172 c -5.47819,-42.2425 14.81292,-83.9996 41.25632,-111.59775 5.20127,-5.42842 10.9567,-10.64237 17.67449,-12.00025 6.71779,-1.35784 14.55999,2.35557 16.89604,10.25946"
     id="path180"
     inkscape:connector-curvature="0"
     style="fill:#2f2e41;stroke-width:1.2486" />
  <path
     d="m 274.55521,677.89542 c 0,88.87079 45.09937,160.7839 100.83353,160.7839"
     id="path182"
     inkscape:connector-curvature="0"
     style="fill:#3f3d56;stroke-width:1.2486" />
  <path
     d="m 375.38874,838.67932 c 0,-89.86933 50.32827,-162.59044 112.52435,-162.59044"
     id="path184"
     inkscape:connector-curvature="0"
     style="fill:#9b8f00;stroke-width:1.2486" />
  <path
     d="m 311.0891,685.95171 c 0,84.41781 28.75901,152.72761 64.29964,152.72761"
     id="path186"
     inkscape:connector-curvature="0"
     style="fill:#9b8f00;stroke-width:1.2486" />
  <path
     d="m 375.38874,838.67932 c 0,-114.83304 58.17161,-207.75444 130.06063,-207.75444"
     id="path188"
     inkscape:connector-curvature="0"
     style="fill:#3f3d56;stroke-width:1.2486" />
  <path
     d="m 354.17596,839.81287 c 0,0 14.29986,-0.54447 18.60947,-4.3382 4.30962,-3.79374 21.99678,-8.3237 23.06589,-2.23936 1.06911,6.08434 21.49002,30.26071 5.34555,30.42169 -16.14446,0.16098 -37.51255,-3.10879 -41.81387,-6.34781 -4.30133,-3.23902 -5.20704,-17.49632 -5.20704,-17.49632 z"
     id="path190"
     inkscape:connector-curvature="0"
     style="fill:#a8a8a8;stroke-width:1.2486" />
  <path
     d="m 401.48498,861.53902 c -16.14446,0.16105 -37.51253,-3.10877 -41.81386,-6.34781 -3.27569,-2.4667 -4.58101,-11.31781 -5.01777,-15.40132 -0.30247,0.0161 -0.47739,0.023 -0.47739,0.023 0,0 0.90572,14.25728 5.20705,17.49633 4.30135,3.23905 25.66941,6.50884 41.81387,6.3478 4.66027,-0.0464 6.27001,-2.09619 6.18162,-5.13201 -0.64742,1.83413 -2.42482,2.97945 -5.89352,3.01401 z"
     id="path192"
     inkscape:connector-curvature="0"
     style="opacity:0.2;stroke-width:1.2486" />
</svg>
