<?xml version="1.0" encoding="UTF-8" standalone="no"?>
<svg
   xmlns:dc="http://purl.org/dc/elements/1.1/"
   xmlns:cc="http://creativecommons.org/ns#"
   xmlns:rdf="http://www.w3.org/1999/02/22-rdf-syntax-ns#"
   xmlns:svg="http://www.w3.org/2000/svg"
   xmlns="http://www.w3.org/2000/svg"
   xmlns:sodipodi="http://sodipodi.sourceforge.net/DTD/sodipodi-0.dtd"
   xmlns:inkscape="http://www.inkscape.org/namespaces/inkscape"
   id="e165fece-05d2-4993-8602-41b5d2669c6b"
   data-name="Layer 1"
   width="1200"
   height="883.71661"
   viewBox="0 0 1200 883.71661"
   version="1.1"
   sodipodi:docname="undraw_knowledge_g5gf.svg"
   inkscape:version="0.92.4 (unknown)">
  <metadata
     id="metadata65">
    <rdf:RDF>
      <cc:Work
         rdf:about="">
        <dc:format>image/svg+xml</dc:format>
        <dc:type
           rdf:resource="http://purl.org/dc/dcmitype/StillImage" />
        <dc:title>knowledge</dc:title>
      </cc:Work>
    </rdf:RDF>
  </metadata>
  <defs
     id="defs63" />
  <sodipodi:namedview
     pagecolor="#ffffff"
     bordercolor="#666666"
     borderopacity="1"
     objecttolerance="10"
     gridtolerance="10"
     guidetolerance="10"
     inkscape:pageopacity="0"
     inkscape:pageshadow="2"
     inkscape:window-width="640"
     inkscape:window-height="480"
     id="namedview61"
     showgrid="false"
     fit-margin-top="0"
     fit-margin-left="0"
     fit-margin-right="0"
     fit-margin-bottom="0"
     inkscape:zoom="0.29481574"
     inkscape:cx="-351.97458"
     inkscape:cy="366.33049"
     inkscape:current-layer="e165fece-05d2-4993-8602-41b5d2669c6b" />
  <title
     id="title2">knowledge</title>
  <rect
     x="129.71481"
     y="116.46735"
     width="1004.5998"
     height="540.93835"
     id="rect4"
     style="fill:#f2f2f2;stroke-width:1.10395586" />
  <rect
     x="226.86293"
     y="209.19963"
     width="324.56302"
     height="398.52805"
     id="rect6"
     style="opacity:0.3;fill:#bada55;stroke-width:1.10395586" />
  <rect
     x="676.17297"
     y="237.9025"
     width="259.42963"
     height="14.351426"
     id="rect8"
     style="fill:#3f3d56;stroke-width:1.10395586" />
  <rect
     x="676.17297"
     y="264.39743"
     width="377.55289"
     height="14.351426"
     id="rect10"
     style="fill:#3f3d56;stroke-width:1.10395586" />
  <rect
     x="676.17297"
     y="328.42685"
     width="259.42963"
     height="14.351426"
     id="rect12"
     style="fill:#3f3d56;stroke-width:1.10395586" />
  <rect
     x="676.17297"
     y="434.40662"
     width="259.42963"
     height="14.351426"
     id="rect14"
     style="fill:#3f3d56;stroke-width:1.10395586" />
  <rect
     x="676.17297"
     y="354.92178"
     width="377.55289"
     height="14.351426"
     id="rect16"
     style="fill:#3f3d56;stroke-width:1.10395586" />
  <rect
     x="676.17297"
     y="381.41675"
     width="377.55289"
     height="14.351426"
     id="rect18"
     style="fill:#3f3d56;stroke-width:1.10395586" />
  <rect
     x="676.17297"
     y="407.91168"
     width="377.55289"
     height="14.351426"
     id="rect20"
     style="fill:#3f3d56;stroke-width:1.10395586" />
  <rect
     x="676.17297"
     y="498.43607"
     width="135.78658"
     height="37.5345"
     id="rect22"
     style="fill:#bada55;stroke-width:1.10395586" />
  <rect
     x="247.83809"
     y="187.67249"
     width="324.56302"
     height="398.52805"
     id="rect24"
     style="fill:#3f3d56;stroke-width:1.10395586" />
  <path
     d="m 526.03496,408.03056 c 0,77.39921 -46.0126,104.42413 -102.77203,104.42413 -56.75943,0 -102.77203,-27.02492 -102.77203,-104.42413 0,-77.39922 102.77203,-175.86322 102.77203,-175.86322 0,0 102.77203,98.464 102.77203,175.86322 z"
     id="path26"
     inkscape:connector-curvature="0"
     style="fill:#bada55;stroke-width:1.10395586" />
  <polygon
     points="381.117,385.593 381.546,359.209 408.893,306.69 381.659,352.227 381.659,352.228 382.43,304.776 411.714,262.964 382.551,297.314 383.033,210.305 380.006,325.49 380.255,320.738 350.482,275.166 379.777,329.859 377.003,382.855 376.921,381.448 342.598,333.49 376.817,386.417 376.47,393.045 376.408,393.145 376.436,393.689 369.398,528.142 378.801,528.142 379.93,458.694 414.064,405.897 380.014,453.474 380.968,394.797 420.647,322.206 "
     id="polygon28"
     transform="scale(1.1039558)"
     style="fill:#3f3d56" />
  <ellipse
     cx="145.1702"
     cy="864.9494"
     rx="144.61821"
     ry="18.76725"
     id="ellipse30"
     style="fill:#3f3d56;stroke-width:1.10395586" />
  <path
     d="m 76.860894,345.40111 -4.803886,11.40924 5.404372,73.85978 c 0,0 -3.002429,4.2034 0,7.20583 3.002429,3.00243 2.401943,4.2034 2.401943,4.2034 0,0 -4.803886,0 -2.401943,3.60291 2.401943,3.60292 2.401943,5.40439 2.401943,5.40439 l -1.200949,3.60294 c 0,0 2.401942,3.00243 2.401942,5.40437 0,2.40195 15.612641,76.26173 15.612641,76.26173 L 111.6891,506.93188 103.2823,389.83711 Z"
     id="path32"
     inkscape:connector-curvature="0"
     style="fill:#bada55;stroke-width:1.10395586" />
  <path
     d="m 234.82079,530.15616 c 0,0 26.42006,19.45977 27.35051,35.02149 0.93044,15.56173 -34.0569,-23.17397 -34.29471,-27.5391 -0.23782,-4.36513 6.9442,-7.48239 6.9442,-7.48239 z"
     id="path34"
     inkscape:connector-curvature="0"
     style="fill:#ffb9b9;stroke-width:1.10395586" />
  <path
     d="m 69.05458,824.58895 -6.605355,21.61749 c 0,0 -9.607727,21.01701 3.602915,24.01944 13.210642,3.00243 25.820909,-8.4068 25.820909,-8.4068 v -14.41166 l 4.803886,-22.81847 z"
     id="path36"
     inkscape:connector-curvature="0"
     style="fill:#2f2e41;stroke-width:1.10395586" />
  <path
     d="m 177.14206,824.58895 c 0,0 -3.00243,40.83304 3.60291,43.23499 6.60534,2.40194 30.02429,3.00242 30.62484,0 0.60055,-3.00243 7.80633,-6.00486 2.40194,-10.20828 -5.40438,-4.20343 -9.00728,-28.82333 -9.00728,-28.82333 z"
     id="path38"
     inkscape:connector-curvature="0"
     style="fill:#2f2e41;stroke-width:1.10395586" />
  <path
     d="m 116.49298,437.87596 v 18.01458 c 0,0 -19.816012,41.43353 -27.021885,106.88651 -7.205873,65.45298 -31.825756,264.81433 -25.820898,268.41724 6.004857,3.60292 70.857403,6.00486 72.658803,1.20098 1.80141,-4.80389 3.60292,-145.31762 3.60292,-145.31762 l 22.21798,-99.08019 c 0,0 4.20341,35.42867 7.80633,41.43354 3.60291,6.00487 -6.00487,201.16283 0,204.16524 6.00487,3.0024 87.07046,8.4068 85.86949,-1.20097 -1.20097,-9.60778 -28.22284,-270.21871 -28.22284,-270.21871 0,0 -13.81118,-123.09963 -18.01453,-124.3006 -4.20334,-1.20097 -42.6345,-2.40194 -48.63936,-1.20097 -6.00487,1.20097 -44.43601,1.20097 -44.43601,1.20097 z"
     id="path40"
     inkscape:connector-curvature="0"
     style="fill:#2f2e41;stroke-width:1.10395586" />
  <circle
     cx="162.1299"
     cy="254.72775"
     r="34.227695"
     id="circle42"
     style="fill:#ffb9b9;stroke-width:1.10395586" />
  <path
     d="m 169.33579,283.55106 c 0,0 -17.4141,27.02187 -13.2107,34.22769 4.2034,7.20583 -44.43597,-7.20582 -44.43597,-7.20582 0,0 29.42383,-36.02917 28.82333,-40.23257 -0.6005,-4.2034 28.82334,13.2107 28.82334,13.2107 z"
     id="path44"
     inkscape:connector-curvature="0"
     style="fill:#ffb9b9;stroke-width:1.10395586" />
  <path
     d="m 205.3649,323.78362 c 0,0 -31.82576,-10.20828 -36.02916,-14.41165 a 57.756949,57.756949 0 0 1 -7.20584,-9.0073 c 0,0 -38.4311,-5.40437 -39.63207,-5.40437 -1.20097,0 -10.20828,10.80875 -12.61021,13.21069 -2.40193,2.40195 -33.026726,18.61506 -33.026726,22.81847 0,4.20341 -4.803886,25.8209 -4.803886,25.8209 0,0 10.808744,22.21798 17.414087,27.02187 6.605343,4.80389 8.406811,3.60291 9.007297,11.40923 0.600486,7.80631 9.007288,20.41656 9.007288,20.41656 0,0 5.40437,13.81118 4.2034,18.01458 -1.20097,4.2034 -6.60534,7.80632 6.00487,6.60535 12.61021,-1.20098 75.06075,2.40194 75.06075,-4.2034 0,-6.60535 -12.00973,-69.65638 -12.00973,-69.65638 z"
     id="path46"
     inkscape:connector-curvature="0"
     style="fill:#bada55;stroke-width:1.10395586" />
  <path
     d="m 193.95567,324.98458 11.40923,-1.20097 c 0,0 4.2034,2.40195 4.80388,25.8209 0.60049,23.41896 0.60049,79.86465 4.8039,84.66853 4.20341,4.80389 21.61749,79.26415 21.61749,79.26415 0,0 4.80389,1.20098 4.80389,5.40438 0,4.2034 5.40438,7.80632 3.00243,12.61021 -2.40194,4.80388 2.40195,3.60291 -0.60048,6.60534 -3.00243,3.00243 -17.4141,9.00729 -18.01459,5.40437 -0.60048,-3.60291 1.80146,-4.2034 -0.60048,-5.40437 -2.40194,-1.20097 -2.40194,-1.80146 -3.00243,-6.00486 -0.60049,-4.2034 -6.00486,-8.40681 -5.40437,-10.20828 0.60048,-1.80146 -26.42139,-54.04373 -26.42139,-55.84519 0,-1.80146 -1.80146,-8.4068 -4.20341,-9.60773 -2.40194,-1.20093 -6.00485,-2.40194 -4.2034,-5.40437 1.80146,-3.00243 -4.80388,-93.07534 -4.80388,-93.07534 z"
     id="path48"
     inkscape:connector-curvature="0"
     style="fill:#bada55;stroke-width:1.10395586" />
  <path
     d="m 191.07418,233.021 c -10.49591,-11.3934 -26.97897,-17.44063 -42.09481,-14.05171 -15.11584,3.38891 -27.84422,16.80926 -29.02624,32.25518 -0.24177,3.15952 -0.0404,6.38674 -0.85793,9.44826 -1.37507,5.14936 -5.46679,9.23057 -6.90929,14.36144 -0.96615,3.43645 -0.6798,7.13658 -1.70375,10.55625 -1.89208,6.31895 -7.74856,10.439 -12.212184,15.29543 a 15.478002,15.478002 0 0 0 -3.909207,6.39728 24.123433,24.123433 0 0 0 -0.295761,6.50967 45.325424,45.325424 0 0 1 -12.151893,31.6195 77.997792,77.997792 0 0 1 15.121855,-8.79124 c -2.65391,8.45129 -0.227702,18.45076 6.44993,24.27112 6.67763,5.82037 17.37295,6.72466 24.59304,1.59262 4.28917,-3.04874 7.07506,-7.72809 9.7359,-12.26811 l 10.07457,-17.18963 c 1.82227,-3.10922 3.72475,-6.30891 6.63641,-8.43264 2.31389,-1.68771 5.12531,-2.5857 7.45447,-4.25224 5.87548,-4.20394 7.45308,-12.43194 6.35906,-19.57319 -1.09402,-7.14125 -4.3055,-13.7717 -6.14734,-20.75754 -1.45675,-5.52529 -1.91389,-11.85728 1.36329,-16.53814 4.35015,-6.21339 13.29037,-7.00614 19.20152,-11.75887 2.2255,-1.78937 3.21975,-3.96651 4.8137,-6.20634 1.47149,-2.0678 1.84636,-1.3266 4.12645,-1.42111 6.2606,-0.25947 1.69813,-8.54769 -0.62179,-11.06599 z"
     id="path50"
     inkscape:connector-curvature="0"
     style="fill:#2f2e41;stroke-width:1.10395586" />
  <ellipse
     cx="161.17755"
     cy="266.60535"
     rx="2.7598896"
     ry="6.623735"
     id="ellipse52"
     style="fill:#ffb9b9;stroke-width:1.10395586" />
  <circle
     cx="744.06622"
     cy="766.14539"
     r="35.326588"
     id="circle54"
     style="fill:#f2f2f2;stroke-width:1.10395586" />
  <circle
     cx="35.326588"
     cy="70.653175"
     r="35.326588"
     id="circle56"
     style="fill:#f2f2f2;stroke-width:1.10395586" />
  <circle
     cx="1164.6735"
     cy="35.326588"
     r="35.326588"
     id="circle58"
     style="fill:#f2f2f2;stroke-width:1.10395586" />
</svg>
