<svg xmlns="http://www.w3.org/2000/svg" width="1200" height="900" data-name="Layer 1"><path fill="#f2f2f2" d="M136.7 0h1063.27v634.522H136.7z"/><path fill="#9b8f00" opacity=".3" d="M239.524 108.772H583.04v467.475H239.524z"/><g fill="#3f3d56" stroke-width="1.104"><path d="M715.074 142.437h274.58v16.833h-274.58zM715.074 173.521h399.599v16.834H715.074zM715.074 248.628h274.58v16.834h-274.58zM715.074 372.943h274.58v16.834h-274.58zM715.074 279.701h399.599v16.834H715.074zM715.074 310.786h399.599v16.833H715.074zM715.074 341.858h399.599v16.834H715.074z"/></g><g stroke-width="1.104"><path fill="#9b8f00" d="M715.074 448.05h143.72v44.028h-143.72z"/><path fill="#3f3d56" d="M261.73 83.517h343.514v467.476H261.73z"/><path d="M556.166 342c0 90.788-48.7 122.484-108.772 122.484s-108.772-31.7-108.772-122.485c0-90.789 108.772-206.284 108.772-206.284S556.166 251.214 556.166 342z" fill="#9b8f00"/></g><path fill="#3f3d56" d="m445.375 319.515.9-61.447 34.213-54.157-34.073 44.483.561-112.677-3.529 149.17.293-6.151-34.798-59.013 34.237 70.823-3.249 68.635-.093-1.826-40.102-62.108 39.985 68.544-.409 8.573-.07.13.035.711-8.226 174.112h10.984l1.32-89.937 39.88-68.363-39.787 61.603 1.122-75.977 46.365-94.004-46.19 82.077.503-34.162 31.946-68.013-31.818 58.974z"/><g stroke-width="1.104" transform="matrix(1.0584 0 0 1.173 -.584 -136.62)"><ellipse cx="145.17" cy="864.95" rx="144.62" ry="18.767" fill="#3f3d56"/><path d="m76.861 345.4-4.804 11.409 5.405 73.86s-3.003 4.203 0 7.206 2.401 4.203 2.401 4.203-4.804 0-2.402 3.603 2.402 5.404 2.402 5.404l-1.2 3.603s2.401 3.003 2.401 5.405 15.613 76.262 15.613 76.262l15.012-29.424-8.406-117.09z" fill="#9b8f00"/><path d="M234.82 530.16s26.42 19.46 27.351 35.021c.93 15.562-34.057-23.174-34.295-27.539-.238-4.365 6.944-7.482 6.944-7.482z" fill="#ffb9b9"/></g><g fill="#2f2e41" stroke-width="1.104"><path d="m72.504 830.624-6.992 25.357s-10.168 24.653 3.814 28.174 27.329-9.861 27.329-9.861v-16.905l5.084-26.766zM186.9 830.624s-3.177 47.897 3.814 50.715c6.991 2.817 31.777 3.522 32.414 0 .635-3.522 8.262-7.044 2.542-11.974-5.72-4.93-9.534-33.81-9.534-33.81z"/><path d="M122.709 377.013v21.132s-20.973 48.602-28.6 125.382-33.685 310.622-27.33 314.856c6.356 4.227 74.996 7.044 76.903 1.41 1.907-5.636 3.813-170.461 3.813-170.461l23.516-116.221s4.449 41.558 8.262 48.602c3.813 7.044-6.356 235.96 0 239.492 6.356 3.521 92.155 9.86 90.884-1.41-1.271-11.27-29.871-316.967-29.871-316.967s-14.618-144.397-19.067-145.804c-4.45-1.409-45.124-2.818-51.48-1.409-6.356 1.409-47.031 1.409-47.031 1.409z"/></g><g stroke-width="1.104" transform="matrix(1.0584 0 0 1.173 -.584 -136.62)"><circle cx="162.13" cy="254.73" r="34.228" fill="#ffb9b9"/><path d="M169.34 283.55s-17.414 27.022-13.211 34.228c4.203 7.206-44.436-7.206-44.436-7.206s29.424-36.029 28.823-40.233 28.823 13.211 28.823 13.211z" fill="#ffb9b9"/><path d="M205.36 323.78s-31.826-10.208-36.029-14.412a57.757 57.757 0 0 1-7.206-9.007s-38.43-5.405-39.632-5.405-10.208 10.81-12.61 13.211c-2.402 2.402-33.027 18.615-33.027 22.818s-4.804 25.821-4.804 25.821 10.81 22.218 17.414 27.022 8.407 3.603 9.008 11.41c.6 7.806 9.007 20.416 9.007 20.416s5.404 13.811 4.203 18.015-6.605 7.807 6.005 6.606c12.61-1.201 75.061 2.402 75.061-4.204 0-6.605-12.01-69.656-12.01-69.656z" fill="#9b8f00"/><path d="m193.96 324.98 11.409-1.201s4.203 2.402 4.804 25.821c.6 23.419.6 79.865 4.804 84.669 4.203 4.804 21.617 79.264 21.617 79.264s4.804 1.201 4.804 5.404 5.404 7.807 3.002 12.61c-2.402 4.804 2.402 3.603-.6 6.606s-17.414 9.007-18.015 5.404c-.6-3.603 1.801-4.203-.6-5.404s-2.403-1.802-3.003-6.005-6.005-8.407-5.405-10.208c.6-1.802-26.42-54.044-26.42-55.845s-1.802-8.407-4.204-9.608c-2.402-1.2-6.005-2.402-4.203-5.404 1.801-3.003-4.804-93.075-4.804-93.075z" fill="#9b8f00"/><path d="M191.07 233.02c-10.496-11.393-26.979-17.441-42.095-14.052-15.116 3.389-27.844 16.809-29.026 32.255-.242 3.16-.04 6.387-.858 9.448-1.375 5.15-5.467 9.23-6.91 14.361-.965 3.437-.679 7.137-1.703 10.556-1.892 6.32-7.749 10.44-12.212 15.295a15.478 15.478 0 0 0-3.91 6.398 24.123 24.123 0 0 0-.295 6.51 45.325 45.325 0 0 1-12.152 31.62 77.998 77.998 0 0 1 15.122-8.792c-2.654 8.451-.228 18.451 6.45 24.271s17.373 6.725 24.593 1.593c4.29-3.049 7.075-7.728 9.736-12.268l10.075-17.19c1.822-3.11 3.725-6.31 6.636-8.433 2.314-1.688 5.126-2.586 7.455-4.252 5.875-4.204 7.453-12.432 6.359-19.573s-4.306-13.772-6.147-20.758c-1.457-5.525-1.914-11.857 1.363-16.538 4.35-6.213 13.29-7.006 19.202-11.76 2.225-1.788 3.22-3.966 4.814-6.205 1.471-2.068 1.846-1.327 4.126-1.421 6.26-.26 1.698-8.548-.622-11.066z" fill="#2f2e41"/><ellipse cx="161.18" cy="266.61" rx="2.76" ry="6.624" fill="#ffb9b9"/></g><g fill="#dedede" stroke-width="1.104" transform="matrix(1.0584 0 0 1.173 -.584 -136.62)"><circle cx="650.53" cy="794.93" r="35.327"/><circle cx="49.717" cy="196.63" r="35.327"/><circle cx="1056.4" cy="579.74" r="35.327"/></g></svg>