<svg xmlns="http://www.w3.org/2000/svg" data-name="Layer 1" width="1200" height="828.47"><ellipse cx="600" cy="788.968" rx="600" ry="39.502" fill="#3f3d56"/><ellipse cx="570.107" cy="230.605" rx="61.922" ry="56.584" fill="#9B8F00"/><path d="M679.537 748.932S547.687 801.78 454.27 750l.865-14.947 8.05-138.79 7.612-131.316 9.096-156.94h175.09l8.412 156.94 7.046 131.316 7.442 138.79z" fill="#3f3d56"/><path d="M679.537 748.932S558.363 802.847 454.27 750l.865-14.947h222.748zM470.797 464.947h192.598l7.046 131.316H463.185z" fill="#9B8F00"/><path fill="#3f3d56" d="M469.217 290.925h196.441v21.352H469.217zM469.217 219.395h196.441v21.352H469.217z"/><path fill="#3f3d56" d="M486.299 240.747h11.744v55.516h-11.744zM517.26 240.747h11.744v55.516H517.26zM548.221 240.747h11.744v55.516h-11.744zM579.182 240.747h11.744v55.516h-11.744zM610.142 240.747h11.744v55.516h-11.744zM517.26 155.872h11.744v73.132H517.26zM548.221 155.872h11.744v73.132h-11.744zM579.182 155.872h11.744v73.132h-11.744zM610.142 155.872h11.744v73.132h-11.744zM641.103 240.747h11.744v55.516h-11.744zM486.833 164.413h11.744v65.125h-11.744zM641.637 164.413h11.744v65.125h-11.744z"/><path fill="#3f3d56" d="M469.75 176.69v-64.057l98.222-79.537 98.22 79.537v64.057z"/><circle cx="570.107" cy="229.537" r="165.155" opacity=".3" fill="#9B8F00"/><circle cx="570.107" cy="229.537" r="229.537" opacity=".3" fill="#9B8F00"/><path d="M54.885 739.574c6.483 23.968 28.692 38.812 28.692 38.812s11.696-24.016 5.212-47.984c-6.483-23.968-28.692-38.812-28.692-38.812s-11.696 24.016-5.212 47.984z" fill="#8985a8"/><path d="M64.412 734.423c17.792 17.32 19.965 43.944 19.965 43.944s-26.673-1.457-44.465-18.776c-17.791-17.32-19.964-43.944-19.964-43.944s26.673 1.457 44.464 18.776z" fill="#3f3d56"/><path d="M338.175 705.062c-9.558 35.334-42.298 57.217-42.298 57.217s-17.243-35.404-7.685-70.738c9.559-35.334 42.299-57.217 42.299-57.217s17.243 35.404 7.684 70.738z" fill="#8985a8"/><path d="M251.22 705.062c9.558 35.334 42.298 57.217 42.298 57.217s17.243-35.404 7.684-70.738c-9.558-35.334-42.299-57.217-42.299-57.217s-17.242 35.404-7.684 70.738z" fill="#8985a8"/><path d="M265.265 697.468c26.229 25.533 29.432 64.783 29.432 64.783s-39.321-2.147-65.55-27.68-29.432-64.782-29.432-64.782 39.321 2.147 65.55 27.68zM324.13 697.468c-26.23 25.533-29.433 64.783-29.433 64.783s39.322-2.147 65.55-27.68c26.23-25.533 29.433-64.782 29.433-64.782s-39.322 2.147-65.55 27.68z" fill="#3f3d56"/><path d="M970.418 390.718c-8.418-14.222-25.07-14.885-25.07-14.885s-16.229-2.076-26.639 19.586c-9.702 20.19-23.094 39.685-2.155 44.411l3.782-11.771 2.342 12.648a81.925 81.925 0 008.959.153c22.423-.724 43.777.212 43.09-7.835-.914-10.696 3.79-28.621-4.31-42.307z" fill="#2f2e41"/><circle cx="947.024" cy="409.432" r="21.734" fill="#a0616a"/><path d="M938.133 423.592s9.88 23.051-3.293 27.662l13.172 43.468 22.393-1.317 5.927-14.49-1.317-21.734-1.976-14.49s-13.83 3.294-12.513-21.075zM932.864 450.595s-21.734-1.976-19.758 13.831c1.975 15.807 3.951 19.1 3.951 19.1l1.976 23.71-11.855 7.244h-11.196s-34.248 7.904-17.124 16.466c17.124 8.562 23.051-6.586 23.051-6.586s31.614 0 33.59-5.27c1.975-5.268-2.635-68.495-2.635-68.495zM975.015 444.01s20.417-7.246 21.734 8.561c1.318 15.807 1.318 17.124 1.318 17.124l3.951 22.393s7.903 19.758 7.903 25.685c0 5.928 5.928 24.37 5.928 24.37s7.903 25.685-.659 25.026c-8.562-.658-9.879-27.661-9.879-27.661l-17.782-35.565-5.27-21.735z" fill="#a0616a"/><path d="M936.157 447.96h-5.269l-.658 27.662s-8.562 11.855 1.975 22.393l2.635 17.124 48.078-1.976 3.294-17.782s6.586-14.49-2.635-27.662l-8.562-27.003h-4.61s10.678 39.37-11.855 40.175c-18.441.659-22.393-32.93-22.393-32.93z" fill="#d0cde1"/><path d="M937.474 511.846l-3.951 13.172s-82.327 231.831-57.3 237.759c25.028 5.927 59.934 13.83 63.227 7.903 3.293-5.927 20.417-179.142 20.417-179.142s-2.634 181.118 5.928 181.118 65.202 1.317 68.495-7.245c3.293-8.562-29.637-237.758-48.737-243.027l-5.269-11.855z" fill="#2f2e41"/><path d="M984.894 505.26l-52.03 1.976s-2.375 17.782 0 17.782c.659 0 54.665 4.61 54.006-3.293-.658-7.903-1.976-16.465-1.976-16.465z" fill="#3f3d56"/><circle cx="947.385" cy="375.905" r="12.041" fill="#2f2e41"/><path d="M934.077 372.736a12.042 12.042 0 0110.773-11.974 12.041 12.041 0 100 23.948 12.042 12.042 0 01-10.773-11.974z" fill="#2f2e41"/><path fill="#2f2e41" d="M937.794 404.44l5.399-.207 3.133-12.144 1.96 12.928 19.194-.392-.784-15.277-16.452-8.62-22.72 3.527-4.702 20.762 11.703-.45 3.269-7.629z"/><path fill="#3f3d56" d="M868.114 465.17l5.997-1.815 27.223 89.963-5.998 1.815z"/><path d="M891.926 443.645a25.634 25.634 0 01-49.07 14.849c-4.1-13.55 9.285-57.821 9.285-57.821s35.685 29.422 39.785 42.972z" fill="#9B8F00"/><path d="M884.45 451.339a17.45 17.45 0 11-33.405 10.108c-2.792-9.225 6.32-39.363 6.32-39.363s24.294 20.03 27.085 29.255z" opacity=".1"/></svg>