<?xml version="1.0" encoding="UTF-8" standalone="no"?>
<svg
   xmlns:dc="http://purl.org/dc/elements/1.1/"
   xmlns:cc="http://creativecommons.org/ns#"
   xmlns:rdf="http://www.w3.org/1999/02/22-rdf-syntax-ns#"
   xmlns:svg="http://www.w3.org/2000/svg"
   xmlns="http://www.w3.org/2000/svg"
   xmlns:sodipodi="http://sodipodi.sourceforge.net/DTD/sodipodi-0.dtd"
   xmlns:inkscape="http://www.inkscape.org/namespaces/inkscape"
   id="e165fece-05d2-4993-8602-41b5d2669c6b"
   width="1200"
   height="900"
   data-name="Layer 1"
   version="1.1"
   viewBox="0 0 1200 900"
   sodipodi:docname="undraw_knowledge_g5gf.min.svg"
   inkscape:version="1.0.1 (3bc2e813f5, 2020-09-07)">
  <defs
     id="defs79" />
  <sodipodi:namedview
     pagecolor="#ffffff"
     bordercolor="#666666"
     borderopacity="1"
     objecttolerance="10"
     gridtolerance="10"
     guidetolerance="10"
     inkscape:pageopacity="0"
     inkscape:pageshadow="2"
     inkscape:window-width="1920"
     inkscape:window-height="1051"
     id="namedview77"
     showgrid="false"
     inkscape:zoom="0.72360594"
     inkscape:cx="201.72114"
     inkscape:cy="474.27942"
     inkscape:window-x="0"
     inkscape:window-y="0"
     inkscape:window-maximized="1"
     inkscape:current-layer="e165fece-05d2-4993-8602-41b5d2669c6b" />
  <metadata
     id="metadata2">
    <rdf:RDF>
      <cc:Work
         rdf:about="">
        <dc:format>image/svg+xml</dc:format>
        <dc:type
           rdf:resource="http://purl.org/dc/dcmitype/StillImage" />
        <dc:title>knowledge</dc:title>
      </cc:Work>
    </rdf:RDF>
  </metadata>
  <title
     id="title4">knowledge</title>
  <g
     transform="matrix(1.0584 0 0 1.173 -.58424 -136.62)"
     id="g74">
    <rect
       x="129.71"
       y="116.47"
       width="1004.6"
       height="540.94"
       fill="#f2f2f2"
       stroke-width="1.104"
       id="rect6" />
    <rect
       x="226.86"
       y="209.2"
       width="324.56"
       height="398.53"
       fill="#9b8f00"
       opacity=".3"
       stroke-width="1.104"
       id="rect8" />
    <g
       fill="#3f3d56"
       stroke-width="1.104"
       id="g24">
      <rect
         x="676.17"
         y="237.9"
         width="259.43"
         height="14.351"
         id="rect10" />
      <rect
         x="676.17"
         y="264.4"
         width="377.55"
         height="14.351"
         id="rect12" />
      <rect
         x="676.17"
         y="328.43"
         width="259.43"
         height="14.351"
         id="rect14" />
      <rect
         x="676.17"
         y="434.41"
         width="259.43"
         height="14.351"
         id="rect16" />
      <rect
         x="676.17"
         y="354.92"
         width="377.55"
         height="14.351"
         id="rect18" />
      <rect
         x="676.17"
         y="381.42"
         width="377.55"
         height="14.351"
         id="rect20" />
      <rect
         x="676.17"
         y="407.91"
         width="377.55"
         height="14.351"
         id="rect22" />
    </g>
    <g
       stroke-width="1.104"
       id="g32">
      <rect
         x="676.17"
         y="498.44"
         width="135.79"
         height="37.534"
         fill="#9b8f00"
         id="rect26" />
      <rect
         x="247.84"
         y="187.67"
         width="324.56"
         height="398.53"
         fill="#3f3d56"
         id="rect28" />
      <path
         d="m526.03 408.03c0 77.399-46.013 104.42-102.77 104.42s-102.77-27.025-102.77-104.42c0-77.399 102.77-175.86 102.77-175.86s102.77 98.464 102.77 175.86z"
         fill="#9b8f00"
         id="path30" />
    </g>
    <polygon
       transform="scale(1.104)"
       points="381.66 352.23 382.43 304.78 411.71 262.96 382.55 297.31 383.03 210.3 380.01 325.49 380.26 320.74 350.48 275.17 379.78 329.86 377 382.86 376.92 381.45 342.6 333.49 376.82 386.42 376.47 393.04 376.41 393.14 376.44 393.69 369.4 528.14 378.8 528.14 379.93 458.69 414.06 405.9 380.01 453.47 380.97 394.8 420.65 322.21 381.12 385.59 381.55 359.21 408.89 306.69 381.66 352.23"
       fill="#3f3d56"
       id="polygon34" />
    <g
       stroke-width="1.104"
       id="g42">
      <ellipse
         cx="145.17"
         cy="864.95"
         rx="144.62"
         ry="18.767"
         fill="#3f3d56"
         id="ellipse36" />
      <path
         d="m76.861 345.4-4.8039 11.409 5.4044 73.86s-3.0024 4.2034 0 7.2058 2.4019 4.2034 2.4019 4.2034-4.8039 0-2.4019 3.6029c2.4019 3.6029 2.4019 5.4044 2.4019 5.4044l-1.2009 3.6029s2.4019 3.0024 2.4019 5.4044c0 2.402 15.613 76.262 15.613 76.262l15.012-29.424-8.4068-117.09z"
         fill="#9b8f00"
         id="path38" />
      <path
         d="m234.82 530.16s26.42 19.46 27.351 35.021c0.93044 15.562-34.057-23.174-34.295-27.539-0.23782-4.3651 6.9442-7.4824 6.9442-7.4824z"
         fill="#ffb9b9"
         id="path40" />
    </g>
    <g
       fill="#2f2e41"
       stroke-width="1.104"
       id="g50">
      <path
         d="m69.055 824.59-6.6054 21.617s-9.6077 21.017 3.6029 24.019 25.821-8.4068 25.821-8.4068v-14.412l4.8039-22.818z"
         id="path44" />
      <path
         d="m177.14 824.59s-3.0024 40.833 3.6029 43.235c6.6053 2.4019 30.024 3.0024 30.625 0 0.60055-3.0024 7.8063-6.0049 2.4019-10.208-5.4044-4.2034-9.0073-28.823-9.0073-28.823z"
         id="path46" />
      <path
         d="m116.49 437.88v18.015s-19.816 41.434-27.022 106.89-31.826 264.81-25.821 268.42c6.0049 3.6029 70.857 6.0049 72.659 1.201 1.8014-4.8039 3.6029-145.32 3.6029-145.32l22.218-99.08s4.2034 35.429 7.8063 41.434c3.6029 6.0049-6.0049 201.16 0 204.17 6.0049 3.0024 87.07 8.4068 85.869-1.201-1.201-9.6078-28.223-270.22-28.223-270.22s-13.811-123.1-18.015-124.3c-4.2033-1.201-42.634-2.4019-48.639-1.201-6.0049 1.201-44.436 1.201-44.436 1.201z"
         id="path48" />
    </g>
    <g
       stroke-width="1.104"
       id="g64">
      <circle
         cx="162.13"
         cy="254.73"
         r="34.228"
         fill="#ffb9b9"
         id="circle52" />
      <path
         d="m169.34 283.55s-17.414 27.022-13.211 34.228c4.2034 7.2058-44.436-7.2058-44.436-7.2058s29.424-36.029 28.823-40.233 28.823 13.211 28.823 13.211z"
         fill="#ffb9b9"
         id="path54" />
      <path
         d="m205.36 323.78s-31.826-10.208-36.029-14.412a57.757 57.757 0 0 1-7.2058-9.0073s-38.431-5.4044-39.632-5.4044-10.208 10.809-12.61 13.211c-2.4019 2.402-33.027 18.615-33.027 22.818s-4.8039 25.821-4.8039 25.821 10.809 22.218 17.414 27.022 8.4068 3.6029 9.0073 11.409c0.60049 7.8063 9.0073 20.417 9.0073 20.417s5.4044 13.811 4.2034 18.015-6.6053 7.8063 6.0049 6.6054c12.61-1.201 75.061 2.4019 75.061-4.2034 0-6.6054-12.01-69.656-12.01-69.656z"
         fill="#9b8f00"
         id="path56" />
      <path
         d="m193.96 324.98 11.409-1.201s4.2034 2.402 4.8039 25.821c0.60049 23.419 0.60049 79.865 4.8039 84.669 4.2034 4.8039 21.617 79.264 21.617 79.264s4.8039 1.201 4.8039 5.4044 5.4044 7.8063 3.0024 12.61c-2.4019 4.8039 2.402 3.6029-0.60048 6.6053s-17.414 9.0073-18.015 5.4044c-0.60048-3.6029 1.8015-4.2034-0.60048-5.4044s-2.4019-1.8015-3.0024-6.0049-6.0049-8.4068-5.4044-10.208c0.60048-1.8015-26.421-54.044-26.421-55.845s-1.8015-8.4068-4.2034-9.6077c-2.4019-1.2009-6.0048-2.4019-4.2034-5.4044 1.8015-3.0024-4.8039-93.075-4.8039-93.075z"
         fill="#9b8f00"
         id="path58" />
      <path
         d="m191.07 233.02c-10.496-11.393-26.979-17.441-42.095-14.052-15.116 3.3889-27.844 16.809-29.026 32.255-0.24177 3.1595-0.0404 6.3867-0.85793 9.4483-1.3751 5.1494-5.4668 9.2306-6.9093 14.361-0.96615 3.4364-0.6798 7.1366-1.7038 10.556-1.8921 6.319-7.7486 10.439-12.212 15.295a15.478 15.478 0 0 0-3.9092 6.3973 24.123 24.123 0 0 0-0.29576 6.5097 45.325 45.325 0 0 1-12.152 31.62 77.998 77.998 0 0 1 15.122-8.7912c-2.6539 8.4513-0.2277 18.451 6.4499 24.271 6.6776 5.8204 17.373 6.7247 24.593 1.5926 4.2892-3.0487 7.0751-7.7281 9.7359-12.268l10.075-17.19c1.8223-3.1092 3.7248-6.3089 6.6364-8.4326 2.3139-1.6877 5.1253-2.5857 7.4545-4.2522 5.8755-4.2039 7.4531-12.432 6.3591-19.573s-4.3055-13.772-6.1473-20.758c-1.4568-5.5253-1.9139-11.857 1.3633-16.538 4.3502-6.2134 13.29-7.0061 19.202-11.759 2.2255-1.7894 3.2198-3.9665 4.8137-6.2063 1.4715-2.0678 1.8464-1.3266 4.1264-1.4211 6.2606-0.25947 1.6981-8.5477-0.62179-11.066z"
         fill="#2f2e41"
         id="path60" />
      <ellipse
         cx="161.18"
         cy="266.61"
         rx="2.7599"
         ry="6.6237"
         fill="#ffb9b9"
         id="ellipse62" />
    </g>
    <g
       fill="#dedede"
       stroke-width="1.104"
       id="g72">
      <circle
         cx="650.53"
         cy="794.93"
         r="35.327"
         id="circle66" />
      <circle
         cx="49.717"
         cy="196.63"
         r="35.327"
         id="circle68" />
      <circle
         cx="1056.4"
         cy="579.74"
         r="35.327"
         id="circle70" />
    </g>
  </g>
</svg>
