<svg xmlns="http://www.w3.org/2000/svg" data-name="Layer 1" width="1200" height="728.024"><ellipse cx="763.16" cy="688.72" rx="436.84" ry="39.304" fill="#3f3d56"/><path opacity=".3" fill="#3f3d56" d="M1023.796 321.149H549.638V0h474.158z"/><path fill="#f2f2f2" d="M853.133 29.425h140.398v153.008H853.133zM766.54 38.672H631.186v-9.248H766.54zM901.053 215.221h-47.92v-9.248h47.92zM991.849 232.035H854.814v-9.248h137.035zM798.487 72.301H603.443v-9.248h195.044zM798.487 98.363H603.443v-9.248h195.044zM798.487 124.424H603.443v-9.248h195.044zM798.487 150.486H603.443v-9.248h195.044zM798.487 176.548H603.443V167.3h195.044zM798.487 202.61H603.443v-9.248h195.044zM798.487 228.672H603.443v-9.248h195.044z"/><path d="M874.217 116.796a24.835 24.835 0 016.799-3.41 173.351 173.351 0 0147.9-10.427c14.243-1.01 29.68.19 40.804 9.141a14.03 14.03 0 014.14 4.822c1.4 3.02.975 6.531.522 9.829a11.106 11.106 0 01-.953 3.7c-1.497 2.85-5.183 3.849-8.384 3.507-3.201-.342-6.205-1.696-9.363-2.324a41.852 41.852 0 00-5.913-.603l-19.804-1.072c-12.315-.667-24.792-1.322-36.872 1.163a36.728 36.728 0 00-10.653 3.671c-2.76 1.55-4.617 3.772-7.177.91-4.498-5.026-6.988-14.265-1.046-18.907z" fill="#2f2e41"/><path d="M904.905 125.553s26.638-11.94 36.741 1.837c10.104 13.778-5.51 8.267-5.51 8.267l-17.453 5.511-19.289-3.674z" fill="#f2f2f2"/><path d="M906.283 116.827s3.674 17.452.919 22.045c-2.756 4.592 15.615 11.022 15.615 11.022l17.451-7.348s-4.592-28.474 0-33.985z" fill="#ffb9b9"/><path d="M906.283 116.827s3.674 17.452.919 22.045c-2.756 4.592 15.615 11.022 15.615 11.022l17.451-7.348s-4.592-28.474 0-33.985z" opacity=".1"/><path d="M948.535 99.375a27.578 27.578 0 01-27.555 27.556 26.893 26.893 0 01-4.896-.44 27.555 27.555 0 1132.451-27.116z" fill="#ffb9b9"/><path d="M965.173 183.274h-87.879l1.993-8.651 8.625-37.588 9.971-6.734.01-.01 4.682-3.169 2.329-1.572s1.378.63 2.967 1.488c.463.26.934.53 1.404.816.01-.01.01 0 .01 0a16.45 16.45 0 012.168 1.505c.127.117.236.218.345.328 1.749 1.748 6.852 11.03 15.293 6.28a12.856 12.856 0 001.235-.774 61.158 61.158 0 006.28-4.985c1.774-1.623 2.926-2.875 3.868-3.741a6.106 6.106 0 011.429-1.06 2.717 2.717 0 011.286-.31c2.758 0 6.432 5.506 6.432 5.506l.109.32.009.025 11.593 34.805z" fill="#f2f2f2"/><path d="M877.294 183.274h26.634a64.82 64.82 0 00-.48-9.214c-.815-6.146-2.816-12.064-4.077-18.134a76.289 76.289 0 01-1.605-16.176 29.55 29.55 0 01.092-2.261 10.354 10.354 0 011.454-4.91c.631-.967 1.497-1.79 2.17-2.715a6.23 6.23 0 00.613-.967v-.009a5.588 5.588 0 00.227-.513 4.151 4.151 0 00.252-1.253c.152-2.774-2.362-5.447-5.078-6.59a18.985 18.985 0 00-11.895-.48 56.623 56.623 0 00-11.182 4.574c-1.202.588-2.396 1.193-3.548 1.866a17.612 17.612 0 00-3.758 2.858c-2.858 2.951-4.11 7.062-5.12 11.039a23.337 23.337 0 00-.966 9.416c.009.1.033.21.05.31 1 5.238 5.271 9.173 7.55 13.999 2.64 5.599 2.463 12.123 1.412 18.226-.05.311-.11.622-.168.933h7.423zM985.712 149.637a208.144 208.144 0 00-7.255 33.637H940.49q-1.488-4.06-2.967-8.13a60.951 60.951 0 01-2.027-6.255 29.935 29.935 0 01-.849-7.532c0-.606.025-1.22.076-1.825a.026.026 0 000-.033 30.083 30.083 0 012.194-9.307 34.714 34.714 0 011.934-3.926c1.765-3.195 3.9-6.204 5.8-9.332a42.829 42.829 0 003.086-5.986.03.03 0 01.01-.025 21.485 21.485 0 001.74-8.365c-.06-3.707-6.331-10.172.487-9.55 9.306.84 17.302 6.196 24.59 12.3 1.943 1.63 3.843 3.32 5.7 4.985 2.876 2.589 5.91 5.414 6.777 9.188a9.797 9.797 0 01.243 1.833 25.16 25.16 0 01-1.572 8.323z" fill="#2f2e41"/><path d="M928.806 139.498a20.53 20.53 0 00-4.31-6.95 15.992 15.992 0 00-6.585-3.336 36.009 36.009 0 00-9.66-1.385c-3.89-.024-8.4 1.02-10.052 4.542-1.312 2.796-.295 6.108 1.026 8.9a8.727 8.727 0 002.723 3.68c1.678 1.133 3.847 1.097 5.836 1.476a26.917 26.917 0 018.625 3.909l6.813 4.118 11.703 7.074c-.308-.186-.198-8.212-.558-9.527-1.158-4.237-3.764-8.489-5.56-12.501z" fill="#ffb9b9"/><path d="M947.842 85.015a6.994 6.994 0 00-3.034-3.96 16.052 16.052 0 00-.64-5.225c-1.669-4.934-5.622-4.651-9.352-6.832-1.618-.946-1.518-1.783-2.36-3.337a12.385 12.385 0 00-4.773-4.87c-2.393-1.524-4.92-3.094-7.75-3.287-5.95-.406-10.51 5.19-16.197 6.986-2.506.791-5.2.824-7.719 1.572-2.52.749-5.033 2.536-5.408 5.137-.174 1.2.132 2.433-.044 3.633-.35 2.387-2.443 4.058-3.844 6.02-3.1 4.341-2.745 10.473-.267 15.195a21.358 21.358 0 001.787 2.797 17.203 17.203 0 001.887 6.388c2.479 4.723 6.744 8.252 11.199 11.184a26.432 26.432 0 01-.661-4.77 3.29 3.29 0 01.203-1.58c.496-1.036 1.807-1.312 2.807-1.88 2.07-1.177 2.882-3.78 2.942-6.161.06-2.38-.445-4.765-.196-7.133a3.898 3.898 0 011.335-2.867 4.609 4.609 0 012.515-.6c4.242-.173 8.674-.251 12.416-2.257a18.4 18.4 0 013.865-1.955c3.18-.83 6.43 1.4 8.262 4.127 1.833 2.728 2.746 5.974 4.437 8.792 1.691 2.818 4.612 5.33 7.881 4.997a1.308 1.308 0 00.977-.434 1.463 1.463 0 00.18-.832l.182-12.497a18.888 18.888 0 00-.63-6.351zM875.167 168.469q.896 7.377 1.085 14.805h-23.12v-19.429c.118-.47.244-.933.396-1.396 1.446-4.455 4.48-8.188 7.112-12.064.126-.193.26-.386.387-.58a31.564 31.564 0 002.875-5.187c.378-.891.984-5.204 1.623-5.574 2.74-1.589 4.968 5.204 5.346 6.717 1.346 5.39 2.514 10.829 3.397 16.319q.517 3.19.9 6.389zM992 183.274h-53.073c-.454-1.068-.9-2.136-1.37-3.195a93.4 93.4 0 00-12.73-20.875 5.523 5.523 0 01-1.571-3.119 2.64 2.64 0 01.345-1.404c.807-1.505 2.942-2.387 4.674-3.102a16.107 16.107 0 004.859-3.06 10.42 10.42 0 002.808-4.145 9.095 9.095 0 00.353-1.429l.74.967c.597.79 1.202 1.572 1.816 2.354 5.885 7.558 12.35 15.006 20.48 19.487a34.455 34.455 0 006.692 2.85 1.756 1.756 0 001.412 0 1.71 1.71 0 00.613-1.126c.724-3.027.976-6.146 1.505-9.214a52.483 52.483 0 015.54-15.957c1.505-2.8 6.398-13.03 9.5-6.583q1.337 2.787 2.691 5.591c.563 1.186 1.135 2.363 1.706 3.548a22.064 22.064 0 012.766 12.358q.127 13.04.244 26.054z" fill="#2f2e41"/><path d="M877.294 183.274h4.6l-2.607-8.651-3.758-12.468a40.67 40.67 0 01-.362 6.314 42.04 42.04 0 01-3.665 12.476c-.362.765-.748 1.538-1.06 2.329zM970.966 156.688c-.647 1.741-.06 3.667.44 5.457a54.982 54.982 0 012.004 15.953.58.58 0 01-.68.696c-2.12.13-4.547.144-5.985-1.419z" opacity=".1"/><path opacity=".3" fill="#3f3d56" d="M0 3.305h474.158v321.149H0z"/><path fill="#f2f2f2" d="M30.265 32.73h140.398v153.008H30.265zM257.256 32.73H392.61v9.248H257.256zM31.947 209.278h47.92v9.248h-47.92zM31.947 226.092h137.035v9.248H31.947zM225.309 66.358h195.044v9.248H225.309zM225.309 92.42h195.044v9.248H225.309zM225.309 118.482h195.044v9.248H225.309zM225.309 144.544h195.044v9.248H225.309zM225.309 170.606h195.044v9.248H225.309zM225.309 196.668h195.044v9.248H225.309zM225.309 222.73h195.044v9.248H225.309z"/><path d="M166.846 186.58h-18.251q-2.106-5.663-3.741-11.468a22.908 22.908 0 00-5.953-12.131 22.502 22.502 0 01-2.564-3.48 16.347 16.347 0 01-1.614-9.913 25.745 25.745 0 01.47-2.808c.8-3.59 2.136-7.036 3.254-10.534a3.995 3.995 0 013.262-2.698 6.47 6.47 0 013.565.411 4.427 4.427 0 01.715.37c1.992 1.203 3.026 3.657 3.858 5.902q5.713 15.335 11.417 30.67 1.11 2.975 2.22 5.968c1.092 2.926 2.177 5.851 3.102 8.836.092.294.176.58.26.874z" fill="#d0cde1"/><path d="M90.865 52.025c-4.538 1.533-8.65 5.117-9.579 9.816-.43 2.178-.166 4.442-.529 6.633-.84 5.08-4.828 8.96-8.507 12.563-3.678 3.604-7.476 7.792-7.744 12.934-.294 5.63 3.79 10.906 3.083 16.5-.821 6.5-7.686 10.71-9.383 17.038-1.133 4.225.256 8.776 2.54 12.507 4.353 7.109 11.794 11.935 19.718 14.522 7.924 2.587 16.364 3.131 24.7 3.219 10.148.106 21.168-.765 28.793-7.464a23.068 23.068 0 007.658-15.017c.725-7.759-2.514-15.776-.28-23.242 1.406-4.699 4.931-8.99 4.405-13.866-.514-4.767-4.678-8.147-7.535-11.998-2.667-3.596-4.285-7.843-5.872-12.03l-5.427-14.325c-1.066-2.816-2.238-5.778-4.616-7.626-4.45-3.46-11.608-2.78-16.813-2.067-4.828.662-9.969.335-14.612 1.903z" fill="#2f2e41"/><path d="M95.063 99.235s.531 15.937-1.062 17.53c-1.594 1.594 6.374 12.218 6.374 12.218l14.343-.531 7.437-5.843-6.375-8.5s-2.656-13.811-.531-16.998c2.125-3.187-20.186 2.124-20.186 2.124z" fill="#a0616a"/><path d="M95.063 99.235s.531 15.937-1.062 17.53c-1.594 1.594 6.374 12.218 6.374 12.218l14.343-.531 7.437-5.843-6.375-8.5s-2.656-13.811-.531-16.998c2.125-3.187-20.186 2.124-20.186 2.124z" opacity=".1"/><circle cx="103.828" cy="86.221" r="19.123" fill="#a0616a"/><path d="M113.63 186.58h15.502c.58-1.052 1.127-2.145 1.757-3.137v-.009a8.582 8.582 0 012.825-2.959 11.13 11.13 0 002.094-1.252 5.4 5.4 0 001.277-2.388 37 37 0 001.75-10.307c.024-1.177 0-2.37.066-3.548a14.915 14.915 0 01.353-2.732 21.517 21.517 0 012.296-5.196q3.152-5.738 6.322-11.475a8.02 8.02 0 00.428-3.363 8.29 8.29 0 00-1.361-4.313c-.295-.53-.614-1.06-.95-1.572a34.917 34.917 0 00-4.507-5.75 36.455 36.455 0 00-12.829-8.685 7.445 7.445 0 01-1.723-.84 7.153 7.153 0 01-1.58-1.892c-1.682-2.53-3.734-5.38-6.768-5.221a4.16 4.16 0 00-3.212-.219 4.39 4.39 0 00-.47.152 29.878 29.878 0 00-3.372 1.757 15.65 15.65 0 01-9.08 1.647 3.075 3.075 0 01-1.059-.269 5.428 5.428 0 01-.975-.79 5.606 5.606 0 00-5.574-.89 5.061 5.061 0 00-2.22 1.563c-.554.698-.941 1.538-1.555 2.194-1.589 1.698-4.212 1.765-6.532 1.757a60.37 60.37 0 00-14.35 1.32 27.28 27.28 0 00-11.3 5.465l-.008.009a21.9 21.9 0 00-1.295 1.202 9.597 9.597 0 00-2.236 3.194c-.64 1.648-.555 3.506-1.135 5.18-.64 1.874-2.06 3.404-2.632 5.287-.437 1.43-.378 3.01-1.101 4.305.034.025.059.05.092.075 3.06 2.69 5.675 6.221 8.744 8.887a17.645 17.645 0 014.439 4.96 8.194 8.194 0 01.546 1.345 20.684 20.684 0 01.454 4.893c.387 7.86 4.65 14.99 9.416 21.244.093.126.185.253.286.37z" fill="#d0cde1"/><path d="M63.75 158.727q-1.084 7.528-2.185 15.048a65.564 65.564 0 01-1.497 7.97c-.437 1.623-1 3.212-1.395 4.834H36.78a20.974 20.974 0 01.21-2.715 44.894 44.894 0 012.732-9.424q3.821-10.316 7.634-20.648c1.084-2.934 2.018-6.003 3.211-8.912.21-.538.438-1.076.681-1.597 1.27-2.791 4.792-1.648 7.399-1.227a7.025 7.025 0 012.068.588 5.336 5.336 0 011.942 1.833c2.471 3.657 1.933 8.49 1.294 12.862l-.201 1.388z" fill="#d0cde1"/><path d="M130.89 183.443c.033.118.395 1.37.991 3.136H113.63c9.046-1.555 17.26-3.144 17.26-3.144z" fill="#2f2e41"/><ellipse cx="105.421" cy="75.065" rx="20.717" ry="11.155" fill="#2f2e41"/><path fill="#3f3d56" d="M303.754 121.532h474.158v321.149H303.754z"/><ellipse cx="708.975" cy="414.938" rx="55.487" ry="5.885" opacity=".1"/><path fill="#f2f2f2" d="M334.02 150.956h140.398v153.008H334.02z"/><path d="M379.23 221.207a2.06 2.06 0 002.415-.998c1.942-3.06-1.633-7.004-.86-10.544.621-2.837 3.844-4.52 4.503-7.347.64-2.748-1.333-5.844 0-8.33 1.045-1.948 3.655-2.46 5.838-2.119 2.184.341 4.256 1.301 6.462 1.436 2.94.179 5.742-1.115 8.616-1.756 2.874-.641 6.38-.39 8.071 2.02 2.171 3.097-.031 7.408.725 11.113.6 2.941 3.063 5.377 3.116 8.38.019 1.067-2.786.207-2.637 1.264.149 1.057-1.177.126-.117 0a2.1 2.1 0 001.595-1.896c.126-.88 1.78-1.174 1.76-2.063-.044-2.083 3.723-.679 4.343-2.668a20.173 20.173 0 00-.825-14.073 28.186 28.186 0 01-2.402-5.723c-.554-2.763.317-5.728-.596-8.393-1.23-3.592-5.3-5.423-9.077-5.795-3.779-.372-7.618.294-11.375-.255-3.365-.49-6.624-1.95-10.018-1.738-4.073.253-7.618 2.878-10.44 5.824-2.824 2.947-5.22 6.336-8.426 8.86a16.524 16.524 0 00-2.701 2.326c-1.634 1.99-1.8 4.826-1.345 7.36.454 2.534 1.443 4.951 1.86 7.492.393 2.387.272 4.827.44 7.24a12.726 12.726 0 002.124 6.835 6.45 6.45 0 005.02 2.622c.679.016 1.253-.595 1.939-.436.857.2 1.23 1.014 1.991 1.362z" fill="#2f2e41"/><path d="M348.354 304.805c.614-8.415 1.076-14.704 1.076-14.704l3.968-10.458 12.737 25.162z" fill="#575a89"/><path d="M348.354 304.805c.614-8.415 1.076-14.704 1.076-14.704l3.968-10.458 12.737 25.162z" opacity=".1"/><path d="M377.87 222.063s11.877 30.231 5.039 35.99c-6.838 5.758 38.148-9.718 38.148-9.718l-1.08-3.958s-14.755-5.759-7.557-22.314c7.197-16.554-34.55 0-34.55 0z" fill="#a0616a"/><path d="M377.87 222.063s11.877 30.231 5.039 35.99c-6.838 5.758 38.148-9.718 38.148-9.718l-1.08-3.958s-14.755-5.759-7.557-22.314c7.197-16.554-34.55 0-34.55 0z" opacity=".1"/><circle cx="394.785" cy="209.107" r="25.192" fill="#a0616a"/><path d="M455.964 263.451l-.277 5.498a4333.25 4333.25 0 00-1.656 35.856h-97.657a48.419 48.419 0 01-6.213-11.122 12.003 12.003 0 01-.731-3.582c-.538-9.542 8.012-22.858 14.048-24.128 6.835-1.446 19.79-15.116 19.79-15.116a3.082 3.082 0 001.648 2.489v.009a6.698 6.698 0 003.388.74c4.22 0 22.783-8.567 28.744-11.367 1.169-.546 1.85-.874 1.85-.874a139.7 139.7 0 0021.236 7.205 22.586 22.586 0 0115.83 14.393z" fill="#575a89"/><path d="M374.91 218.688a2.06 2.06 0 002.416-.998c1.942-3.06-1.633-7.005-.859-10.545.62-2.836 3.843-4.52 4.502-7.346.64-2.748-1.333-5.844 0-8.33 1.046-1.948 3.655-2.46 5.839-2.12 2.183.342 4.256 1.302 6.462 1.436 2.94.18 5.741-1.114 8.615-1.755 2.875-.642 6.38-.39 8.071 2.02 2.172 3.096-.03 7.407.725 11.112.6 2.942 7.44 5.007 8.06 3.018a20.173 20.173 0 00-.824-14.073 28.187 28.187 0 01-2.403-5.724c-.553-2.762.317-5.727-.595-8.393-1.23-3.591-5.3-5.422-9.078-5.794-3.778-.372-7.618.294-11.375-.255-3.365-.491-6.623-1.95-10.018-1.738-4.073.253-7.617 2.878-10.44 5.824-2.824 2.947-5.22 6.336-8.426 8.86a16.524 16.524 0 00-2.701 2.326c-1.633 1.99-1.799 4.825-1.345 7.36.455 2.534 1.443 4.951 1.86 7.492.393 2.387.272 4.826.44 7.24a12.726 12.726 0 002.124 6.835 6.45 6.45 0 005.02 2.622c.68.015 1.253-.595 1.94-.436.857.199 1.23 1.013 1.99 1.362z" fill="#2f2e41"/><path d="M468.449 304.805h-28.5c-2.17-15.906-3.96-32.535-3.96-32.535l5.759-2.522 11.702-6.297s.858 2.035 2.237 5.498c2.942 7.407 8.28 21.346 12.762 35.856z" opacity=".1"/><path d="M470.962 304.805h-32.165c-4.767-17.402-9.466-36.318-9.466-36.318l12.24-8.996 14.393 3.96s8.424 20.05 14.998 41.354z" fill="#575a89"/><path fill="#9B8F00" d="M561.01 150.956h135.354v9.248H561.01zM335.701 327.504h47.92v9.248h-47.92zM335.701 344.319h137.035v9.248H335.701z"/><path fill="#f2f2f2" d="M529.064 184.584h195.044v9.248H529.064zM529.064 210.646h195.044v9.248H529.064zM529.064 236.708h195.044v9.248H529.064zM529.064 262.77h195.044v9.248H529.064zM529.064 288.832h195.044v9.248H529.064zM529.064 314.894h195.044v9.248H529.064zM529.064 340.956h195.044v9.248H529.064z"/><path d="M761.702 342.205l-53.318 53.317-22.41-22.41a7.66 7.66 0 00-10.833 0l-.805-1.203c-2.991 2.991-2.186 9.046.805 12.037l29.076 29.076a5.845 5.845 0 008.264.002l60.048-59.985c2.994-2.99 4.08-8.474 1.088-11.466-2.99-2.991-8.925-2.359-11.915.632z" fill="#57b894"/><path d="M761.702 342.205l-53.318 53.317-22.41-22.41a7.66 7.66 0 00-10.833 0l-.805-1.203c-2.991 2.991-2.186 9.046.805 12.037l29.076 29.076a5.845 5.845 0 008.264.002l60.048-59.985c2.994-2.99 4.08-8.474 1.088-11.466-2.99-2.991-8.925-2.359-11.915.632z" opacity=".1"/><path d="M761.702 339.841l-53.318 53.318-22.41-22.41a7.66 7.66 0 00-10.833 0 7.66 7.66 0 000 10.833l29.076 29.076a5.845 5.845 0 008.264.002l60.049-59.985a7.659 7.659 0 00.003-10.834 7.659 7.659 0 00-10.831 0z" fill="#57b894"/><path d="M1153.958 648.656c0 60.117-83.796 41.522-186.396 41.522-102.6 0-185.152 18.595-185.152-41.522s83.785-73.192 186.385-73.192 185.163 13.075 185.163 73.192z" opacity=".1"/><path d="M1153.958 637.426c0 60.117-83.796 41.522-186.396 41.522-102.6 0-185.152 18.595-185.152-41.522s83.785-73.192 186.385-73.192 185.163 13.075 185.163 73.192z" fill="#3f3d56"/><path d="M803.667 449.091l-3.797 4.41s-46.167 4.334-44.294 11.829c1.874 7.494 55.586-9.993 55.586-9.993z" fill="#ffc1c7"/><path d="M887.358 445.344s-49.34 17.487-76.196 9.993l12.49 24.982s63.706-1.874 74.948-13.116c11.242-11.242-11.242-21.86-11.242-21.86z" fill="#9B8F00"/><path d="M887.358 445.344s-49.34 17.487-76.196 9.993l12.49 24.982s63.706-1.874 74.948-13.116c11.242-11.242-11.242-21.86-11.242-21.86z" opacity=".1"/><circle cx="853.944" cy="278.275" r="33.101" fill="#ffc1c7"/><path d="M882.169 309.352a25.82 25.82 0 004.288 5.944 54.144 54.144 0 0015.956 11.94 543.696 543.696 0 01-56.85 8.453c2.015-7.096-.637-14.686-4.202-21.144-3.565-6.459-8.11-12.478-10.34-19.51l22.373.602c4.06.11 8.133.23 12.191.032 3.034-.149 8.088-1.966 10.92-1.297 5.985 1.415 3.05 9.67 5.664 14.98z" fill="#ffc1c7"/><path d="M957.308 464.705l18.736 22.484s31.228 73.073-36.848 80.568c-68.077 7.495-118.666-5.621-118.666-5.621s-27.48-13.116-28.105-3.123c-.624 9.993-3.123 38.098-18.112 65.578l-13.116 29.98s-6.87 6.87-4.996 16.238c1.874 9.368-41.845 12.49-41.22 0 0 0 6.245-10.618 6.245-16.863 0-6.246 9.993-21.235 9.993-21.235l18.112-89.936s-1.25-46.217 41.22-37.474c42.47 8.744 103.052-1.873 103.052-1.873l13.74-48.091z" fill="#2f2e41"/><path d="M957.308 464.705l18.736 22.484s31.228 73.073-36.848 80.568c-68.077 7.495-118.666-5.621-118.666-5.621s-27.48-13.116-28.105-3.123c-.624 9.993-3.123 38.098-18.112 65.578l-13.116 29.98s-6.87 6.87-4.996 16.238c1.874 9.368-41.845 12.49-41.22 0 0 0 6.245-10.618 6.245-16.863 0-6.246 9.993-21.235 9.993-21.235l18.112-89.936s-1.25-46.217 41.22-37.474c42.47 8.744 103.052-1.873 103.052-1.873l13.74-48.091z" opacity=".1"/><path d="M887.045 463.06s57.147-21.463 89 24.13c0 0 8.119 70.574-24.358 73.697-32.477 3.123-74.947 2.498-84.94-8.12-9.993-10.617-73.073-40.596-73.073-40.596s-31.4-16.016-37.56 4.796c-6.159 20.811-6.783 25.808-6.783 25.808s-32.477 23.733-45.593 28.105c0 0-8.744 12.49-13.74 12.49-4.997 0-35.6 6.87-32.477-16.238l50.589-46.217 50.589-49.34s14.365-21.235 51.214-9.993a761.891 761.891 0 0074.322 18.113z" fill="#2f2e41"/><path d="M754.327 669.56s11.867 29.978 1.874 33.725c-9.993 3.748-31.228 1.25-31.228 1.25s-24.982-3.123-31.228-2.499c-6.245.625-31.852-4.372-28.105-14.364 3.748-9.993 23.109-7.495 23.109-7.495l17.487-8.12s1.874-6.245 6.246-3.747 16.863 11.867 41.845 1.25zM689.373 580.873s13.116 29.354-8.119 26.855c-21.235-2.498-37.473-6.87-43.719-7.494-6.007-.601-22.995-6.403-20.39-17.961a10.28 10.28 0 00.17-2.269c0-1.552 2.108-4.596 18.971-4.128 0 0 12.491 0 17.488-8.744 0 0 18.736 23.733 35.6 13.74z" fill="#cbceda"/><path d="M831.148 331.05s44.968-28.105 82.44 0c37.474 28.105 62.456 156.14 62.456 156.14l-86.813-19.362s-3.747-14.99-8.744-17.488c-4.996-2.498-5.62-13.115-5.62-13.115s-26.857-8.12-24.983-39.347c1.874-31.228-18.736-66.828-18.736-66.828z" fill="#9B8F00"/><path d="M854.256 332.3h-23.108s-13.74 15.613-15.614 54.96l-7.495 31.228s-15.614 37.473-6.246 43.719c9.369 6.245 27.48 5.62 31.228-6.87 3.748-12.491 29.354-84.94 29.354-84.94z" fill="#9B8F00"/><path d="M847.633 235.196a33.46 33.46 0 0134.612 5.675c11.995 10.704 14.415 28.167 17.447 43.955 3.032 15.787 9.132 33.369 24.012 39.455a62.56 62.56 0 01-20.159-.586l22.486 20.15-37.879-12.346c-11.888-3.875-24.373-7.798-36.684-5.61-20.394 3.626-34.592 22.798-54.18 29.533l2.176-10.622-13.142-.1a25.74 25.74 0 007.53-8.822 7.287 7.287 0 00-5.028-2.63c-5.478-34.171 14.813-67.95 41.257-90.274 5.201-4.39 10.956-8.609 17.674-9.707 6.718-1.098 14.56 1.906 16.896 8.3" fill="#2f2e41"/><path d="M274.555 548.36c0 71.89 45.1 130.061 100.834 130.061" fill="#3f3d56"/><path d="M375.389 678.421c0-72.697 50.328-131.522 112.524-131.522M311.09 554.877c0 68.287 28.758 123.544 64.299 123.544" fill="#9B8F00"/><path d="M375.389 678.421c0-92.89 58.171-168.056 130.06-168.056" fill="#3f3d56"/><path d="M354.176 679.338s14.3-.44 18.61-3.51c4.309-3.068 21.996-6.732 23.065-1.81 1.07 4.921 21.49 24.478 5.346 24.608-16.145.13-37.513-2.515-41.814-5.135-4.301-2.62-5.207-14.153-5.207-14.153z" fill="#a8a8a8"/><path d="M401.485 696.913c-16.144.13-37.513-2.515-41.814-5.135-3.276-1.996-4.58-9.155-5.018-12.459l-.477.019s.906 11.533 5.207 14.153c4.301 2.62 25.67 5.265 41.814 5.135 4.66-.038 6.27-1.696 6.182-4.152-.648 1.484-2.425 2.41-5.894 2.439z" opacity=".2"/></svg>