<?xml version="1.0" encoding="UTF-8" standalone="no"?>
<svg
   xmlns:dc="http://purl.org/dc/elements/1.1/"
   xmlns:cc="http://creativecommons.org/ns#"
   xmlns:rdf="http://www.w3.org/1999/02/22-rdf-syntax-ns#"
   xmlns:svg="http://www.w3.org/2000/svg"
   xmlns="http://www.w3.org/2000/svg"
   xmlns:sodipodi="http://sodipodi.sourceforge.net/DTD/sodipodi-0.dtd"
   xmlns:inkscape="http://www.inkscape.org/namespaces/inkscape"
   id="bd4103a6-87b0-4a08-8ab5-5811762a7009"
   data-name="Layer 1"
   width="1200"
   height="828.46979"
   viewBox="0 0 1200.0001 828.46979"
   version="1.1"
   sodipodi:docname="undraw_light_the_fire_gt58.svg"
   inkscape:version="0.92.4 (unknown)">
  <metadata
     id="metadata95">
    <rdf:RDF>
      <cc:Work
         rdf:about="">
        <dc:format>image/svg+xml</dc:format>
        <dc:type
           rdf:resource="http://purl.org/dc/dcmitype/StillImage" />
        <dc:title>light_the_fire</dc:title>
      </cc:Work>
    </rdf:RDF>
  </metadata>
  <defs
     id="defs93" />
  <sodipodi:namedview
     pagecolor="#ffffff"
     bordercolor="#666666"
     borderopacity="1"
     objecttolerance="10"
     gridtolerance="10"
     guidetolerance="10"
     inkscape:pageopacity="0"
     inkscape:pageshadow="2"
     inkscape:window-width="640"
     inkscape:window-height="480"
     id="namedview91"
     showgrid="false"
     fit-margin-top="0"
     fit-margin-left="0"
     fit-margin-right="0"
     fit-margin-bottom="0"
     inkscape:zoom="0.30412371"
     inkscape:cx="-121.9322"
     inkscape:cy="322.23733"
     inkscape:current-layer="bd4103a6-87b0-4a08-8ab5-5811762a7009" />
  <title
     id="title2">light_the_fire</title>
  <ellipse
     cx="600"
     cy="788.96802"
     rx="600"
     ry="39.501781"
     id="ellipse4"
     style="fill:#3f3d56;stroke-width:1.06761563" />
  <ellipse
     cx="570.10681"
     cy="230.60498"
     rx="61.921707"
     ry="56.583633"
     id="ellipse6"
     style="fill:#9B8F00;stroke-width:1.06761563" />
  <path
     d="m 679.53737,748.93239 c 0,0 -131.85053,52.84697 -225.2669,1.06761 l 0.86477,-14.94662 8.04982,-138.79003 7.6121,-131.31673 9.09609,-156.93951 h 175.08897 l 8.41281,156.93951 7.04626,131.31673 7.44128,138.79003 z"
     id="path8"
     inkscape:connector-curvature="0"
     style="fill:#3f3d56;stroke-width:1.06761563" />
  <path
     d="M 454.27047,308.00711"
     stroke-miterlimit="10"
     id="path10"
     inkscape:connector-curvature="0"
     style="fill:none;stroke:#2f2e41;stroke-width:1.06761563;stroke-miterlimit:10" />
  <path
     d="m 679.53737,748.93239 c 0,0 -121.17437,53.91459 -225.2669,1.06761 l 0.86477,-14.94662 h 222.74733 z"
     id="path12"
     inkscape:connector-curvature="0"
     style="fill:#9B8F00;stroke-width:1.06761563" />
  <polygon
     points="440.98,435.5 621.38,435.5 627.98,558.5 433.85,558.5 "
     id="polygon14"
     transform="matrix(1.0676157,0,0,1.0676157,0,-8.9199219e-6)"
     style="fill:#9B8F00" />
  <rect
     x="469.2171"
     y="290.92529"
     width="196.44128"
     height="21.352312"
     id="rect16"
     style="fill:#3f3d56;stroke-width:1.06761563" />
  <rect
     x="469.2171"
     y="219.395"
     width="196.44128"
     height="21.352312"
     id="rect18"
     style="fill:#3f3d56;stroke-width:1.06761563" />
  <rect
     x="486.29895"
     y="240.74733"
     width="11.743773"
     height="55.516014"
     id="rect20"
     style="fill:#3f3d56;stroke-width:1.06761563" />
  <rect
     x="517.25983"
     y="240.74733"
     width="11.743773"
     height="55.516014"
     id="rect22"
     style="fill:#3f3d56;stroke-width:1.06761563" />
  <rect
     x="548.22064"
     y="240.74733"
     width="11.743773"
     height="55.516014"
     id="rect24"
     style="fill:#3f3d56;stroke-width:1.06761563" />
  <rect
     x="579.18152"
     y="240.74733"
     width="11.743773"
     height="55.516014"
     id="rect26"
     style="fill:#3f3d56;stroke-width:1.06761563" />
  <rect
     x="610.1424"
     y="240.74733"
     width="11.743773"
     height="55.516014"
     id="rect28"
     style="fill:#3f3d56;stroke-width:1.06761563" />
  <rect
     x="517.25983"
     y="155.87189"
     width="11.743773"
     height="73.131676"
     id="rect30"
     style="fill:#3f3d56;stroke-width:1.06761563" />
  <rect
     x="548.22064"
     y="155.87189"
     width="11.743773"
     height="73.131676"
     id="rect32"
     style="fill:#3f3d56;stroke-width:1.06761563" />
  <rect
     x="579.18152"
     y="155.87189"
     width="11.743773"
     height="73.131676"
     id="rect34"
     style="fill:#3f3d56;stroke-width:1.06761563" />
  <rect
     x="610.1424"
     y="155.87189"
     width="11.743773"
     height="73.131676"
     id="rect36"
     style="fill:#3f3d56;stroke-width:1.06761563" />
  <rect
     x="641.10321"
     y="240.74733"
     width="11.743773"
     height="55.516014"
     id="rect38"
     style="fill:#3f3d56;stroke-width:1.06761563" />
  <rect
     x="486.83276"
     y="164.41281"
     width="11.743773"
     height="65.124557"
     id="rect40"
     style="fill:#3f3d56;stroke-width:1.06761563" />
  <rect
     x="641.63702"
     y="164.41281"
     width="11.743773"
     height="65.124557"
     id="rect42"
     style="fill:#3f3d56;stroke-width:1.06761563" />
  <polygon
     points="440,165.5 440,105.5 532,31 624,105.5 624,165.5 "
     id="polygon44"
     transform="matrix(1.0676157,0,0,1.0676157,0,-8.9199219e-6)"
     style="fill:#3f3d56" />
  <circle
     cx="570.10681"
     cy="229.53737"
     r="165.15494"
     id="circle46"
     style="opacity:0.3;fill:#9B8F00;stroke-width:1.06761563" />
  <circle
     cx="570.10681"
     cy="229.53737"
     r="229.53737"
     id="circle48"
     style="opacity:0.3;fill:#9B8F00;stroke-width:1.06761563" />
  <path
     d="m 54.884659,739.57418 c 6.483812,23.96801 28.6923,38.81202 28.6923,38.81202 0,0 11.696167,-24.01585 5.212367,-47.98389 -6.483802,-23.96803 -28.6923,-38.81202 -28.6923,-38.81202 0,0 -11.696168,24.01585 -5.212367,47.98389 z"
     id="path50"
     inkscape:connector-curvature="0"
     style="fill:#8985a8;stroke-width:1.06761563" />
  <path
     d="m 64.412157,734.42319 c 17.791645,17.31944 19.964766,43.94348 19.964766,43.94348 0,0 -26.67284,-1.45634 -44.464496,-18.7758 -17.791654,-17.31946 -19.964765,-43.94354 -19.964765,-43.94354 0,0 26.672841,1.45639 44.464495,18.77586 z"
     id="path52"
     inkscape:connector-curvature="0"
     style="fill:#3f3d56;stroke-width:1.06761563" />
  <path
     d="m 338.17511,705.06214 c -9.55851,35.334 -42.29857,57.21724 -42.29857,57.21724 0,0 -17.24265,-35.4045 -7.68414,-70.73851 9.55851,-35.334 42.29857,-57.21724 42.29857,-57.21724 0,0 17.24265,35.40449 7.68414,70.73851 z"
     id="path54"
     inkscape:connector-curvature="0"
     style="fill:#8985a8;stroke-width:1.06761563" />
  <path
     d="m 251.21932,705.06214 c 9.55852,35.334 42.29857,57.21724 42.29857,57.21724 0,0 17.24266,-35.4045 7.68415,-70.73851 -9.55852,-35.334 -42.29858,-57.21724 -42.29858,-57.21724 0,0 -17.24265,35.40449 -7.68414,70.73851 z"
     id="path56"
     inkscape:connector-curvature="0"
     style="fill:#8985a8;stroke-width:1.06761563" />
  <path
     d="m 265.26488,697.46848 c 26.22869,25.53258 29.43233,64.7821 29.43233,64.7821 0,0 -39.32147,-2.14698 -65.55016,-27.67955 -26.22869,-25.53258 -29.43234,-64.78206 -29.43234,-64.78206 0,0 39.32147,2.14698 65.55017,27.67951 z"
     id="path58"
     inkscape:connector-curvature="0"
     style="fill:#3f3d56;stroke-width:1.06761563" />
  <path
     d="m 324.12955,697.46848 c -26.22869,25.53259 -29.43234,64.7821 -29.43234,64.7821 0,0 39.32149,-2.14698 65.55017,-27.67955 26.22869,-25.53258 29.43234,-64.78206 29.43234,-64.78206 0,0 -39.32146,2.14698 -65.55017,27.67951 z"
     id="path60"
     inkscape:connector-curvature="0"
     style="fill:#3f3d56;stroke-width:1.06761563" />
  <path
     d="m 970.41781,390.71844 c -8.41746,-14.22291 -25.07074,-14.88576 -25.07074,-14.88576 0,0 -16.22766,-2.07519 -26.63761,19.58647 -9.70289,20.19046 -23.09413,39.68473 -2.15587,44.41117 l 3.78206,-11.77146 2.34219,12.64784 a 81.925304,81.925304 0 0 0 8.95871,0.1531 c 22.42319,-0.72395 43.77787,0.2118 43.09028,-7.83457 -0.914,-10.69652 3.79025,-28.62152 -4.30902,-42.30679 z"
     id="path62"
     inkscape:connector-curvature="0"
     style="fill:#2f2e41;stroke-width:1.06761563" />
  <circle
     cx="947.02423"
     cy="409.43198"
     r="21.734167"
     id="circle64"
     style="fill:#a0616a;stroke-width:1.06761563" />
  <path
     d="m 938.13292,423.59211 c 0,0 9.87916,23.05138 -3.29306,27.66166 l 13.17224,43.46834 22.39278,-1.31723 5.9275,-14.48945 -1.31722,-21.73416 -1.97585,-14.48944 c 0,0 -13.83083,3.29306 -12.5136,-21.07556 z"
     id="path66"
     inkscape:connector-curvature="0"
     style="fill:#a0616a;stroke-width:1.06761563" />
  <path
     d="m 932.86402,450.59516 c 0,0 -21.73416,-1.97583 -19.75836,13.83084 1.9758,15.80667 3.95167,19.09971 3.95167,19.09971 l 1.97584,23.71 -11.85501,7.24472 h -11.19635 c 0,0 -34.24778,7.90334 -17.12389,16.46529 17.1239,8.56194 23.05138,-6.58612 23.05138,-6.58612 0,0 31.61333,0 33.58917,-5.26891 1.97583,-5.26889 -2.63445,-68.49553 -2.63445,-68.49553 z"
     id="path68"
     inkscape:connector-curvature="0"
     style="fill:#a0616a;stroke-width:1.06761563" />
  <path
     d="m 975.01514,444.00905 c 0,0 20.41693,-7.24472 21.73416,8.56195 1.31722,15.80667 1.31721,17.12389 1.31721,17.12389 l 3.95169,22.39277 c 0,0 7.9033,19.75835 7.9033,25.68583 0,5.92748 5.9275,24.36861 5.9275,24.36861 0,0 7.9034,25.68583 -0.6586,25.02722 -8.5619,-0.65862 -9.8792,-27.66167 -9.8792,-27.66167 l -17.78246,-35.56499 -5.26888,-21.73417 z"
     id="path70"
     inkscape:connector-curvature="0"
     style="fill:#a0616a;stroke-width:1.06761563" />
  <path
     d="m 936.15708,447.96071 h -5.26888 l -0.65862,27.66167 c 0,0 -8.56194,11.85499 1.97584,22.39278 l 2.63444,17.12388 48.07861,-1.97583 3.29305,-17.78249 c 0,0 6.58612,-14.48945 -2.63444,-27.66167 l -8.56194,-27.00303 h -4.61029 c 0,0 10.67785,39.37052 -11.855,40.17527 -18.44111,0.65859 -22.39277,-32.93058 -22.39277,-32.93058 z"
     id="path72"
     inkscape:connector-curvature="0"
     style="fill:#d0cde1;stroke-width:1.06761563" />
  <path
     d="m 937.4743,511.84598 -3.95167,13.17225 c 0,0 -82.32638,231.83106 -57.29916,237.75856 25.02722,5.9275 59.93361,13.83084 63.22666,7.90334 3.29306,-5.9275 20.41695,-179.14221 20.41695,-179.14221 0,0 -2.63444,181.11805 5.92749,181.11805 8.56194,0 65.20253,1.31721 68.49553,-7.24472 3.2931,-8.56195 -29.6375,-237.75859 -48.73719,-243.02748 l -5.26889,-11.855 z"
     id="path74"
     inkscape:connector-curvature="0"
     style="fill:#2f2e41;stroke-width:1.06761563" />
  <path
     d="m 984.89429,505.25987 -52.03025,1.97584 c 0,0 -2.37465,17.7825 0,17.7825 0.65861,0 54.66472,4.61028 54.00611,-3.29305 -0.65861,-7.90334 -1.97586,-16.46529 -1.97586,-16.46529 z"
     id="path76"
     inkscape:connector-curvature="0"
     style="fill:#3f3d56;stroke-width:1.06761563" />
  <circle
     cx="947.38519"
     cy="375.90472"
     r="12.041231"
     id="circle78"
     style="fill:#2f2e41;stroke-width:1.06761563" />
  <path
     d="m 934.07652,372.73598 a 12.041701,12.041701 0 0 1 10.77374,-11.97353 12.041232,12.041232 0 1 0 0,23.94707 12.041638,12.041638 0 0 1 -10.77374,-11.97354 z"
     id="path80"
     inkscape:connector-curvature="0"
     style="fill:#2f2e41;stroke-width:1.06761563" />
  <polygon
     points="878.4,378.826 883.457,378.632 886.392,367.257 888.227,379.366 906.206,378.999 905.472,364.689 890.062,356.616 868.78,359.919 864.377,379.366 875.338,378.944 878.4,371.799 "
     id="polygon82"
     transform="matrix(1.0676157,0,0,1.0676157,0,-8.9199219e-6)"
     style="fill:#2f2e41" />
  <rect
     x="696.17847"
     y="696.66388"
     width="6.2660604"
     height="93.990974"
     transform="rotate(-16.83579)"
     id="rect84"
     style="fill:#3f3d56;stroke-width:1.06761563" />
  <path
     d="m 891.92647,443.64528 a 25.633901,25.633901 0 0 1 -49.0704,14.84867 c -4.10035,-13.55042 9.2852,-57.82099 9.2852,-57.82099 0,0 35.68485,29.42191 39.7852,42.97232 z"
     id="path86"
     inkscape:connector-curvature="0"
     style="fill:#9B8F00;stroke-width:1.06761563" />
  <path
     d="m 884.45039,451.33851 a 17.450867,17.450867 0 1 1 -33.4058,10.10858 c -2.7914,-9.22475 6.32112,-39.36298 6.32112,-39.36298 0,0 24.29329,20.02965 27.08468,29.2544 z"
     id="path88"
     inkscape:connector-curvature="0"
     style="opacity:0.1;stroke-width:1.06761563" />
</svg>
