<?xml version="1.0" encoding="UTF-8"?>
<svg width="1200" height="900" data-name="Layer 1" version="1.1" viewBox="0 0 1200 900" xmlns="http://www.w3.org/2000/svg" xmlns:cc="http://creativecommons.org/ns#" xmlns:dc="http://purl.org/dc/elements/1.1/" xmlns:rdf="http://www.w3.org/1999/02/22-rdf-syntax-ns#">
 <metadata>
  <rdf:RDF>
   <cc:Work rdf:about="">
    <dc:format>image/svg+xml</dc:format>
    <dc:type rdf:resource="http://purl.org/dc/dcmitype/StillImage"/>
    <dc:title>hire</dc:title>
   </cc:Work>
  </rdf:RDF>
 </metadata>
 <title>hire</title>
 <ellipse cx="763.16" cy="851.41" rx="436.84" ry="48.589" fill="#3f3d56" stroke-width="1.2486"/>
 <rect transform="scale(-1)" x="-1023.8" y="-397.01" width="474.16" height="397.01" fill="#3f3d56" opacity=".3" stroke-width="1.2486"/>
 <g fill="#f2f2f2" stroke-width="1.2486">
  <rect x="853.13" y="36.375" width="140.4" height="189.15"/>
  <rect transform="scale(-1)" x="-766.54" y="-47.808" width="135.35" height="11.432"/>
  <rect transform="scale(-1)" x="-901.05" y="-266.06" width="47.92" height="11.432"/>
  <rect transform="scale(-1)" x="-991.85" y="-286.85" width="137.03" height="11.432"/>
  <rect transform="scale(-1)" x="-798.49" y="-89.38" width="195.04" height="11.432"/>
  <rect transform="scale(-1)" x="-798.49" y="-121.6" width="195.04" height="11.432"/>
  <rect transform="scale(-1)" x="-798.49" y="-153.82" width="195.04" height="11.432"/>
  <rect transform="scale(-1)" x="-798.49" y="-186.03" width="195.04" height="11.432"/>
  <rect transform="scale(-1)" x="-798.49" y="-218.25" width="195.04" height="11.432"/>
  <rect transform="scale(-1)" x="-798.49" y="-250.47" width="195.04" height="11.432"/>
  <rect transform="scale(-1)" x="-798.49" y="-282.69" width="195.04" height="11.432"/>
 </g>
 <g stroke-width="1.2486">
  <path d="m874.22 144.39a24.835 30.702 0 0 1 6.7984-4.2147 173.35 214.3 0 0 1 47.9-12.89c14.243-1.2486 29.68 0.2344 40.804 11.3a14.03 17.345 0 0 1 4.1391 5.9613c1.3996 3.7336 0.97544 8.0735 0.52232 12.15a11.106 13.729 0 0 1-0.95306 4.574c-1.497 3.5236-5.1827 4.7579-8.3839 4.3354-3.2013-0.42251-6.2052-2.097-9.3629-2.8733a41.852 51.739 0 0 0-5.9135-0.74449l-19.804-1.3254c-12.315-0.82419-24.792-1.6347-36.872 1.4378a36.728 45.404 0 0 0-10.653 4.5381c-2.7591 1.915-4.617 4.6629-7.1771 1.1258-4.4977-6.2141-6.9873-17.635-1.0456-23.375z" fill="#2f2e41"/>
  <path d="m904.91 155.21s26.637-14.761 36.741 2.271c10.104 17.032-5.5111 10.219-5.5111 10.219l-17.452 6.813-19.289-4.542z" fill="#f2f2f2"/>
  <path d="m906.28 144.42s3.6741 21.574 0.91852 27.252c-2.7556 5.6775 15.615 13.626 15.615 13.626l17.452-9.084s-4.5926-35.2 0-42.013z" fill="#ffb9b9"/>
  <path d="m906.28 144.42s3.6741 21.574 0.91852 27.252c-2.7556 5.6775 15.615 13.626 15.615 13.626l17.452-9.084s-4.5926-35.2 0-42.013z" opacity=".1"/>
  <path d="m948.54 122.85a27.578 34.093 0 0 1-27.556 34.065 26.893 33.245 0 0 1-4.8957-0.54502 27.555 34.064 0 1 1 32.451-33.52z" fill="#ffb9b9"/>
  <path d="m965.17 226.57h-87.879l1.9925-10.694 8.6256-46.467 9.9708-8.3248 9e-3 -0.0116 4.6828-3.9182 2.3288-1.9435s1.3786 0.77947 2.9676 1.8396c0.46232 0.32208 0.9332 0.65476 1.404 1.0081 9e-3 -0.0116 9e-3 0 9e-3 0a16.449 20.335 0 0 1 2.169 1.8604c0.12612 0.14553 0.23543 0.27024 0.34475 0.40539 1.7486 2.1617 6.8517 13.636 15.292 7.7635a12.856 15.893 0 0 0 1.2358-0.95607 61.158 75.604 0 0 0 6.28-6.1631c1.774-2.0059 2.9257-3.5544 3.8673-4.625a6.1065 7.549 0 0 1 1.4292-1.3095 2.7171 3.359 0 0 1 1.2863-0.38441c2.7575 0 6.4314 6.8073 6.4314 6.8073l0.1093 0.39494 9e-3 0.0311 11.593 43.027z" fill="#f2f2f2"/>
  <path d="m877.29 226.57h26.634a64.82 80.132 0 0 0-0.4792-11.391c-0.81549-7.5973-2.8164-14.914-4.0774-22.418a76.289 94.31 0 0 1-1.6057-19.996c9e-3 -0.92498 0.0252-1.8604 0.0924-2.7957a10.354 12.8 0 0 1 1.4544-6.0695c0.63054-1.1952 1.4964-2.2137 2.169-3.3569a6.2308 7.7027 0 0 0 0.61372-1.1952v-0.0116a5.5883 6.9084 0 0 0 0.22699-0.63396 4.1511 5.1316 0 0 0 0.25221-1.5486c0.15132-3.4297-2.3624-6.7346-5.0779-8.1481a18.985 23.469 0 0 0-11.896-0.59234 56.623 69.999 0 0 0-11.181 5.6538c-1.2022 0.7275-2.396 1.4758-3.5478 2.3073a17.612 21.773 0 0 0-3.758 3.5336c-2.8584 3.6479-4.111 8.7301-5.1199 13.646a23.337 28.85 0 0 0-0.96681 11.64c9e-3 0.12472 0.0336 0.25983 0.0504 0.38455 1.0004 6.4748 5.2712 11.339 7.5495 17.304 2.6398 6.9217 2.4633 14.987 1.4124 22.532-0.0504 0.38455-0.10929 0.76909-0.16813 1.1536h7.4234z" fill="#2f2e41"/>
  <path d="m985.71 184.98a208.14 257.31 0 0 0-7.2551 41.582h-37.966q-1.488-5.0198-2.9676-10.05a60.951 75.349 0 0 1-2.0261-7.7323 29.935 37.006 0 0 1-0.84912-9.3122c0-0.74826 0.0252-1.5069 0.0757-2.2552a0.025615 0.031666 0 0 0 0-0.0415 30.083 37.19 0 0 1 2.1941-11.505 34.714 42.914 0 0 1 1.9337-4.8534c1.7656-3.9494 3.9009-7.67 5.8009-11.536a42.829 52.946 0 0 0 3.0854-7.3998 0.030904 0.038205 0 0 1 9e-3 -0.0311 21.485 26.561 0 0 0 1.7402-10.341c-0.0588-4.5833-6.3304-12.576 0.48753-11.807 9.3067 1.0393 17.302 7.6598 24.591 15.205 1.9422 2.0162 3.8421 4.1052 5.7 6.163 2.8753 3.2011 5.9103 6.693 6.7761 11.359a9.7969 12.111 0 0 1 0.24381 2.2657 25.16 31.104 0 0 1-1.5722 10.289z" fill="#2f2e41"/>
  <path d="m928.81 172.45a20.529 25.378 0 0 0-4.3106-8.5921 15.992 19.77 0 0 0-6.5846-4.1239 36.009 44.515 0 0 0-9.6594-1.7114c-3.89-0.0301-8.4005 1.26-10.052 5.6139-1.3118 3.4574-0.29484 7.5515 1.0259 11.004a8.7272 10.789 0 0 0 2.723 4.5474c1.6775 1.4012 3.8471 1.3568 5.8358 1.8261a26.917 33.275 0 0 1 8.6252 4.8318l18.516 13.836c-0.30837-0.23045-0.19876-10.152-0.5582-11.778-1.1579-5.2378-3.7646-10.494-5.5609-15.454z" fill="#ffb9b9"/>
 </g>
 <g fill="#2f2e41" stroke-width="1.2486">
  <path d="m947.84 105.1a6.9943 8.6466 0 0 0-3.0336-4.895 16.052 19.844 0 0 0-0.6405-6.4599c-1.6688-6.0988-5.622-5.7492-9.3519-8.4456-1.6183-1.1699-1.5183-2.2039-2.3608-4.1253a12.385 15.311 0 0 0-4.7723-6.0194c-2.393-1.8848-4.919-3.8259-7.75-4.0645-5.9492-0.50129-10.511 6.4162-16.197 8.6363-2.5063 0.97853-5.1994 1.0189-7.719 1.9439-2.5196 0.92509-5.0332 3.134-5.4088 6.3498-0.17334 1.4847 0.13251 3.0077-0.0433 4.492-0.34955 2.95-2.4431 5.016-3.8446 7.4424-3.0992 5.3656-2.7447 12.946-0.26629 18.784a21.358 26.403 0 0 0 1.7872 3.4573 17.203 21.267 0 0 0 1.8869 7.8977c2.4784 5.838 6.7433 10.2 11.198 13.825a26.432 32.676 0 0 1-0.6608-5.8952 3.2896 4.0667 0 0 1 0.20277-1.9533c0.49616-1.2821 1.8072-1.6231 2.8067-2.3253 2.0704-1.4544 2.8823-4.6732 2.9421-7.6161 0.0599-2.9429-0.44462-5.8907-0.19521-8.8182a3.8977 4.8184 0 0 1 1.3343-3.5444 4.6087 5.6974 0 0 1 2.5156-0.74143c4.242-0.21395 8.6742-0.31028 12.416-2.7902a18.4 22.747 0 0 1 3.8645-2.4167c3.1799-1.0251 6.4298 1.7301 8.2624 5.1022 1.8326 3.3721 2.7463 7.3849 4.4372 10.868 1.6908 3.4835 4.6119 6.59 7.8811 6.1772a1.3083 1.6173 0 0 0 0.97632-0.53669 1.4635 1.8092 0 0 0 0.17983-1.0283l0.18267-15.448a18.888 23.35 0 0 0-0.6301-7.8521z"/>
  <path d="m875.17 208.27q0.8953 9.1198 1.0846 18.302h-23.119v-24.018c0.11771-0.58207 0.24378-1.1536 0.3951-1.7253 1.446-5.5083 4.481-10.123 7.1123-14.914 0.12623-0.23914 0.26067-0.47816 0.38679-0.71717a31.564 39.02 0 0 0 2.8752-6.4124c0.37828-1.1017 0.98356-6.4333 1.6225-6.8906 2.7407-1.9643 4.9686 6.4332 5.3469 8.304 1.3451 6.662 2.5138 13.386 3.3965 20.173q0.51704 3.9442 0.89948 7.8986z"/>
  <path d="m992 226.57h-53.074c-0.45401-1.3199-0.8996-2.6398-1.3704-3.9494a93.4 115.46 0 0 0-12.728-25.806 5.523 6.8276 0 0 1-1.5722-3.8559 2.64 3.2636 0 0 1 0.34481-1.7356c0.80705-1.8604 2.9425-2.9517 4.6743-3.835a16.107 19.912 0 0 0 4.8591-3.7832 10.42 12.881 0 0 0 2.808-5.1237 9.0948 11.243 0 0 0 0.35303-1.7668c0.24384 0.39481 0.4961 0.80027 0.73993 1.1951 0.59687 0.97699 1.2022 1.9436 1.8159 2.9101 5.8849 9.3433 12.35 18.551 20.48 24.091a34.455 42.594 0 0 0 6.692 3.5234 1.7562 2.171 0 0 0 1.4122 0 1.7092 2.1129 0 0 0 0.6137-1.3928c0.7231-3.7414 0.97525-7.5973 1.5049-11.391a52.483 64.881 0 0 1 5.5404-19.726c1.5048-3.4609 6.3976-16.109 9.4999-8.1378q1.3367 3.4452 2.6904 6.9114c0.56318 1.4654 1.1348 2.9204 1.7065 4.3859a22.064 27.276 0 0 1 2.7659 15.278q0.12618 16.119 0.24382 32.208z"/>
 </g>
 <g stroke-width="1.2486">
  <path d="m877.29 226.57h4.5987l-2.6062-10.694-3.7579-15.413a40.669 50.276 0 0 1-0.3615 7.8051 42.039 51.97 0 0 1-3.6655 15.423c-0.3615 0.94576-0.74823 1.9019-1.0593 2.8788z" opacity=".1"/>
  <path d="m970.97 193.7c-0.64755 2.1528-0.0597 4.5335 0.43956 6.7459a54.982 67.97 0 0 1 2.0039 19.722 0.58067 0.71784 0 0 1-0.67911 0.86042c-2.1201 0.16054-4.5473 0.17752-5.9857-1.7546z" opacity=".1"/>
  <rect y="4.0863" width="474.16" height="397.01" fill="#3f3d56" opacity=".3"/>
 </g>
 <g fill="#f2f2f2" stroke-width="1.2486">
  <rect x="30.265" y="40.462" width="140.4" height="189.15"/>
  <rect x="257.26" y="40.462" width="135.35" height="11.432"/>
  <rect x="31.947" y="258.71" width="47.92" height="11.432"/>
  <rect x="31.947" y="279.5" width="137.03" height="11.432"/>
  <rect x="225.31" y="82.034" width="195.04" height="11.432"/>
  <rect x="225.31" y="114.25" width="195.04" height="11.432"/>
  <rect x="225.31" y="146.47" width="195.04" height="11.432"/>
  <rect x="225.31" y="178.69" width="195.04" height="11.432"/>
  <rect x="225.31" y="210.91" width="195.04" height="11.432"/>
  <rect x="225.31" y="243.13" width="195.04" height="11.432"/>
  <rect x="225.31" y="275.34" width="195.04" height="11.432"/>
 </g>
 <g stroke-width="1.2486">
  <path d="m166.85 230.65h-18.252q-2.106-6.9997-3.7412-14.176a22.908 28.32 0 0 0-5.9522-14.997 22.502 27.817 0 0 1-2.5642-4.3026 16.347 20.208 0 0 1-1.6141-12.253 25.745 31.827 0 0 1 0.47079-3.4714c0.79868-4.4377 2.1354-8.6988 3.2535-13.022a3.9955 4.9393 0 0 1 3.2619-3.3362 6.4704 7.9988 0 0 1 3.5646 0.50924 4.4272 5.473 0 0 1 0.71463 0.45736c1.9925 1.4863 3.0265 4.5209 3.8588 7.2959q5.7126 18.957 11.417 37.914 1.1097 3.6791 2.2195 7.379c1.0929 3.6167 2.1774 7.2335 3.1022 10.923 0.0924 0.36388 0.1765 0.71705 0.26061 1.0809z" fill="#d0cde1"/>
  <path d="m90.865 64.315c-4.538 1.8946-8.6492 6.3258-9.5785 12.134-0.43076 2.6926-0.16666 5.4917-0.52916 8.1996-0.84071 6.2803-4.8285 11.077-8.5066 15.532-3.6781 4.455-7.4764 9.6317-7.7448 15.989-0.29395 6.9611 3.7898 13.482 3.0831 20.398-0.82099 8.0345-7.6855 13.241-9.3825 21.063-1.1331 5.2231 0.2554 10.849 2.5398 15.461 4.3532 8.788 11.794 14.754 19.718 17.952 7.9241 3.1984 16.363 3.8712 24.699 3.9792 10.149 0.13148 21.169-0.94568 28.794-9.2264a23.068 28.517 0 0 0 7.658-18.565c0.72442-9.5919-2.514-19.503-0.28022-28.732 1.4058-5.8085 4.9313-11.113 4.4052-17.141-0.51442-5.8938-4.6783-10.071-7.535-14.833-2.6671-4.4455-4.2855-9.6955-5.8717-14.871l-5.4271-17.709c-1.0668-3.4814-2.2384-7.1428-4.616-9.4278-4.4511-4.2775-11.608-3.4371-16.813-2.5549-4.8284 0.81849-9.9695 0.41401-14.613 2.3526z" fill="#2f2e41"/>
  <path d="m95.063 122.68s0.53117 19.701-1.0624 21.671c-1.5936 1.9701 6.3745 15.104 6.3745 15.104l14.343-0.65664 7.4369-7.2236-6.3745-10.507s-2.656-17.074-0.53117-21.014c2.1249-3.9401-20.186 2.6267-20.186 2.6267z" fill="#a0616a"/>
  <path d="m95.063 122.68s0.53117 19.701-1.0624 21.671c-1.5936 1.9701 6.3745 15.104 6.3745 15.104l14.343-0.65664 7.4369-7.2236-6.3745-10.507s-2.656-17.074-0.53117-21.014c2.1249-3.9401-20.186 2.6267-20.186 2.6267z" opacity=".1"/>
  <ellipse cx="103.83" cy="106.59" rx="19.123" ry="23.641" fill="#a0616a"/>
  <path d="m113.63 230.65h15.503c0.58009-1.2991 1.1265-2.6502 1.7571-3.8766v-0.0116a8.5824 10.61 0 0 1 2.8248-3.6583 11.13 13.76 0 0 0 2.0933-1.5485 5.4001 6.6757 0 0 0 1.2779-2.9516 36.999 45.739 0 0 0 1.7487-12.742c0.0252-1.455 0-2.9308 0.0673-4.3858a14.915 18.439 0 0 1 0.35308-3.3777 21.517 26.599 0 0 1 2.2951-6.4228q3.1526-7.0932 6.3221-14.186a8.0209 9.9157 0 0 0 0.42876-4.1572 8.2893 10.247 0 0 0-1.3619-5.3316c-0.29422-0.65475-0.61372-1.3095-0.95004-1.9435a34.917 43.165 0 0 0-4.5062-7.1088 36.455 45.067 0 0 0-12.829-10.736 7.4453 9.2041 0 0 1-1.7234-1.0393 7.1532 8.843 0 0 1-1.5805-2.3384c-1.6814-3.1283-3.7327-6.6515-6.7677-6.454a4.1609 5.1438 0 0 0-3.2115-0.2702 4.3909 5.4281 0 0 0-0.47079 0.18707 29.878 36.936 0 0 0-3.3712 2.1721 15.649 19.346 0 0 1-9.0796 2.037 3.0753 3.8018 0 0 1-1.0593-0.33258 5.428 6.7102 0 0 1-0.97522-0.97694 5.6055 6.9297 0 0 0-5.5739-1.1016 5.0613 6.2569 0 0 0-2.2195 1.9331c-0.55487 0.86262-0.9416 1.9019-1.5553 2.7126-1.5889 2.0994-4.2119 2.1825-6.5323 2.1721a60.37 74.631 0 0 0-14.351 1.6317 27.28 33.725 0 0 0-11.299 6.7554l-0.0084 0.0116c-0.45398 0.47808-0.87433 0.96654-1.2947 1.4862a9.5967 11.864 0 0 0-2.2363 3.9493c-0.63898 2.037-0.55487 4.3339-1.135 6.4021-0.63898 2.3176-2.0597 4.2092-2.6314 6.5372-0.43716 1.7668-0.37832 3.7207-1.1013 5.3212 0.03362 0.0311 0.05885 0.0624 0.09247 0.0935 3.0601 3.3258 5.6748 7.6908 8.7433 10.985a17.645 21.814 0 0 1 4.4389 6.1319 8.1938 10.129 0 0 1 0.54647 1.6629 20.684 25.571 0 0 1 0.45398 6.0487c0.38672 9.7175 4.6491 18.531 9.4159 26.263 0.09248 0.15588 0.18496 0.31179 0.28583 0.45728z" fill="#d0cde1"/>
  <path d="m63.751 196.22q-1.0846 9.3069-2.1859 18.603a65.564 81.052 0 0 1-1.4964 9.8525c-0.43719 2.0058-1.0004 3.9702-1.3956 5.976h-21.892a20.974 25.928 0 0 1 0.21018-3.3569 44.894 55.5 0 0 1 2.7323-11.65q3.821-12.752 7.6336-25.525c1.0845-3.6272 2.0177-7.4206 3.2115-11.017 0.21018-0.66505 0.43713-1.3302 0.68098-1.9746 1.2694-3.4505 4.792-2.037 7.3982-1.5174a7.0253 8.6848 0 0 1 2.0681 0.72744 5.3363 6.5969 0 0 1 1.9421 2.2656c2.4717 4.5211 1.9336 10.497 1.2947 15.901q-0.10091 0.85752-0.20177 1.7149z" fill="#d0cde1"/>
  <path d="m130.89 226.78c0.0336 0.14538 0.39511 1.6939 0.99204 3.8766h-18.252c9.046-1.9228 17.26-3.887 17.26-3.887z" fill="#2f2e41"/>
  <ellipse cx="105.42" cy="92.798" rx="20.717" ry="13.791" fill="#2f2e41"/>
  <rect x="303.75" y="150.24" width="474.16" height="397.01" fill="#3f3d56"/>
  <ellipse cx="708.97" cy="512.96" rx="55.487" ry="7.2751" opacity=".1"/>
  <rect x="334.02" y="186.62" width="140.4" height="189.15" fill="#f2f2f2"/>
  <path d="m379.23 273.46a2.0608 2.5476 0 0 0 2.4156-1.2339c1.9419-3.7823-1.6333-8.6593-0.8592-13.036 0.62021-3.5061 3.843-5.5871 4.5019-9.0824 0.64027-3.3962-1.3326-7.2244 8.5e-4 -10.297 1.0447-2.4076 3.6543-3.0411 5.8378-2.6194 2.1835 0.42178 4.2561 1.6084 6.462 1.7747 2.9394 0.22153 5.7414-1.3781 8.6157-2.1707 2.8743-0.79259 6.3802-0.48227 8.071 2.4984 2.1711 3.8272-0.0313 9.1564 0.72472 13.737 0.60028 3.6369 3.0632 6.6483 3.1161 10.36 0.0188 1.3191-2.7863 0.25644-2.6372 1.5628 0.14909 1.3064-1.1767 0.15611-0.1169 9.1e-4a2.0991 2.595 0 0 0 1.5949-2.3451c0.12601-1.0881 1.7801-1.4507 1.761-2.5497-0.0447-2.5755 3.7218-0.83893 4.3421-3.2982a20.173 24.939 0 0 0-0.82442-17.398 28.186 34.844 0 0 1-2.4027-7.0753c-0.55333-3.4148 0.31731-7.0807-0.5953-10.376-1.2299-4.4403-5.2996-6.7039-9.0779-7.1636-3.7783-0.45967-7.6178 0.36317-11.375-0.31475-3.3654-0.6073-6.6235-2.4104-10.018-2.1491-4.0731 0.31347-7.6175 3.5578-10.441 7.2004-2.8234 3.6427-5.2185 7.8324-8.4251 10.953a16.524 20.427 0 0 0-2.7014 2.875c-1.6332 2.4604-1.7989 5.9654-1.3445 9.0982 0.45433 3.1328 1.4429 6.1212 1.8604 9.2619 0.39228 2.9514 0.27126 5.9669 0.44021 8.9507a12.726 15.733 0 0 0 2.1236 8.4489 6.4502 7.9739 0 0 0 5.0192 3.2416c0.67965 0.0194 1.2537-0.73561 1.9396-0.53873 0.85748 0.24611 1.2303 1.2527 1.9913 1.6841z" fill="#2f2e41"/>
  <path d="m348.35 376.81c0.61376-10.403 1.0761-18.177 1.0761-18.177l3.9681-12.929 12.737 31.106z" fill="#575a89"/>
  <path d="m348.35 376.81c0.61376-10.403 1.0761-18.177 1.0761-18.177l3.9681-12.929 12.737 31.106z" opacity=".1"/>
  <path d="m377.87 274.52s11.876 37.372 5.0384 44.49c-6.8379 7.1184 38.148-12.012 38.148-12.012l-1.0797-4.8939s-14.755-7.1184-7.5577-27.584c7.1978-20.466-34.549 0-34.549 0z" fill="#a0616a"/>
  <path d="m377.87 274.52s11.876 37.372 5.0384 44.49c-6.8379 7.1184 38.148-12.012 38.148-12.012l-1.0797-4.8939s-14.755-7.1184-7.5577-27.584c7.1978-20.466-34.549 0-34.549 0z" opacity=".1"/>
  <ellipse cx="394.79" cy="258.5" rx="25.192" ry="31.143" fill="#a0616a"/>
  <path d="m455.96 325.68s-0.10088 2.4735-0.27744 6.797c-0.3615 8.8029-1.0088 25.297-1.6562 44.326h-97.656a48.419 59.856 0 0 1-6.2128-13.75 12.003 14.838 0 0 1-0.73141-4.4274c-0.53806-11.796 8.0119-28.259 14.048-29.828 6.8349-1.7876 19.79-18.687 19.79-18.687a3.0825 3.8106 0 0 0 1.6478 3.0764v0.0116a6.6977 8.2798 0 0 0 3.388 0.91457c4.2204 0 22.783-10.59 28.744-14.051 1.1686-0.6755 1.8496-1.0808 1.8496-1.0808a139.7 172.7 0 0 0 21.236 8.9068 22.586 27.921 0 0 1 15.831 17.793z" fill="#575a89"/>
  <path d="m374.91 270.35a2.0608 2.5476 0 0 0 2.4156-1.2339c1.9418-3.7823-1.6333-8.6593-0.85919-13.036 0.62019-3.5061 3.843-5.5871 4.5019-9.0824 0.64027-3.3962-1.3326-7.2245 8.5e-4 -10.297 1.0447-2.4076 3.6543-3.0411 5.8378-2.6194 2.1835 0.42177 4.2561 1.6084 6.462 1.7746 2.9394 0.22154 5.7414-1.3781 8.6157-2.1707 2.8743-0.79258 6.3802-0.48228 8.071 2.4984 2.1711 3.8272-0.0313 9.1564 0.72472 13.737 0.60029 3.6369 7.4398 6.1897 8.06 3.7304a20.173 24.939 0 0 0-0.82443-17.398 28.187 34.845 0 0 1-2.4027-7.0753c-0.55333-3.4148 0.3173-7.0807-0.59531-10.376-1.2299-4.4403-5.2996-6.7039-9.0779-7.1636-3.7783-0.45969-7.6179 0.36318-11.375-0.31474-3.3654-0.6073-6.6235-2.4104-10.018-2.1491-4.073 0.31347-7.6175 3.5578-10.441 7.2004-2.8234 3.6427-5.2185 7.8324-8.4251 10.953a16.524 20.427 0 0 0-2.7014 2.875c-1.6332 2.4604-1.7989 5.9654-1.3445 9.0983 0.45434 3.1328 1.4429 6.1212 1.8604 9.2618 0.39228 2.9515 0.27127 5.9669 0.44021 8.9507a12.726 15.733 0 0 0 2.1236 8.4489 6.4502 7.9739 0 0 0 5.0192 3.2416c0.67964 0.0194 1.2537-0.73559 1.9396-0.53871 0.85749 0.2461 1.2303 1.2527 1.9914 1.6841z" fill="#2f2e41"/>
  <path d="m468.45 376.81h-28.5c-2.169-19.664-3.9598-40.221-3.9598-40.221l5.7589-3.1179 11.703-7.7843s0.85753 2.5151 2.2362 6.797c2.9425 9.1562 8.281 26.388 12.762 44.326z" opacity=".1"/>
  <path d="m470.96 376.81h-32.165c-4.7668-21.514-9.4663-44.898-9.4663-44.898l12.241-11.121 14.393 4.8951s8.4239 24.787 14.998 51.123z" fill="#575a89"/>
 </g>
 <g fill="#9b8f00" stroke-width="1.2486">
  <rect x="561.01" y="186.62" width="135.35" height="11.432"/>
  <rect x="335.7" y="404.87" width="47.92" height="11.432"/>
  <rect x="335.7" y="425.65" width="137.03" height="11.432"/>
 </g>
 <g fill="#f2f2f2" stroke-width="1.2486">
  <rect x="529.06" y="228.19" width="195.04" height="11.432"/>
  <rect x="529.06" y="260.41" width="195.04" height="11.432"/>
  <rect x="529.06" y="292.62" width="195.04" height="11.432"/>
  <rect x="529.06" y="324.84" width="195.04" height="11.432"/>
  <rect x="529.06" y="357.06" width="195.04" height="11.432"/>
  <rect x="529.06" y="389.28" width="195.04" height="11.432"/>
  <rect x="529.06" y="421.5" width="195.04" height="11.432"/>
 </g>
 <g stroke-width="1.2486">
  <path d="m761.7 423.04-53.317 65.912-22.409-27.703a7.6604 9.47 0 0 0-10.833-8e-5l-0.80504-1.4885c-2.9916 3.6983-2.1866 11.183 0.80503 14.881l29.076 35.944a5.845 7.2257 0 0 0 8.2639 3e-3l60.048-74.156c2.9935-3.6968 4.0794-10.476 1.0874-14.174-2.9908-3.6972-8.9246-2.9156-11.915 0.78168z" fill="#57b894"/>
  <path d="m761.7 423.04-53.317 65.912-22.409-27.703a7.6604 9.47 0 0 0-10.833-8e-5l-0.80504-1.4885c-2.9916 3.6983-2.1866 11.183 0.80503 14.881l29.076 35.944a5.845 7.2257 0 0 0 8.2639 3e-3l60.048-74.156c2.9935-3.6968 4.0794-10.476 1.0874-14.174-2.9908-3.6972-8.9246-2.9156-11.915 0.78168z" opacity=".1"/>
  <path d="m761.7 420.12-53.317 65.912-22.409-27.703a7.6604 9.47 0 0 0-10.833 0 7.6604 9.47 0 0 0 0 13.393l29.076 35.944a5.845 7.2257 0 0 0 8.2639 3e-3l60.048-74.156a7.6585 9.4676 0 0 0 3e-3 -13.393 7.6585 9.4676 0 0 0-10.831-2e-5z" fill="#57b894"/>
  <path d="m1154 801.88c0 74.318-83.796 51.331-186.4 51.331-102.6 0-185.15 22.987-185.15-51.331 0-74.318 83.785-90.482 186.38-90.482s185.16 16.164 185.16 90.482z" opacity=".1"/>
  <path d="m1154 788c0 74.318-83.796 51.331-186.4 51.331-102.6 0-185.15 22.987-185.15-51.331 0-74.318 83.785-90.482 186.38-90.482s185.16 16.164 185.16 90.482z" fill="#3f3d56"/>
  <path d="m803.67 555.18-3.7968 5.4503s-46.168 5.359-44.294 14.624c1.8737 9.265 55.585-12.353 55.585-12.353z" fill="#ffc1c7"/>
  <path d="m887.36 550.54s-49.34 21.619-76.196 12.353l12.491 30.884s63.705-2.3163 74.947-16.214c11.242-13.898-11.242-27.023-11.242-27.023z" fill="#9b8f00"/>
  <path d="m887.36 550.54s-49.34 21.619-76.196 12.353l12.491 30.884s63.705-2.3163 74.947-16.214c11.242-13.898-11.242-27.023-11.242-27.023z" opacity=".1"/>
  <ellipse cx="853.94" cy="344.01" rx="33.101" ry="40.921" fill="#ffc1c7"/>
  <path d="m882.17 382.43a25.82 31.92 0 0 0 4.2885 7.3486 54.144 66.934 0 0 0 15.956 14.76 543.7 672.13 0 0 1-56.85 10.451c2.0153-8.7725-0.63741-18.155-4.2022-26.139-3.5648-7.9839-8.1091-15.425-10.34-24.118l22.374 0.74348c4.0595 0.13488 8.1321 0.28523 12.191 0.0395 3.0335-0.18364 8.0874-2.4302 10.919-1.6028 5.9862 1.7493 3.0517 11.954 5.6649 18.517z" fill="#ffc1c7"/>
  <path d="m957.31 574.48 18.737 27.795s31.228 90.334-36.849 99.6c-68.077 9.2651-118.67-6.9488-118.67-6.9488s-27.48-16.214-28.105-3.8605c-0.62451 12.353-3.1228 47.098-18.112 81.069l-13.116 37.06s-6.8701 8.493-4.9964 20.074c1.8737 11.581-41.845 15.442-41.221 0 0 0 6.2456-13.126 6.2456-20.846 0-7.7209 9.9929-26.251 9.9929-26.251l18.112-111.18s-1.2491-57.135 41.221-46.325 103.05-2.3163 103.05-2.3163l13.74-59.451z" fill="#2f2e41"/>
  <path d="m957.31 574.48 18.737 27.795s31.228 90.334-36.849 99.6c-68.077 9.2651-118.67-6.9488-118.67-6.9488s-27.48-16.214-28.105-3.8605c-0.62451 12.353-3.1228 47.098-18.112 81.069l-13.116 37.06s-6.8701 8.493-4.9964 20.074c1.8737 11.581-41.845 15.442-41.221 0 0 0 6.2456-13.126 6.2456-20.846 0-7.7209 9.9929-26.251 9.9929-26.251l18.112-111.18s-1.2491-57.135 41.221-46.325 103.05-2.3163 103.05-2.3163l13.74-59.451z" opacity=".1"/>
  <path d="m887.05 572.45s57.147-26.534 88.999 29.829c0 0 8.1193 87.246-24.358 91.107-32.477 3.8604-74.947 3.0884-84.94-10.037-9.9929-13.126-73.073-50.186-73.073-50.186s-31.4-19.8-37.56 5.9279c-6.1593 25.728-6.7839 31.904-6.7839 31.904s-32.477 29.339-45.593 34.744c0 0-8.7438 15.442-13.74 15.442s-35.6 8.493-32.477-20.074l50.589-57.135 50.589-60.995s14.365-26.251 51.214-12.353a761.89 941.87 0 0 0 74.322 22.391z" fill="#2f2e41"/>
  <path d="m754.33 827.72s11.867 37.06 1.8737 41.693c-9.9929 4.6325-31.228 1.5442-31.228 1.5442s-24.982-3.8604-31.228-3.0884c-6.2456 0.77208-31.852-5.4046-28.105-17.758s23.109-9.2651 23.109-9.2651l17.488-10.037s1.8737-7.7209 6.2456-4.6326c4.3719 3.0883 16.863 14.67 41.845 1.5442z" fill="#cbceda"/>
  <path d="m689.37 718.09s13.116 36.288-8.1192 33.2c-21.235-3.0884-37.473-8.493-43.719-9.2651-6.0077-0.7427-22.995-7.915-20.389-22.204a10.281 12.709 0 0 0 0.16938-2.8045c0-1.9182 2.1078-5.6821 18.971-5.103 0 0 12.491 0 17.488-10.809 0 0 18.737 29.339 35.6 16.986z" fill="#cbceda"/>
  <path d="m831.15 409.25s44.968-34.744 82.441 0c37.473 34.744 62.456 193.02 62.456 193.02l-86.813-23.935s-3.7474-18.53-8.7438-21.619c-4.9964-3.0884-5.621-16.214-5.621-16.214s-26.856-10.037-24.982-48.642c1.8737-38.605-18.737-82.614-18.737-82.614z" fill="#9b8f00"/>
  <path d="m854.26 410.8h-23.109s-13.74 19.302-15.614 67.944l-7.4946 38.604s-15.614 46.325-6.2456 54.046 27.48 6.9488 31.228-8.493c3.7473-15.442 29.354-105 29.354-105z" fill="#9b8f00"/>
  <path d="m847.63 290.76a33.46 41.364 0 0 1 34.612 7.0152c11.995 13.233 14.415 34.82 17.447 54.337 3.0322 19.517 9.1321 41.252 24.012 48.776a62.56 77.338 0 0 1-20.158-0.72509l22.486 24.911-37.879-15.263c-11.888-4.7903-24.374-9.6407-36.684-6.9354-20.394 4.4817-34.593 28.183-54.181 36.509l2.1768-13.131-13.142-0.12446a25.74 31.82 0 0 0 7.5297-10.906 7.287 9.0084 0 0 0-5.0273-3.2517c-5.4782-42.242 14.813-84 41.256-111.6 5.2013-5.4284 10.957-10.642 17.674-12 6.7178-1.3578 14.56 2.3556 16.896 10.259" fill="#2f2e41"/>
  <path d="m274.56 677.9c0 88.871 45.099 160.78 100.83 160.78" fill="#3f3d56"/>
  <path d="m375.39 838.68c0-89.869 50.328-162.59 112.52-162.59" fill="#9b8f00"/>
  <path d="m311.09 685.95c0 84.418 28.759 152.73 64.3 152.73" fill="#9b8f00"/>
  <path d="m375.39 838.68c0-114.83 58.172-207.75 130.06-207.75" fill="#3f3d56"/>
  <path d="m354.18 839.81s14.3-0.54447 18.609-4.3382c4.3096-3.7937 21.997-8.3237 23.066-2.2394s21.49 30.261 5.3456 30.422c-16.144 0.16098-37.513-3.1088-41.814-6.3478-4.3013-3.239-5.207-17.496-5.207-17.496z" fill="#a8a8a8"/>
  <path d="m401.48 861.54c-16.144 0.16105-37.513-3.1088-41.814-6.3478-3.2757-2.4667-4.581-11.318-5.0178-15.401-0.30247 0.0161-0.47739 0.023-0.47739 0.023s0.90572 14.257 5.207 17.496c4.3014 3.239 25.669 6.5088 41.814 6.3478 4.6603-0.0464 6.27-2.0962 6.1816-5.132-0.64742 1.8341-2.4248 2.9794-5.8935 3.014z" opacity=".2"/>
 </g>
</svg>
