<?xml version="1.0" encoding="UTF-8" standalone="no"?>
<svg
   xmlns:dc="http://purl.org/dc/elements/1.1/"
   xmlns:cc="http://creativecommons.org/ns#"
   xmlns:rdf="http://www.w3.org/1999/02/22-rdf-syntax-ns#"
   xmlns:svg="http://www.w3.org/2000/svg"
   xmlns="http://www.w3.org/2000/svg"
   xmlns:sodipodi="http://sodipodi.sourceforge.net/DTD/sodipodi-0.dtd"
   xmlns:inkscape="http://www.inkscape.org/namespaces/inkscape"
   id="a7041ee8-d42c-4836-81ad-e3e5854f3a9a"
   data-name="Layer 1"
   width="1200"
   height="899.99994"
   viewBox="0 0 1200 899.99992"
   version="1.1"
   sodipodi:docname="undraw_options_2fvi.svg"
   inkscape:version="1.0.1 (3bc2e813f5, 2020-09-07)">
  <metadata
     id="metadata69">
    <rdf:RDF>
      <cc:Work
         rdf:about="">
        <dc:format>image/svg+xml</dc:format>
        <dc:type
           rdf:resource="http://purl.org/dc/dcmitype/StillImage" />
        <dc:title>options</dc:title>
      </cc:Work>
    </rdf:RDF>
  </metadata>
  <defs
     id="defs67" />
  <sodipodi:namedview
     pagecolor="#ffffff"
     bordercolor="#666666"
     borderopacity="1"
     objecttolerance="10"
     gridtolerance="10"
     guidetolerance="10"
     inkscape:pageopacity="0"
     inkscape:pageshadow="2"
     inkscape:window-width="1920"
     inkscape:window-height="1051"
     id="namedview65"
     showgrid="false"
     fit-margin-top="0"
     fit-margin-left="0"
     fit-margin-right="0"
     fit-margin-bottom="0"
     inkscape:zoom="0.30715153"
     inkscape:cx="305.40682"
     inkscape:cy="148.67258"
     inkscape:current-layer="a7041ee8-d42c-4836-81ad-e3e5854f3a9a"
     inkscape:document-rotation="0"
     inkscape:window-x="0"
     inkscape:window-y="0"
     inkscape:window-maximized="1" />
  <title
     id="title2">options</title>
  <path
     d="m 1175.0138,899.99996 q -68.0933,-12.69025 -130.9821,-21.81025 l 16.729,-35.14619 c -5.5834,-2.12935 -30.2356,17.98342 -30.2356,17.98342 l 22.1847,-102.04627 c -28.1405,3.68214 -42.87,107.88518 -42.87,107.88518 l -31.27788,-35.26512 15.0497,39.62796 C 865.28555,854.57087 754.42534,848.33377 661.15856,848.02339 L 675.477,817.9419 c -5.58342,-2.1293 -30.23561,17.98345 -30.23561,17.98345 L 667.42613,733.87911 C 639.2856,737.5612 624.5561,841.76425 624.5561,841.76425 l -31.27793,-35.26504 15.93996,41.97249 c -78.1967,1.63526 -141.98329,7.41053 -191.22603,14.01674 14.55026,-46.86897 63.5056,-91.41136 63.5056,-91.41136 -37.29646,12.07823 -56.91797,32.35901 -67.20506,51.27421 -0.54835,-57.88727 5.13301,-165.20634 44.62112,-283.98911 0,0 -77.7425,183.12874 -68.42599,306.11137 l 1.08497,21.83763 c -65.31,10.15712 -98.16759,20.75825 -98.16759,20.75825 z"
     id="path4"
     inkscape:connector-curvature="0"
     style="fill:#3f3d56;stroke-width:1.39871" />
  <path
     d="m 1130.6222,893.29839 c -0.3259,-0.51663 -8.0102,-12.9639 -10.6743,-38.81094 -2.4437,-23.71332 -0.8723,-63.68396 20.4958,-119.43968 40.4818,-105.62552 -9.3291,-190.85003 -9.8381,-191.69897 l 2.4574,-1.38302 c 0.129,0.21525 12.9821,21.94415 20.575,56.54412 a 254.28812,246.68338 0 0 1 -10.5315,137.49845 c -40.4123,105.44518 -10.3679,155.36212 -10.0601,155.85453 z"
     id="path6"
     inkscape:connector-curvature="0"
     style="fill:#3f3d56;stroke-width:1.39871" />
  <ellipse
     cx="1114.793"
     cy="519.23724"
     id="circle8"
     style="fill:#9b8f00;stroke-width:1.39871"
     rx="18.461538"
     ry="17.909426" />
  <ellipse
     cx="1173.0177"
     cy="585.36444"
     id="circle10"
     style="fill:#3f3d56;stroke-width:1.39871"
     rx="18.461538"
     ry="17.909426" />
  <ellipse
     cx="1133.2544"
     cy="629.44916"
     id="circle12"
     style="fill:#9b8f00;stroke-width:1.39871"
     rx="18.461538"
     ry="17.909426" />
  <ellipse
     cx="1181.5385"
     cy="666.64569"
     id="circle14"
     style="fill:#9b8f00;stroke-width:1.39871"
     rx="18.461538"
     ry="17.909426" />
  <ellipse
     cx="1119.0533"
     cy="724.50696"
     id="circle16"
     style="fill:#3f3d56;stroke-width:1.39871"
     rx="18.461538"
     ry="17.909426" />
  <path
     d="m 1141.7751,893.9576 c 0,0 -18.4614,-44.08474 36.923,-77.14829 z"
     id="path18"
     inkscape:connector-curvature="0"
     style="fill:#3f3d56;stroke-width:1.39871" />
  <path
     d="m 1119.0704,893.15792 c 0,0 -8.402,-46.88047 -73.4323,-46.47865 z"
     id="path20"
     inkscape:connector-curvature="0"
     style="fill:#3f3d56;stroke-width:1.39871" />
  <path
     d="m 751.72046,401.89098 c 3.21708,-0.11406 6.49085,-0.28389 9.72907,-0.50401 l 0.22826,3.15984 c -3.27482,0.22264 -6.58368,0.39402 -9.83733,0.50984 z"
     id="path22"
     inkscape:connector-curvature="0"
     style="fill:#e6e6e6;stroke-width:1.39871" />
  <path
     d="m 474.56449,19.641571 -3.02929,-1.180207 c 12.24676,-26.4848182 12.26242,-21.0490322 3.02929,1.180207 z m -9.81702,17.007784 3.10702,0.973344 c -2.01354,6.044201 -3.83597,12.233519 -5.41577,18.397116 l -3.16868,-0.764482 c 1.59705,-6.234504 3.43993,-12.494966 5.47743,-18.60593 z m 548.49413,-13.115011 -3.055,1.119352 c -12.06938,-26.4464983 -5.7778,-23.69212016 3.055,-1.119352 z m -558.10408,50.62475 3.21712,0.550343 c -1.13576,6.248104 -2.06014,12.612081 -2.74918,18.91511 l -3.24629,-0.334382 c 0.69665,-6.374875 1.63182,-12.810903 2.77835,-19.131071 z M 1019.6331,41.832773 c 1.9043,6.140655 3.6131,12.426379 5.0774,18.6815 l -3.1842,0.701773 c -1.4481,-6.184874 -3.1373,-12.399093 -5.0205,-18.469873 z m -568.69176,70.726187 3.26258,0.1178 c -0.24131,6.3284 -0.25977,12.75482 -0.0569,19.10187 l -3.26301,0.0978 c -0.20624,-6.41739 -0.18663,-12.91677 0.0574,-19.31744 z M 1028.4546,79.488775 c 1.0181,6.327276 1.8271,12.779644 2.4042,19.177988 l -3.2533,0.275422 c -0.5698,-6.327536 -1.3702,-12.707591 -2.3777,-18.964276 z M 455.42513,150.84556 c 0.64191,6.31952 1.51453,12.69082 2.59382,18.93642 l -3.21941,0.52431 c -1.09241,-6.31682 -1.97499,-12.75953 -2.6252,-19.14979 z m 6.51295,37.65715 c 1.52506,6.17729 3.28639,12.37265 5.238,18.41477 l -3.11537,0.94672 c -1.97413,-6.11037 -3.75652,-12.37641 -5.29791,-18.62468 z m 11.77244,36.43439 c 2.37934,5.90063 4.9996,11.7957 7.78976,17.52036 l -2.95165,1.35422 c -2.82215,-5.79067 -5.47282,-11.75273 -7.8778,-17.72054 z m 16.80986,34.48253 c 3.1968,5.53498 6.63029,11.02748 10.20314,16.32521 l -2.7324,1.73468 c -3.614,-5.35852 -7.08558,-10.91353 -10.31886,-16.5111 z m 21.53909,31.93772 c 3.95067,5.06274 8.1277,10.05117 12.41078,14.82624 l -2.4614,2.07908 c -4.33326,-4.82822 -8.55753,-9.87315 -12.55386,-14.99326 z m 25.84028,28.7986 c 4.61724,4.48872 9.45445,8.88109 14.37823,13.05597 l -2.14843,2.38492 c -4.97992,-4.22217 -9.87188,-8.66431 -14.54226,-13.20291 z m 29.64299,25.13139 c 5.21311,3.84352 10.62315,7.55894 16.08033,11.04165 l -1.79393,2.64613 c -5.51912,-3.52193 -10.99129,-7.27884 -16.26187,-11.16576 z m 32.89875,20.9951 c 5.70746,3.11995 11.59075,6.08531 17.48721,8.81255 l -1.40451,2.86001 c -5.96428,-2.75908 -11.91385,-5.75712 -17.6863,-8.91375 z m 35.56015,16.44106 c 6.09016,2.33342 12.33844,4.48787 18.57275,6.4053 l -0.98698,3.0192 c -6.30459,-1.939 -12.62503,-4.11878 -18.78576,-6.47771 z m 37.55967,11.55212 c 6.35401,1.49452 12.84246,2.79228 19.28697,3.85815 l -0.54798,3.12271 c -6.51892,-1.07784 -13.08197,-2.3907 -19.50753,-3.90206 z m 38.8029,6.41619 c 6.49942,0.63109 13.10995,1.05228 19.65009,1.25113 l -0.10367,3.16694 c -6.61383,-0.2016 -13.29986,-0.62776 -19.87173,-1.26556 z"
     id="path24"
     inkscape:connector-curvature="0"
     style="fill:#e6e6e6;fill-opacity:1;stroke:#e6e6e6;stroke-width:1.39871;stroke-miterlimit:4;stroke-dasharray:none;stroke-opacity:1"
     sodipodi:nodetypes="ccccccccccccccccccccccccccccccccccccccccccccccccccccccccccccccccccccccccccccccccccccccc" />
  <path
     d="m 1028.6697,118.48725 3.2644,-0.0576 c 0.06,3.19766 0.064,6.41227 0.013,9.55546 l -3.2639,-0.0495 c 0.05,-3.10743 0.045,-6.2864 -0.014,-9.44846 z"
     id="path26"
     inkscape:connector-curvature="0"
     style="fill:#e6e6e6;stroke-width:1.39871" />
  <polygon
     points="563.5,661.464 536.5,652.464 527.5,684.464 550.5,688.464 "
     id="polygon28"
     transform="matrix(1.4201183,0,0,1.3776483,-6.3171387e-7,-158.51665)"
     style="fill:#ffb8b8" />
  <polygon
     points="707.5,657.464 683.5,660.464 689.5,696.464 712.5,698.464 "
     id="polygon30"
     transform="matrix(1.4201183,0,0,1.3776483,-6.3171387e-7,-158.51665)"
     style="fill:#ffb8b8" />
  <ellipse
     cx="884.02362"
     cy="158.98222"
     id="circle32"
     style="fill:#ffb8b8;stroke-width:1.39871"
     rx="41.183434"
     ry="39.951797" />
  <path
     d="m 858.46153,183.77991 c 0,0 7.10061,42.7071 5.68049,46.84003 -1.42013,4.13296 44.73373,-6.1994 44.73373,-6.1994 0,0 2.13017,-44.77359 3.5503,-47.52887 z"
     id="path34"
     inkscape:connector-curvature="0"
     style="fill:#ffb8b8;stroke-width:1.39871" />
  <polygon
     points="639.5,345.464 649.5,340.464 655.5,407.464 639.5,405.464 "
     id="polygon36"
     transform="matrix(1.4201183,0,0,1.3776483,-6.3171387e-7,-158.51665)"
     style="fill:#ffb8b8" />
  <path
     d="m 920.72595,223.68351 a 11.788401,11.435858 0 0 0 -12.69728,-8.5959 c -17.13444,1.77717 -50.30672,5.58742 -52.40733,8.64411 -1.8362,2.67206 -14.95099,26.6506 -23.99305,43.26832 a 144.95715,140.62207 0 0 1 -14.81058,21.56455 c -5.24227,6.41743 -10.90054,18.68705 -3.79997,38.49075 11.36097,31.68591 12.78108,75.77065 12.78108,75.77065 l 89.46745,-19.28708 c 0,0 -7.10059,-38.57414 9.94083,-63.37181 13.43897,-19.55558 1.26598,-74.23826 -4.48115,-96.48359 z"
     id="path38"
     inkscape:connector-curvature="0"
     style="fill:#3f3d56;stroke-width:1.39871" />
  <path
     d="m 820.11834,386.29421 8.52071,67.50475 -73.84616,293.4391 c 0,0 56.80474,20.66472 56.80474,19.28707 0,-1.37764 85.20711,-206.64724 85.20711,-206.64724 l 69.5858,201.13665 61.06496,-5.51057 -61.06496,-254.86495 c 0,0 -0.71005,-72.32654 -44.02367,-110.21187 l -8.48158,-21.22556 c 0,0 -54.00363,-28.36977 -93.76695,17.09262 z"
     id="path40"
     inkscape:connector-curvature="0"
     style="fill:#2f2e41;stroke-width:1.39871" />
  <path
     d="m 1016.0947,789.94514 -51.12428,-8.26588 -2.84025,31.68591 -25.56212,13.7765 c 0,0 -39.76331,1.37762 -25.56213,30.30826 14.20118,28.9306 51.12425,22.04237 51.12425,22.04237 0,0 38.34313,20.66473 62.48513,12.39883 0,0 4.9705,-14.46531 2.8402,-19.28708 -2.3065,-5.22091 -9.9408,-44.08476 -9.9408,-44.08476 z"
     id="path42"
     inkscape:connector-curvature="0"
     style="fill:#2f2e41;stroke-width:1.39871" />
  <path
     d="m 795.97633,773.41338 -51.12426,-8.26589 -2.84024,31.6859 -25.56215,13.7765 c 0,0 -39.76329,1.37764 -25.5621,30.30826 14.20119,28.9306 51.12425,22.04237 51.12425,22.04237 0,0 38.34322,20.66472 62.48521,12.39884 0,0 4.97042,-10.33237 2.84025,-19.28709 -1.31662,-5.53472 -9.94084,-44.08474 -9.94084,-44.08474 z"
     id="path44"
     inkscape:connector-curvature="0"
     style="fill:#2f2e41;stroke-width:1.39871" />
  <path
     d="m 884.02368,220.9764 c 0,0 -36.49817,-4.3696 -38.84079,21.23522 -2.34264,25.60484 3.33782,112.39666 3.33782,112.39666 l -34.08283,117.10013 c 0,0 -46.86392,63.37181 -17.04143,57.86121 29.82249,-5.51059 38.3432,-53.72826 38.3432,-53.72826 l 42.60354,-100.56835 16.3646,-83.91172 a 137.59457,133.47966 0 0 0 0.21871,-49.4741 c -2.091,-10.78162 -5.47088,-20.32528 -10.90282,-20.91079 z"
     id="path46"
     inkscape:connector-curvature="0"
     style="fill:#ffb8b8;stroke-width:1.39871" />
  <path
     d="m 907.75988,100.14683 v 0 c -27.11681,0 -49.09936,29.55608 -49.09936,66.01525 v 46.32179 h 11.75916 l 6.80787,-17.16259 -1.702,17.16259 h 75.58327 l 6.18901,-15.60235 -1.54724,15.60235 h 8.50979 v -36.37086 c 0,-41.9549 -25.29614,-75.96618 -56.5005,-75.96618 z"
     id="path48"
     inkscape:connector-curvature="0"
     style="fill:#2f2e41;stroke-width:1.39871" />
  <path
     d="M 912.92166,110.41282 A 32.158763,31.197025 0 0 0 887.54742,97.851424 h -1.20385 c -23.21143,0 -42.02791,20.375526 -42.02791,45.510056 v 1e-4 h 7.77754 l 1.25604,-9.27471 1.84162,9.27471 h 46.12815 l 3.86466,-7.84657 -0.96617,7.84657 h 9.07471 q 6.35189,30.60169 -18.2532,61.20333 h 15.4585 l 7.72926,-15.69316 -1.93228,15.69316 h 29.46781 l 5.79692,-36.0944 c 8e-5,-27.03134 -16.1901,-49.95336 -38.63756,-58.05769 z"
     id="path50"
     inkscape:connector-curvature="0"
     style="fill:#2f2e41;stroke-width:1.39871" />
  <rect
     y="38.438"
     width="617.75153"
     height="45.462395"
     id="rect52"
     x="0"
     style="fill:#3f3d56;stroke-width:1.39871" />
  <rect
     y="154.16046"
     width="617.75153"
     height="45.462395"
     id="rect54"
     x="0"
     style="fill:#3f3d56;stroke-width:1.39871" />
  <rect
     y="269.88297"
     width="617.75153"
     height="45.462395"
     id="rect56"
     x="0"
     style="fill:#3f3d56;stroke-width:1.39871" />
  <ellipse
     cx="308.16568"
     cy="61.169197"
     id="circle58"
     style="fill:#9b8f00;stroke-width:1.39871"
     rx="46.863907"
     ry="45.462395" />
  <ellipse
     cx="72.426025"
     cy="176.89163"
     id="circle60"
     style="fill:#9b8f00;stroke-width:1.39871"
     rx="46.863907"
     ry="45.462395" />
  <ellipse
     cx="482.84024"
     cy="292.61411"
     id="circle62"
     style="fill:#9b8f00;stroke-width:1.39871"
     rx="46.863907"
     ry="45.462395" />
</svg>
