<svg width="1200" height="900" data-name="Layer 1" xmlns="http://www.w3.org/2000/svg"><g stroke-width="1.113"><ellipse cx="600" cy="857.09" rx="600" ry="42.912" fill="#3f3d56"/><ellipse cx="570.11" cy="250.52" rx="61.922" ry="61.469" fill="#9b8f00"/><path d="M679.54 813.6s-131.85 57.41-225.27 1.16l.865-16.237 8.05-150.77 7.612-142.65 9.096-170.49h175.09l8.413 170.49 7.046 142.65 7.441 150.77z" fill="#3f3d56"/><path d="M679.54 813.6s-121.17 58.57-225.27 1.16l.865-16.237h222.75z" fill="#9b8f00"/></g><path fill="#9b8f00" d="m463.178 647.748 7.612-142.655h192.595l7.046 142.655z"/><g fill="#3f3d56"><g stroke-width="1.113"><path d="M469.22 316.04h196.44v23.196H469.22zM469.22 238.34h196.44v23.196H469.22z"/><path d="M486.3 261.53h11.744v60.309H486.3zM517.26 261.53h11.744v60.309H517.26zM548.22 261.53h11.744v60.309H548.22zM579.18 261.53h11.744v60.309H579.18zM610.14 261.53h11.744v60.309H610.14zM517.26 169.33h11.744v79.446H517.26zM548.22 169.33h11.744v79.446H548.22zM579.18 169.33h11.744v79.446H579.18zM610.14 169.33h11.744v79.446H610.14zM641.1 261.53h11.744v60.309H641.1zM486.83 178.61h11.744v70.747H486.83zM641.64 178.61h11.744v70.747H641.64z"/></g><path d="M666.182 122.359v69.588H469.744v-69.588l98.22-86.405z"/></g><g stroke-width="1.113"><ellipse cx="570.11" cy="249.36" rx="165.15" ry="179.41" fill="#9b8f00" opacity=".3"/><ellipse cx="570.11" cy="249.36" rx="229.54" ry="249.36" fill="#9b8f00" opacity=".3"/><path d="M54.885 803.43c6.484 26.037 28.692 42.163 28.692 42.163s11.696-26.089 5.212-52.127c-6.483-26.037-28.692-42.163-28.692-42.163s-11.696 26.089-5.212 52.127z" fill="#8985a8"/><path d="M64.412 797.83c17.792 18.815 19.965 47.738 19.965 47.738s-26.673-1.582-44.464-20.397c-17.792-18.815-19.965-47.738-19.965-47.738s26.673 1.582 44.464 20.397z" fill="#3f3d56"/><path d="M338.18 765.94c-9.559 38.385-42.299 62.157-42.299 62.157s-17.243-38.461-7.684-76.846c9.558-38.385 42.299-62.157 42.299-62.157s17.243 38.461 7.684 76.846z" fill="#8985a8"/><path d="M251.22 765.94c9.559 38.385 42.299 62.157 42.299 62.157s17.243-38.461 7.684-76.846c-9.558-38.385-42.299-62.157-42.299-62.157s-17.243 38.461-7.684 76.846z" fill="#8985a8"/><path d="M265.26 757.69c26.229 27.737 29.432 70.375 29.432 70.375s-39.321-2.332-65.55-30.069-29.432-70.375-29.432-70.375 39.321 2.332 65.55 30.069zM324.13 757.69c-26.229 27.737-29.432 70.375-29.432 70.375s39.321-2.332 65.55-30.069 29.432-70.375 29.432-70.375-39.321 2.332-65.55 30.069z" fill="#3f3d56"/><path d="M970.42 424.45c-8.418-15.451-25.071-16.171-25.071-16.171s-16.228-2.254-26.638 21.278c-9.703 21.934-23.094 43.111-2.156 48.246l3.782-12.788 2.342 13.74a81.925 88.999 0 0 0 8.96.166c22.422-.786 43.777.23 43.09-8.51-.915-11.62 3.79-31.094-4.31-45.96z" fill="#2f2e41"/></g><g fill="#a0616a" stroke-width="1.113"><ellipse cx="947.02" cy="444.78" rx="21.734" ry="23.611"/><path d="M938.13 460.17s9.88 25.042-3.293 30.05l13.172 47.221 22.393-1.431 5.927-15.74-1.317-23.611-1.976-15.74s-13.83 3.577-12.514-22.895zM932.86 489.5s-21.734-2.146-19.758 15.025 3.952 20.749 3.952 20.749l1.975 25.757-11.855 7.87h-11.196s-34.248 8.586-17.124 17.887 23.051-7.155 23.051-7.155 31.613 0 33.59-5.723c1.975-5.724-2.635-74.41-2.635-74.41zM975.02 482.34s20.417-7.87 21.734 9.301c1.317 17.171 1.317 18.602 1.317 18.602l3.952 24.326s7.903 21.464 7.903 27.904 5.928 26.473 5.928 26.473 7.903 27.904-.659 27.188c-8.562-.715-9.88-30.05-9.88-30.05l-17.781-38.636-5.269-23.61z"/></g><g stroke-width="1.113"><path d="M936.16 486.64h-5.269l-.659 30.05s-8.561 12.879 1.976 24.326l2.635 18.602 48.079-2.146 3.293-19.318s6.586-15.74-2.635-30.05l-8.562-29.334h-4.61s10.678 42.77-11.855 43.644c-18.44.715-22.393-35.774-22.393-35.774z" fill="#d0cde1"/><path d="m937.47 556.04-3.952 14.31S851.192 822.2 876.22 828.64s59.934 15.025 63.227 8.586c3.293-6.44 20.417-194.61 20.417-194.61s-2.634 196.76 5.928 196.76 65.203 1.43 68.496-7.87c3.293-9.302-29.638-258.29-48.737-264.01l-5.27-12.88z" fill="#2f2e41"/><path d="m984.89 548.88-52.03 2.146s-2.375 19.318 0 19.318c.659 0 54.665 5.009 54.006-3.577s-1.976-17.887-1.976-17.887z" fill="#3f3d56"/></g><g fill="#2f2e41"><ellipse cx="947.39" cy="408.36" rx="12.041" ry="13.081"/><path d="M934.08 404.92a12.042 13.081 0 0 1 10.774-13.007 12.041 13.081 0 1 0 0 26.015 12.042 13.081 0 0 1-10.774-13.007z"/><path d="m948.274 439.993 19.196-.429-.79-16.597-16.452-9.36-22.718 3.828-4.698 22.558 11.701-.498 3.267-8.281v8.153l5.402-.232 3.128-13.187z"/></g><path fill="#3f3d56" d="m868.113 505.33 5.997-1.972 27.222 97.73-5.997 1.971z"/><path d="M891.93 481.95a25.634 27.847 0 0 1-49.07 16.131c-4.1-14.72 9.285-62.813 9.285-62.813s35.685 31.962 39.785 46.683z" fill="#9b8f00"/><path d="M884.45 490.31a17.451 18.958 0 1 1-33.406 10.981c-2.791-10.021 6.321-42.762 6.321-42.762s24.293 21.759 27.085 31.78z" opacity=".1"/></svg>