<?xml version="1.0" encoding="UTF-8"?>
<svg id="a7041ee8-d42c-4836-81ad-e3e5854f3a9a" width="1200" height="900" data-name="Layer 1" version="1.1" viewBox="0 0 1200 900" xmlns="http://www.w3.org/2000/svg" xmlns:cc="http://creativecommons.org/ns#" xmlns:dc="http://purl.org/dc/elements/1.1/" xmlns:rdf="http://www.w3.org/1999/02/22-rdf-syntax-ns#">
 <metadata>
  <rdf:RDF>
   <cc:Work rdf:about="">
    <dc:format>image/svg+xml</dc:format>
    <dc:type rdf:resource="http://purl.org/dc/dcmitype/StillImage"/>
    <dc:title>options</dc:title>
   </cc:Work>
  </rdf:RDF>
 </metadata>
 <title>options</title>
 <g stroke-width="1.3987">
  <path d="m1175 900q-68.093-12.69-130.98-21.81l16.729-35.146c-5.5834-2.1294-30.236 17.983-30.236 17.983l22.185-102.05c-28.14 3.6821-42.87 107.89-42.87 107.89l-31.278-35.265 15.05 39.628c-128.33-16.658-239.19-22.895-332.45-23.205l14.318-30.081c-5.5834-2.1293-30.236 17.983-30.236 17.983l22.185-102.05c-28.141 3.6821-42.87 107.89-42.87 107.89l-31.278-35.265 15.94 41.972c-78.197 1.6353-141.98 7.4105-191.23 14.017 14.55-46.869 63.506-91.411 63.506-91.411-37.296 12.078-56.918 32.359-67.205 51.274-0.54835-57.887 5.133-165.21 44.621-283.99 0 0-77.742 183.13-68.426 306.11l1.085 21.838c-65.31 10.157-98.168 20.758-98.168 20.758z" fill="#3f3d56"/>
  <path d="m1130.6 893.3c-0.3259-0.51663-8.0102-12.964-10.674-38.811-2.4437-23.713-0.8723-63.684 20.496-119.44 40.482-105.63-9.3291-190.85-9.8381-191.7l2.4574-1.383c0.129 0.21525 12.982 21.944 20.575 56.544a254.29 246.68 0 0 1-10.532 137.5c-40.412 105.45-10.368 155.36-10.06 155.85z" fill="#3f3d56"/>
  <ellipse cx="1114.8" cy="519.24" rx="18.462" ry="17.909" fill="#9b8f00"/>
  <ellipse cx="1173" cy="585.36" rx="18.462" ry="17.909" fill="#3f3d56"/>
  <ellipse cx="1133.3" cy="629.45" rx="18.462" ry="17.909" fill="#9b8f00"/>
  <ellipse cx="1181.5" cy="666.65" rx="18.462" ry="17.909" fill="#9b8f00"/>
 </g>
 <g fill="#3f3d56" stroke-width="1.3987">
  <ellipse cx="1119.1" cy="724.51" rx="18.462" ry="17.909"/>
  <path d="m1141.8 893.96s-18.461-44.085 36.923-77.148z"/>
  <path d="m1119.1 893.16s-8.402-46.88-73.432-46.479z"/>
 </g>
 <g fill="#e6e6e6" stroke-width="1.3987">
  <path d="m751.72 401.89c3.2171-0.11406 6.4908-0.28389 9.7291-0.50401l0.22826 3.1598c-3.2748 0.22264-6.5837 0.39402-9.8373 0.50984z"/>
  <path d="m474.56 19.642-3.0293-1.1802c12.247-26.485 12.262-21.049 3.0293 1.1802zm-9.817 17.008 3.107 0.97334c-2.0135 6.0442-3.836 12.234-5.4158 18.397l-3.1687-0.76448c1.597-6.2345 3.4399-12.495 5.4774-18.606zm548.49-13.115-3.055 1.1194c-12.069-26.446-5.7778-23.692 3.055-1.1194zm-558.1 50.625 3.2171 0.55034c-1.1358 6.2481-2.0601 12.612-2.7492 18.915l-3.2463-0.33438c0.69665-6.3749 1.6318-12.811 2.7784-19.131zm564.5-32.326c1.9043 6.1407 3.6131 12.426 5.0774 18.682l-3.1842 0.70177c-1.4481-6.1849-3.1373-12.399-5.0205-18.47zm-568.69 70.726 3.2626 0.1178c-0.24131 6.3284-0.25977 12.755-0.0569 19.102l-3.263 0.0978c-0.20624-6.4174-0.18663-12.917 0.0574-19.317zm577.51-33.07c1.0181 6.3273 1.8271 12.78 2.4042 19.178l-3.2533 0.27542c-0.5698-6.3275-1.3702-12.708-2.3777-18.964zm-573.03 71.357c0.64191 6.3195 1.5145 12.691 2.5938 18.936l-3.2194 0.52431c-1.0924-6.3168-1.975-12.76-2.6252-19.15zm6.513 37.657c1.5251 6.1773 3.2864 12.373 5.238 18.415l-3.1154 0.94672c-1.9741-6.1104-3.7565-12.376-5.2979-18.625zm11.772 36.434c2.3793 5.9006 4.9996 11.796 7.7898 17.52l-2.9516 1.3542c-2.8222-5.7907-5.4728-11.753-7.8778-17.721zm16.81 34.483c3.1968 5.535 6.6303 11.027 10.203 16.325l-2.7324 1.7347c-3.614-5.3585-7.0856-10.914-10.319-16.511zm21.539 31.938c3.9507 5.0627 8.1277 10.051 12.411 14.826l-2.4614 2.0791c-4.3333-4.8282-8.5575-9.8732-12.554-14.993zm25.84 28.799c4.6172 4.4887 9.4544 8.8811 14.378 13.056l-2.1484 2.3849c-4.9799-4.2222-9.8719-8.6643-14.542-13.203zm29.643 25.131c5.2131 3.8435 10.623 7.5589 16.08 11.042l-1.7939 2.6461c-5.5191-3.5219-10.991-7.2788-16.262-11.166zm32.899 20.995c5.7075 3.12 11.591 6.0853 17.487 8.8126l-1.4045 2.86c-5.9643-2.7591-11.914-5.7571-17.686-8.9138zm35.56 16.441c6.0902 2.3334 12.338 4.4879 18.573 6.4053l-0.98698 3.0192c-6.3046-1.939-12.625-4.1188-18.786-6.4777zm37.56 11.552c6.354 1.4945 12.842 2.7923 19.287 3.8582l-0.54798 3.1227c-6.5189-1.0778-13.082-2.3907-19.508-3.9021zm38.803 6.4162c6.4994 0.63109 13.11 1.0523 19.65 1.2511l-0.10367 3.1669c-6.6138-0.2016-13.3-0.62776-19.872-1.2656z" stroke="#e6e6e6"/>
  <path d="m1028.7 118.49 3.2644-0.0576c0.06 3.1977 0.064 6.4123 0.013 9.5555l-3.2639-0.0495c0.05-3.1074 0.045-6.2864-0.014-9.4485z"/>
 </g>
 <g fill="#ffb8b8">
  <polygon transform="matrix(1.4201 0 0 1.3776 -6.3171e-7 -158.52)" points="563.5 661.46 536.5 652.46 527.5 684.46 550.5 688.46"/>
  <polygon transform="matrix(1.4201 0 0 1.3776 -6.3171e-7 -158.52)" points="707.5 657.46 683.5 660.46 689.5 696.46 712.5 698.46"/>
  <ellipse cx="884.02" cy="158.98" rx="41.183" ry="39.952" stroke-width="1.3987"/>
  <path d="m858.46 183.78s7.1006 42.707 5.6805 46.84c-1.4201 4.133 44.734-6.1994 44.734-6.1994s2.1302-44.774 3.5503-47.529z" stroke-width="1.3987"/>
  <polygon transform="matrix(1.4201 0 0 1.3776 -6.3171e-7 -158.52)" points="639.5 345.46 649.5 340.46 655.5 407.46 639.5 405.46"/>
 </g>
 <path d="m920.73 223.68a11.788 11.436 0 0 0-12.697-8.5959c-17.134 1.7772-50.307 5.5874-52.407 8.6441-1.8362 2.6721-14.951 26.651-23.993 43.268a144.96 140.62 0 0 1-14.811 21.565c-5.2423 6.4174-10.901 18.687-3.8 38.491 11.361 31.686 12.781 75.771 12.781 75.771l89.467-19.287s-7.1006-38.574 9.9408-63.372c13.439-19.556 1.266-74.238-4.4812-96.484z" fill="#3f3d56" stroke-width="1.3987"/>
 <g fill="#2f2e41" stroke-width="1.3987">
  <path d="m820.12 386.29 8.5207 67.505-73.846 293.44s56.805 20.665 56.805 19.287c0-1.3776 85.207-206.65 85.207-206.65l69.586 201.14 61.065-5.5106-61.065-254.86s-0.71005-72.327-44.024-110.21l-8.4816-21.226s-54.004-28.37-93.767 17.093z"/>
  <path d="m1016.1 789.95-51.124-8.2659-2.8402 31.686-25.562 13.776s-39.763 1.3776-25.562 30.308c14.201 28.931 51.124 22.042 51.124 22.042s38.343 20.665 62.485 12.399c0 0 4.9705-14.465 2.8402-19.287-2.3065-5.2209-9.9408-44.085-9.9408-44.085z"/>
  <path d="m795.98 773.41-51.124-8.2659-2.8402 31.686-25.562 13.776s-39.763 1.3776-25.562 30.308c14.201 28.931 51.124 22.042 51.124 22.042s38.343 20.665 62.485 12.399c0 0 4.9704-10.332 2.8402-19.287-1.3166-5.5347-9.9408-44.085-9.9408-44.085z"/>
 </g>
 <g stroke-width="1.3987">
  <path d="m884.02 220.98s-36.498-4.3696-38.841 21.235c-2.3426 25.605 3.3378 112.4 3.3378 112.4l-34.083 117.1s-46.864 63.372-17.041 57.861c29.822-5.5106 38.343-53.728 38.343-53.728l42.604-100.57 16.365-83.912a137.59 133.48 0 0 0 0.21871-49.474c-2.091-10.782-5.4709-20.325-10.903-20.911z" fill="#ffb8b8"/>
  <path d="m907.76 100.15c-27.117 0-49.099 29.556-49.099 66.015v46.322h11.759l6.8079-17.163-1.702 17.163h75.583l6.189-15.602-1.5472 15.602h8.5098v-36.371c0-41.955-25.296-75.966-56.5-75.966z" fill="#2f2e41"/>
  <path d="m912.92 110.41a32.159 31.197 0 0 0-25.374-12.561h-1.2038c-23.211 0-42.028 20.376-42.028 45.51v1e-4h7.7775l1.256-9.2747 1.8416 9.2747h46.128l3.8647-7.8466-0.96617 7.8466h9.0747q6.3519 30.602-18.253 61.203h15.458l7.7293-15.693-1.9323 15.693h29.468l5.7969-36.094c8e-5 -27.031-16.19-49.953-38.638-58.058z" fill="#2f2e41"/>
 </g>
 <g fill="#3f3d56" stroke-width="1.3987">
  <rect y="38.438" width="617.75" height="45.462"/>
  <rect y="154.16" width="617.75" height="45.462"/>
  <rect y="269.88" width="617.75" height="45.462"/>
 </g>
 <g fill="#9b8f00" stroke-width="1.3987">
  <ellipse cx="308.17" cy="61.169" rx="46.864" ry="45.462"/>
  <ellipse cx="72.426" cy="176.89" rx="46.864" ry="45.462"/>
  <ellipse cx="482.84" cy="292.61" rx="46.864" ry="45.462"/>
 </g>
</svg>
