<svg width="1200" height="900" data-name="Layer 1" xmlns="http://www.w3.org/2000/svg"><g stroke-width="1.399"><path d="M1175 900q-68.093-12.69-130.98-21.81l16.729-35.146c-5.583-2.13-30.236 17.983-30.236 17.983l22.185-102.05c-28.14 3.682-42.87 107.89-42.87 107.89l-31.278-35.265 15.05 39.628c-128.33-16.658-239.19-22.895-332.45-23.205l14.318-30.081c-5.583-2.13-30.236 17.983-30.236 17.983l22.185-102.05c-28.141 3.682-42.87 107.89-42.87 107.89l-31.278-35.265 15.94 41.972c-78.197 1.635-141.98 7.41-191.23 14.017 14.55-46.869 63.506-91.411 63.506-91.411-37.296 12.078-56.918 32.359-67.205 51.274-.548-57.887 5.133-165.21 44.621-283.99 0 0-77.742 183.13-68.426 306.11l1.085 21.838c-65.31 10.157-98.168 20.758-98.168 20.758z" fill="#3f3d56"/><path d="M1130.6 893.3c-.326-.517-8.01-12.964-10.674-38.811-2.444-23.713-.872-63.684 20.496-119.44 40.482-105.63-9.33-190.85-9.838-191.7l2.457-1.383c.13.215 12.982 21.944 20.575 56.544a254.29 246.68 0 0 1-10.532 137.5c-40.412 105.45-10.368 155.36-10.06 155.85z" fill="#3f3d56"/><ellipse cx="1114.8" cy="519.24" rx="18.462" ry="17.909" fill="#9b8f00"/><ellipse cx="1173" cy="585.36" rx="18.462" ry="17.909" fill="#3f3d56"/><ellipse cx="1133.3" cy="629.45" rx="18.462" ry="17.909" fill="#9b8f00"/><ellipse cx="1181.5" cy="666.65" rx="18.462" ry="17.909" fill="#9b8f00"/></g><g fill="#3f3d56" stroke-width="1.399"><ellipse cx="1119.1" cy="724.51" rx="18.462" ry="17.909"/><path d="M1141.8 893.96s-18.461-44.085 36.923-77.148zM1119.1 893.16s-8.402-46.88-73.432-46.479z"/></g><g fill="#e6e6e6" stroke-width="1.399"><path d="M751.72 401.89c3.217-.114 6.49-.284 9.73-.504l.227 3.16c-3.274.222-6.583.394-9.837.51z"/><path d="m474.56 19.642-3.03-1.18c12.248-26.485 12.263-21.05 3.03 1.18zm-9.817 17.008 3.107.973a272.759 272.759 0 0 0-5.416 18.397l-3.168-.764a274.205 274.205 0 0 1 5.477-18.606zm548.49-13.115-3.055 1.12c-12.069-26.447-5.778-23.693 3.055-1.12zm-558.1 50.625 3.217.55a270.732 270.732 0 0 0-2.75 18.915l-3.245-.334a274.975 274.975 0 0 1 2.778-19.131zm564.5-32.326a274.76 274.76 0 0 1 5.077 18.682l-3.184.702a271.608 271.608 0 0 0-5.02-18.47zm-568.69 70.726 3.263.118a273.88 273.88 0 0 0-.057 19.102l-3.263.098a276.295 276.295 0 0 1 .057-19.317zm577.51-33.07a279.057 279.057 0 0 1 2.404 19.178l-3.253.275a274.82 274.82 0 0 0-2.378-18.964zm-573.03 71.357a274.67 274.67 0 0 0 2.594 18.936l-3.22.524a278.043 278.043 0 0 1-2.625-19.15zm6.513 37.657a273.274 273.274 0 0 0 5.238 18.415l-3.115.947a275.318 275.318 0 0 1-5.298-18.625zm11.772 36.434c2.38 5.9 5 11.796 7.79 17.52l-2.952 1.354a276.675 276.675 0 0 1-7.878-17.72zm16.81 34.483a278.084 278.084 0 0 0 10.203 16.325l-2.732 1.735a281.425 281.425 0 0 1-10.32-16.511zm21.539 31.938a283.485 283.485 0 0 0 12.411 14.826l-2.461 2.08a286.242 286.242 0 0 1-12.554-14.994zm25.84 28.799a286.943 286.943 0 0 0 14.378 13.056l-2.148 2.385a290.647 290.647 0 0 1-14.542-13.203zm29.643 25.131a291.537 291.537 0 0 0 16.08 11.042l-1.794 2.646a293.825 293.825 0 0 1-16.262-11.166zm32.899 20.995a293.57 293.57 0 0 0 17.487 8.813l-1.405 2.86a296.164 296.164 0 0 1-17.685-8.914zm35.56 16.441a292.177 292.177 0 0 0 18.573 6.405l-.987 3.02a296.686 296.686 0 0 1-18.786-6.478zm37.56 11.552a294.424 294.424 0 0 0 19.287 3.858l-.548 3.123a297.624 297.624 0 0 1-19.508-3.902zm38.803 6.416c6.5.631 13.11 1.053 19.65 1.251l-.104 3.167a301.82 301.82 0 0 1-19.872-1.265z" stroke="#e6e6e6"/><path d="m1028.7 118.49 3.264-.058c.06 3.198.064 6.413.013 9.556l-3.264-.05c.05-3.107.046-6.286-.013-9.448z"/></g><g fill="#ffb8b8"><path d="m800.226 752.707-38.342-12.398-12.781 44.083 32.662 5.51zM1004.72 747.197l-34.082 4.133 8.52 49.593 32.663 2.755z"/><ellipse cx="884.02" cy="158.98" rx="41.183" ry="39.952"/><path d="M858.46 183.78s7.1 42.707 5.68 46.84c-1.42 4.133 44.735-6.2 44.735-6.2s2.13-44.773 3.55-47.528zM908.154 317.386l14.2-6.888 8.522 92.299-22.722-2.755z"/></g><path d="M920.73 223.68a11.788 11.436 0 0 0-12.697-8.596c-17.134 1.777-50.307 5.588-52.407 8.644-1.836 2.672-14.951 26.651-23.993 43.268a144.96 140.62 0 0 1-14.811 21.565c-5.242 6.418-10.901 18.687-3.8 38.491 11.361 31.686 12.781 75.771 12.781 75.771l89.467-19.287s-7.1-38.574 9.94-63.372c13.44-19.556 1.267-74.238-4.48-96.484z" fill="#3f3d56"/><g fill="#2f2e41" stroke-width="1.399"><path d="m820.12 386.29 8.52 67.505-73.845 293.44S811.6 767.9 811.6 766.522c0-1.378 85.207-206.65 85.207-206.65l69.586 201.14 61.065-5.51-61.065-254.86s-.71-72.328-44.024-110.21l-8.482-21.227s-54.004-28.37-93.767 17.093zM1016.1 789.95l-51.124-8.266-2.84 31.686-25.562 13.776s-39.763 1.378-25.562 30.308c14.2 28.931 51.124 22.042 51.124 22.042s38.343 20.665 62.485 12.4c0 0 4.97-14.466 2.84-19.288-2.307-5.22-9.94-44.085-9.94-44.085zM795.98 773.41l-51.124-8.266-2.84 31.686-25.562 13.776s-39.763 1.378-25.562 30.308c14.2 28.931 51.124 22.042 51.124 22.042s38.343 20.665 62.485 12.4c0 0 4.97-10.333 2.84-19.288-1.317-5.535-9.94-44.085-9.94-44.085z"/></g><g stroke-width="1.399"><path d="M884.02 220.98s-36.498-4.37-38.841 21.235c-2.343 25.605 3.338 112.4 3.338 112.4l-34.083 117.1s-46.864 63.372-17.041 57.861c29.822-5.51 38.343-53.728 38.343-53.728l42.604-100.57 16.365-83.912a137.59 133.48 0 0 0 .219-49.474c-2.091-10.782-5.471-20.325-10.903-20.911z" fill="#ffb8b8"/><path d="M907.76 100.15c-27.117 0-49.099 29.556-49.099 66.015v46.322h11.759l6.808-17.163-1.702 17.163h75.583l6.189-15.602-1.547 15.602h8.51v-36.371c0-41.955-25.296-75.966-56.5-75.966z" fill="#2f2e41"/><path d="M912.92 110.41a32.159 31.197 0 0 0-25.374-12.561h-1.204c-23.21 0-42.028 20.376-42.028 45.51h7.778l1.256-9.275 1.841 9.275h46.128l3.865-7.847-.966 7.847h9.075q6.351 30.602-18.253 61.203h15.458l7.729-15.693-1.932 15.693h29.468l5.796-36.094c0-27.03-16.19-49.953-38.638-58.058z" fill="#2f2e41"/></g><g fill="#3f3d56" stroke-width="1.399"><path d="M0 38.438h617.75V83.9H0zM0 154.16h617.75v45.462H0zM0 269.88h617.75v45.462H0z"/></g><g fill="#9b8f00" stroke-width="1.399"><ellipse cx="308.17" cy="61.169" rx="46.864" ry="45.462"/><ellipse cx="72.426" cy="176.89" rx="46.864" ry="45.462"/><ellipse cx="482.84" cy="292.61" rx="46.864" ry="45.462"/></g></svg>