<svg width="1200" height="900" data-name="Layer 1" xmlns="http://www.w3.org/2000/svg"><ellipse cx="763.16" cy="851.41" rx="436.84" ry="48.589" fill="#3f3d56"/><path fill="#3f3d56" opacity=".3" d="M1023.8 397.01H549.64V0h474.16z"/><g fill="#f2f2f2" stroke-width="1.249"><path d="M853.13 36.375h140.4v189.15h-140.4zM766.54 47.808H631.19V36.376h135.35zM901.05 266.06h-47.92v-11.432h47.92zM991.85 286.85H854.82v-11.432h137.03zM798.49 89.38H603.45V77.948h195.04zM798.49 121.6H603.45v-11.432h195.04zM798.49 153.82H603.45v-11.432h195.04zM798.49 186.03H603.45v-11.432h195.04zM798.49 218.25H603.45v-11.432h195.04zM798.49 250.47H603.45v-11.432h195.04zM798.49 282.69H603.45v-11.432h195.04z"/></g><g stroke-width="1.249"><path d="M874.22 144.39a24.835 30.702 0 0 1 6.798-4.215 173.35 214.3 0 0 1 47.9-12.89c14.243-1.248 29.68.235 40.804 11.3a14.03 17.345 0 0 1 4.14 5.962c1.4 3.733.975 8.073.522 12.15a11.106 13.729 0 0 1-.953 4.574c-1.497 3.523-5.183 4.758-8.384 4.335-3.201-.423-6.205-2.097-9.363-2.873a41.852 51.739 0 0 0-5.914-.745l-19.804-1.325c-12.315-.824-24.792-1.635-36.872 1.438a36.728 45.404 0 0 0-10.653 4.538c-2.759 1.915-4.617 4.663-7.177 1.126-4.497-6.215-6.987-17.635-1.045-23.375z" fill="#2f2e41"/><path d="M904.91 155.21s26.637-14.761 36.741 2.271-5.511 10.219-5.511 10.219l-17.452 6.813-19.29-4.542z" fill="#f2f2f2"/><path d="M906.28 144.42s3.674 21.574.919 27.252c-2.756 5.678 15.615 13.626 15.615 13.626l17.452-9.084s-4.593-35.2 0-42.013z" fill="#ffb9b9"/><path d="M906.28 144.42s3.674 21.574.919 27.252c-2.756 5.678 15.615 13.626 15.615 13.626l17.452-9.084s-4.593-35.2 0-42.013z" opacity=".1"/><path d="M948.54 122.85a27.578 34.093 0 0 1-27.556 34.065 26.893 33.245 0 0 1-4.896-.545 27.555 34.064 0 1 1 32.451-33.52z" fill="#ffb9b9"/><path d="M965.17 226.57h-87.879l1.992-10.694 8.626-46.467 9.97-8.325.01-.011 4.683-3.919 2.328-1.943s1.38.78 2.968 1.84c.462.322.933.654 1.404 1.008.01-.012.01 0 .01 0a16.449 20.335 0 0 1 2.168 1.86c.126.146.236.27.345.405 1.748 2.162 6.852 13.636 15.292 7.764a12.856 15.893 0 0 0 1.236-.956 61.158 75.604 0 0 0 6.28-6.163c1.774-2.006 2.925-3.555 3.867-4.625a6.106 7.549 0 0 1 1.43-1.31 2.717 3.359 0 0 1 1.285-.384c2.758 0 6.432 6.807 6.432 6.807l.11.395.008.031 11.593 43.027z" fill="#f2f2f2"/><path d="M877.29 226.57h26.634a64.82 80.132 0 0 0-.48-11.391c-.815-7.597-2.816-14.914-4.077-22.418a76.289 94.31 0 0 1-1.605-19.996c.009-.925.025-1.86.092-2.796a10.354 12.8 0 0 1 1.454-6.07c.631-1.194 1.497-2.213 2.17-3.356a6.23 7.703 0 0 0 .613-1.195v-.012a5.588 6.908 0 0 0 .227-.634 4.151 5.132 0 0 0 .252-1.548c.152-3.43-2.362-6.735-5.077-8.149a18.985 23.469 0 0 0-11.896-.592 56.623 69.999 0 0 0-11.181 5.654c-1.203.727-2.396 1.476-3.548 2.307a17.612 21.773 0 0 0-3.758 3.534c-2.859 3.648-4.111 8.73-5.12 13.646a23.337 28.85 0 0 0-.967 11.64c.009.125.034.26.05.384 1 6.475 5.272 11.34 7.55 17.304 2.64 6.922 2.463 14.987 1.412 22.532-.05.385-.109.77-.168 1.154h7.424zM985.71 184.98a208.14 257.31 0 0 0-7.255 41.582h-37.966q-1.488-5.02-2.968-10.05a60.951 75.349 0 0 1-2.026-7.732 29.935 37.006 0 0 1-.849-9.313c0-.748.025-1.506.076-2.255a.026.032 0 0 0 0-.041 30.083 37.19 0 0 1 2.194-11.505 34.714 42.914 0 0 1 1.934-4.854c1.765-3.949 3.9-7.67 5.8-11.536a42.829 52.946 0 0 0 3.086-7.4.03.038 0 0 1 .009-.03 21.485 26.561 0 0 0 1.74-10.342c-.059-4.583-6.33-12.576.488-11.807 9.306 1.04 17.302 7.66 24.59 15.205 1.943 2.017 3.843 4.106 5.7 6.163 2.876 3.202 5.91 6.693 6.777 11.36a9.797 12.111 0 0 1 .244 2.265 25.16 31.104 0 0 1-1.573 10.29z" fill="#2f2e41"/><path d="M928.81 172.45a20.529 25.378 0 0 0-4.31-8.592 15.992 19.77 0 0 0-6.585-4.124 36.009 44.515 0 0 0-9.66-1.711c-3.89-.03-8.4 1.26-10.052 5.614-1.311 3.457-.294 7.551 1.026 11.004a8.727 10.789 0 0 0 2.723 4.547c1.678 1.401 3.847 1.357 5.836 1.826a26.917 33.275 0 0 1 8.625 4.832l18.516 13.836c-.308-.23-.198-10.152-.558-11.778-1.158-5.238-3.765-10.494-5.56-15.454z" fill="#ffb9b9"/></g><g fill="#2f2e41" stroke-width="1.249"><path d="M947.84 105.1a6.994 8.647 0 0 0-3.034-4.895 16.052 19.844 0 0 0-.64-6.46c-1.669-6.099-5.622-5.75-9.352-8.446-1.618-1.17-1.518-2.203-2.36-4.125a12.385 15.311 0 0 0-4.773-6.02c-2.393-1.884-4.92-3.825-7.75-4.064-5.95-.501-10.511 6.416-16.197 8.637-2.506.978-5.2 1.019-7.72 1.944-2.519.925-5.032 3.133-5.408 6.35-.173 1.484.133 3.007-.043 4.491-.35 2.95-2.443 5.016-3.845 7.443-3.099 5.365-2.745 12.946-.266 18.784a21.358 26.403 0 0 0 1.787 3.457 17.203 21.267 0 0 0 1.887 7.898c2.478 5.838 6.743 10.2 11.198 13.825a26.432 32.676 0 0 1-.66-5.896 3.29 4.067 0 0 1 .202-1.953c.496-1.282 1.807-1.623 2.807-2.325 2.07-1.455 2.882-4.673 2.942-7.616.06-2.943-.445-5.89-.195-8.818a3.898 4.818 0 0 1 1.334-3.545 4.609 5.697 0 0 1 2.515-.741c4.242-.214 8.675-.31 12.416-2.79a18.4 22.747 0 0 1 3.865-2.417c3.18-1.025 6.43 1.73 8.262 5.102 1.833 3.372 2.747 7.385 4.438 10.868 1.69 3.484 4.611 6.59 7.88 6.177a1.308 1.617 0 0 0 .977-.536 1.464 1.81 0 0 0 .18-1.029l.182-15.448a18.888 23.35 0 0 0-.63-7.852zM875.17 208.27q.895 9.12 1.085 18.302h-23.12v-24.018c.118-.582.244-1.154.396-1.725 1.446-5.509 4.48-10.123 7.112-14.914.126-.24.26-.478.387-.717a31.564 39.02 0 0 0 2.875-6.413c.378-1.102.984-6.433 1.622-6.89 2.741-1.965 4.97 6.433 5.347 8.304 1.345 6.662 2.514 13.386 3.397 20.173q.517 3.944.9 7.898zM992 226.57h-53.074c-.454-1.32-.9-2.64-1.37-3.95a93.4 115.46 0 0 0-12.728-25.805 5.523 6.828 0 0 1-1.573-3.856 2.64 3.264 0 0 1 .345-1.736c.807-1.86 2.943-2.952 4.675-3.835a16.107 19.912 0 0 0 4.859-3.783 10.42 12.881 0 0 0 2.808-5.124 9.095 11.243 0 0 0 .353-1.767c.243.395.496.8.74 1.195.596.977 1.202 1.944 1.815 2.91 5.885 9.344 12.35 18.552 20.48 24.092a34.455 42.594 0 0 0 6.692 3.523 1.756 2.171 0 0 0 1.413 0 1.71 2.113 0 0 0 .613-1.393c.723-3.741.976-7.597 1.505-11.39a52.483 64.881 0 0 1 5.54-19.727c1.505-3.46 6.398-16.109 9.5-8.138q1.337 3.446 2.691 6.912c.563 1.465 1.135 2.92 1.706 4.386a22.064 27.276 0 0 1 2.766 15.278q.127 16.119.244 32.208z"/></g><g stroke-width="1.249"><path d="M877.29 226.57h4.599l-2.607-10.694-3.757-15.413a40.669 50.276 0 0 1-.362 7.805 42.039 51.97 0 0 1-3.665 15.423c-.362.946-.749 1.902-1.06 2.879zM970.97 193.7c-.648 2.153-.06 4.534.44 6.746a54.982 67.97 0 0 1 2.003 19.722.58.718 0 0 1-.679.86c-2.12.16-4.547.178-5.985-1.754z" opacity=".1"/><path fill="#3f3d56" opacity=".3" d="M0 4.086h474.16v397.01H0z"/></g><g fill="#f2f2f2" stroke-width="1.249"><path d="M30.265 40.462h140.4v189.15h-140.4zM257.26 40.462h135.35v11.432H257.26zM31.947 258.71h47.92v11.432h-47.92zM31.947 279.5h137.03v11.432H31.947zM225.31 82.034h195.04v11.432H225.31zM225.31 114.25h195.04v11.432H225.31zM225.31 146.47h195.04v11.432H225.31zM225.31 178.69h195.04v11.432H225.31zM225.31 210.91h195.04v11.432H225.31zM225.31 243.13h195.04v11.432H225.31zM225.31 275.34h195.04v11.432H225.31z"/></g><g stroke-width="1.249"><path d="M166.85 230.65h-18.252q-2.106-7-3.741-14.176a22.908 28.32 0 0 0-5.952-14.997 22.502 27.817 0 0 1-2.565-4.303 16.347 20.208 0 0 1-1.614-12.253 25.745 31.827 0 0 1 .471-3.471c.799-4.438 2.135-8.699 3.254-13.022a3.995 4.94 0 0 1 3.261-3.336 6.47 7.999 0 0 1 3.565.509 4.427 5.473 0 0 1 .715.457c1.992 1.487 3.026 4.521 3.859 7.296q5.712 18.957 11.417 37.914 1.11 3.68 2.219 7.38c1.093 3.616 2.177 7.233 3.102 10.922.093.364.177.717.26 1.081z" fill="#d0cde1"/><path d="M90.865 64.315c-4.538 1.895-8.65 6.326-9.579 12.134-.43 2.693-.166 5.492-.529 8.2-.84 6.28-4.828 11.077-8.506 15.532s-7.477 9.631-7.745 15.989c-.294 6.96 3.79 13.482 3.083 20.398-.821 8.034-7.685 13.24-9.382 21.063-1.134 5.223.255 10.849 2.54 15.46 4.353 8.789 11.793 14.755 19.717 17.953 7.924 3.198 16.363 3.87 24.7 3.979 10.148.131 21.168-.946 28.793-9.227a23.068 28.517 0 0 0 7.658-18.565c.725-9.592-2.514-19.503-.28-28.732 1.406-5.808 4.931-11.113 4.405-17.14-.514-5.894-4.678-10.072-7.535-14.834-2.667-4.445-4.285-9.695-5.871-14.87l-5.427-17.71c-1.067-3.481-2.239-7.142-4.616-9.427-4.452-4.278-11.608-3.438-16.813-2.555-4.829.818-9.97.414-14.613 2.352z" fill="#2f2e41"/><path d="M95.063 122.68s.531 19.701-1.062 21.671c-1.594 1.97 6.374 15.104 6.374 15.104l14.343-.657 7.437-7.223-6.375-10.507s-2.655-17.074-.53-21.014c2.124-3.94-20.187 2.626-20.187 2.626z" fill="#a0616a"/><path d="M95.063 122.68s.531 19.701-1.062 21.671c-1.594 1.97 6.374 15.104 6.374 15.104l14.343-.657 7.437-7.223-6.375-10.507s-2.655-17.074-.53-21.014c2.124-3.94-20.187 2.626-20.187 2.626z" opacity=".1"/><ellipse cx="103.83" cy="106.59" rx="19.123" ry="23.641" fill="#a0616a"/><path d="M113.63 230.65h15.503c.58-1.3 1.126-2.65 1.757-3.877v-.011a8.582 10.61 0 0 1 2.825-3.658 11.13 13.76 0 0 0 2.093-1.549 5.4 6.676 0 0 0 1.278-2.952 36.999 45.739 0 0 0 1.749-12.742c.025-1.455 0-2.93.067-4.385a14.915 18.439 0 0 1 .353-3.378 21.517 26.599 0 0 1 2.295-6.423q3.153-7.093 6.322-14.186a8.02 9.916 0 0 0 .43-4.157 8.29 10.247 0 0 0-1.363-5.332 33.244 33.244 0 0 0-.95-1.943 34.917 43.165 0 0 0-4.506-7.109 36.455 45.067 0 0 0-12.829-10.736 7.445 9.204 0 0 1-1.723-1.04 7.153 8.843 0 0 1-1.58-2.338c-1.682-3.128-3.734-6.651-6.769-6.454a4.16 5.144 0 0 0-3.211-.27 4.39 5.428 0 0 0-.47.187 29.878 36.936 0 0 0-3.372 2.172 15.649 19.346 0 0 1-9.08 2.037 3.075 3.802 0 0 1-1.059-.332 5.428 6.71 0 0 1-.975-.977 5.606 6.93 0 0 0-5.574-1.102 5.061 6.257 0 0 0-2.22 1.933c-.554.863-.941 1.902-1.555 2.713-1.589 2.1-4.212 2.182-6.532 2.172a60.37 74.631 0 0 0-14.351 1.632 27.28 33.725 0 0 0-11.3 6.755l-.008.012c-.454.478-.874.966-1.294 1.486a9.597 11.864 0 0 0-2.237 3.95c-.639 2.036-.554 4.333-1.135 6.401-.639 2.318-2.06 4.21-2.631 6.537-.437 1.767-.378 3.721-1.101 5.322.033.03.059.062.092.093 3.06 3.326 5.675 7.691 8.743 10.985a17.645 21.814 0 0 1 4.44 6.132 8.194 10.129 0 0 1 .546 1.663 20.684 25.571 0 0 1 .454 6.049c.387 9.717 4.649 18.53 9.416 26.263.092.156.185.311.286.457z" fill="#d0cde1"/><path d="M63.751 196.22q-1.085 9.307-2.186 18.603a65.564 81.052 0 0 1-1.496 9.852c-.437 2.006-1 3.97-1.396 5.976H36.781a20.974 25.928 0 0 1 .21-3.356 44.894 55.5 0 0 1 2.733-11.65q3.82-12.752 7.633-25.525c1.085-3.628 2.018-7.421 3.212-11.017.21-.665.437-1.33.68-1.975 1.27-3.45 4.793-2.037 7.399-1.517a7.025 8.685 0 0 1 2.068.727 5.336 6.597 0 0 1 1.942 2.266c2.472 4.52 1.934 10.497 1.295 15.9l-.202 1.716z" fill="#d0cde1"/><path d="M130.89 226.78c.034.145.395 1.694.992 3.877H113.63a791.363 791.363 0 0 0 17.26-3.887z" fill="#2f2e41"/><ellipse cx="105.42" cy="92.798" rx="20.717" ry="13.791" fill="#2f2e41"/><path fill="#3f3d56" d="M303.75 150.24h474.16v397.01H303.75z"/><ellipse cx="708.97" cy="512.96" rx="55.487" ry="7.275" opacity=".1"/><path fill="#f2f2f2" d="M334.02 186.62h140.4v189.15h-140.4z"/><path d="M379.23 273.46a2.06 2.548 0 0 0 2.416-1.234c1.941-3.782-1.634-8.66-.86-13.036.62-3.506 3.843-5.587 4.502-9.082.64-3.397-1.332-7.225.001-10.297 1.045-2.408 3.654-3.041 5.838-2.62 2.183.422 4.256 1.609 6.462 1.775 2.94.222 5.741-1.378 8.616-2.17 2.874-.793 6.38-.483 8.07 2.498 2.172 3.827-.03 9.156.725 13.737.6 3.637 3.064 6.648 3.116 10.36.02 1.319-2.786.256-2.637 1.562.15 1.307-1.176.157-.117.001a2.1 2.595 0 0 0 1.595-2.345c.126-1.088 1.78-1.45 1.761-2.55-.044-2.575 3.722-.838 4.342-3.298a20.173 24.939 0 0 0-.824-17.398 28.186 34.844 0 0 1-2.403-7.075c-.553-3.415.318-7.08-.595-10.376-1.23-4.44-5.3-6.704-9.078-7.163-3.778-.46-7.618.363-11.375-.315-3.365-.608-6.623-2.41-10.018-2.15-4.073.314-7.617 3.558-10.44 7.201-2.824 3.643-5.22 7.832-8.426 10.953a16.524 20.427 0 0 0-2.701 2.875c-1.634 2.46-1.8 5.965-1.345 9.098.454 3.133 1.443 6.121 1.86 9.262.393 2.952.272 5.967.44 8.95a12.726 15.733 0 0 0 2.124 8.45 6.45 7.974 0 0 0 5.02 3.241c.68.02 1.253-.735 1.94-.538.857.246 1.23 1.252 1.99 1.684z" fill="#2f2e41"/><path d="M348.35 376.81c.614-10.403 1.076-18.177 1.076-18.177l3.968-12.929 12.737 31.106z" fill="#575a89"/><path d="M348.35 376.81c.614-10.403 1.076-18.177 1.076-18.177l3.968-12.929 12.737 31.106z" opacity=".1"/><path d="M377.87 274.52s11.876 37.372 5.038 44.49c-6.837 7.118 38.148-12.012 38.148-12.012l-1.08-4.894s-14.754-7.118-7.557-27.584c7.198-20.466-34.549 0-34.549 0z" fill="#a0616a"/><path d="M377.87 274.52s11.876 37.372 5.038 44.49c-6.837 7.118 38.148-12.012 38.148-12.012l-1.08-4.894s-14.754-7.118-7.557-27.584c7.198-20.466-34.549 0-34.549 0z" opacity=".1"/><ellipse cx="394.79" cy="258.5" rx="25.192" ry="31.143" fill="#a0616a"/><path d="m455.96 325.68-.277 6.797a6618.97 6618.97 0 0 0-1.657 44.326H356.37a48.419 59.856 0 0 1-6.212-13.75 12.003 14.838 0 0 1-.732-4.427c-.538-11.796 8.012-28.26 14.048-29.828 6.835-1.788 19.79-18.687 19.79-18.687a3.083 3.81 0 0 0 1.648 3.076v.012a6.698 8.28 0 0 0 3.388.914c4.22 0 22.783-10.59 28.744-14.05 1.169-.676 1.85-1.082 1.85-1.082a139.7 172.7 0 0 0 21.236 8.907 22.586 27.921 0 0 1 15.83 17.793z" fill="#575a89"/><path d="M374.91 270.35a2.06 2.548 0 0 0 2.416-1.234c1.941-3.782-1.634-8.66-.86-13.036.62-3.506 3.843-5.587 4.502-9.082.64-3.396-1.332-7.225.001-10.297 1.045-2.408 3.654-3.041 5.838-2.62 2.183.422 4.256 1.609 6.462 1.775 2.94.221 5.741-1.378 8.616-2.17 2.874-.793 6.38-.483 8.07 2.498 2.172 3.827-.03 9.156.725 13.737.6 3.636 7.44 6.19 8.06 3.73a20.173 24.939 0 0 0-.824-17.398 28.187 34.845 0 0 1-2.403-7.075c-.553-3.415.318-7.081-.595-10.376-1.23-4.44-5.3-6.704-9.078-7.164-3.778-.46-7.618.363-11.375-.315-3.365-.607-6.623-2.41-10.018-2.149-4.073.314-7.617 3.558-10.441 7.2-2.823 3.643-5.218 7.833-8.425 10.954a16.524 20.427 0 0 0-2.701 2.875c-1.634 2.46-1.8 5.965-1.345 9.098.454 3.133 1.443 6.121 1.86 9.262.393 2.951.272 5.967.44 8.95a12.726 15.733 0 0 0 2.124 8.45 6.45 7.974 0 0 0 5.02 3.241c.68.02 1.253-.736 1.94-.539.857.246 1.23 1.253 1.99 1.684z" fill="#2f2e41"/><path d="M468.45 376.81h-28.5c-2.169-19.664-3.96-40.221-3.96-40.221l5.76-3.118 11.702-7.784s.858 2.515 2.236 6.797c2.943 9.156 8.281 26.388 12.762 44.326z" opacity=".1"/><path d="M470.96 376.81h-32.165c-4.767-21.514-9.466-44.898-9.466-44.898l12.24-11.121 14.394 4.895s8.424 24.787 14.998 51.123z" fill="#575a89"/></g><g fill="#9b8f00" stroke-width="1.249"><path d="M561.01 186.62h135.35v11.432H561.01zM335.7 404.87h47.92v11.432H335.7zM335.7 425.65h137.03v11.432H335.7z"/></g><g fill="#f2f2f2" stroke-width="1.249"><path d="M529.06 228.19H724.1v11.432H529.06zM529.06 260.41H724.1v11.432H529.06zM529.06 292.62H724.1v11.432H529.06zM529.06 324.84H724.1v11.432H529.06zM529.06 357.06H724.1v11.432H529.06zM529.06 389.28H724.1v11.432H529.06zM529.06 421.5H724.1v11.432H529.06z"/></g><g stroke-width="1.249"><path d="m761.7 423.04-53.317 65.912-22.409-27.703a7.66 9.47 0 0 0-10.833 0l-.805-1.489c-2.992 3.699-2.187 11.183.805 14.881l29.076 35.944a5.845 7.226 0 0 0 8.264.003l60.048-74.156c2.993-3.696 4.08-10.476 1.087-14.174-2.99-3.697-8.924-2.915-11.915.782z" fill="#57b894"/><path d="m761.7 423.04-53.317 65.912-22.409-27.703a7.66 9.47 0 0 0-10.833 0l-.805-1.489c-2.992 3.699-2.187 11.183.805 14.881l29.076 35.944a5.845 7.226 0 0 0 8.264.003l60.048-74.156c2.993-3.696 4.08-10.476 1.087-14.174-2.99-3.697-8.924-2.915-11.915.782z" opacity=".1"/><path d="m761.7 420.12-53.317 65.912-22.409-27.703a7.66 9.47 0 0 0-10.833 0 7.66 9.47 0 0 0 0 13.393l29.076 35.944a5.845 7.226 0 0 0 8.264.003l60.048-74.156a7.659 9.468 0 0 0 .003-13.393 7.659 9.468 0 0 0-10.831 0z" fill="#57b894"/><path d="M1154 801.88c0 74.318-83.796 51.331-186.4 51.331-102.6 0-185.15 22.987-185.15-51.331s83.785-90.482 186.38-90.482 185.16 16.164 185.16 90.482z" opacity=".1"/><path d="M1154 788c0 74.318-83.796 51.331-186.4 51.331-102.6 0-185.15 22.987-185.15-51.331s83.785-90.482 186.38-90.482 185.16 16.164 185.16 90.482z" fill="#3f3d56"/><path d="m803.67 555.18-3.797 5.45s-46.168 5.36-44.294 14.624c1.874 9.265 55.585-12.353 55.585-12.353z" fill="#ffc1c7"/><path d="M887.36 550.54s-49.34 21.619-76.196 12.353l12.491 30.884s63.705-2.316 74.947-16.214c11.242-13.898-11.242-27.023-11.242-27.023z" fill="#9b8f00"/><path d="M887.36 550.54s-49.34 21.619-76.196 12.353l12.491 30.884s63.705-2.316 74.947-16.214c11.242-13.898-11.242-27.023-11.242-27.023z" opacity=".1"/><ellipse cx="853.94" cy="344.01" rx="33.101" ry="40.921" fill="#ffc1c7"/><path d="M882.17 382.43a25.82 31.92 0 0 0 4.288 7.349 54.144 66.934 0 0 0 15.956 14.76 543.7 672.13 0 0 1-56.85 10.45c2.016-8.772-.637-18.154-4.202-26.138-3.564-7.984-8.109-15.425-10.34-24.118l22.374.743c4.06.135 8.132.285 12.191.04 3.034-.184 8.088-2.43 10.92-1.603 5.986 1.75 3.051 11.954 5.664 18.517z" fill="#ffc1c7"/><path d="m957.31 574.48 18.737 27.795s31.228 90.334-36.849 99.6c-68.077 9.265-118.67-6.949-118.67-6.949s-27.48-16.214-28.105-3.86c-.625 12.353-3.123 47.098-18.112 81.069l-13.116 37.06s-6.87 8.493-4.996 20.074c1.873 11.58-41.845 15.442-41.221 0 0 0 6.245-13.126 6.245-20.846 0-7.721 9.993-26.251 9.993-26.251l18.112-111.18s-1.249-57.135 41.221-46.325 103.05-2.317 103.05-2.317l13.74-59.45z" fill="#2f2e41"/><path d="m957.31 574.48 18.737 27.795s31.228 90.334-36.849 99.6c-68.077 9.265-118.67-6.949-118.67-6.949s-27.48-16.214-28.105-3.86c-.625 12.353-3.123 47.098-18.112 81.069l-13.116 37.06s-6.87 8.493-4.996 20.074c1.873 11.58-41.845 15.442-41.221 0 0 0 6.245-13.126 6.245-20.846 0-7.721 9.993-26.251 9.993-26.251l18.112-111.18s-1.249-57.135 41.221-46.325 103.05-2.317 103.05-2.317l13.74-59.45z" opacity=".1"/><path d="M887.05 572.45s57.147-26.534 88.999 29.829c0 0 8.12 87.246-24.358 91.107-32.477 3.86-74.947 3.088-84.94-10.037-9.993-13.126-73.073-50.186-73.073-50.186s-31.4-19.8-37.56 5.928c-6.16 25.728-6.784 31.904-6.784 31.904s-32.477 29.339-45.593 34.744c0 0-8.744 15.442-13.74 15.442s-35.6 8.493-32.477-20.074l50.59-57.135 50.588-60.995s14.365-26.251 51.214-12.353a761.89 941.87 0 0 0 74.322 22.39z" fill="#2f2e41"/><path d="M754.33 827.72s11.867 37.06 1.874 41.693c-9.993 4.633-31.228 1.544-31.228 1.544s-24.982-3.86-31.228-3.088c-6.246.772-31.852-5.405-28.105-17.758s23.109-9.265 23.109-9.265l17.488-10.037s1.873-7.721 6.245-4.633 16.863 14.67 41.845 1.544zM689.37 718.09s13.116 36.288-8.12 33.2c-21.234-3.088-37.472-8.493-43.718-9.265-6.008-.743-22.995-7.915-20.39-22.204a10.281 12.709 0 0 0 .17-2.805c0-1.918 2.108-5.682 18.971-5.103 0 0 12.491 0 17.488-10.809 0 0 18.737 29.34 35.6 16.986z" fill="#cbceda"/><path d="M831.15 409.25s44.968-34.744 82.441 0 62.456 193.02 62.456 193.02l-86.813-23.935s-3.747-18.53-8.744-21.619c-4.996-3.088-5.62-16.214-5.62-16.214s-26.857-10.037-24.983-48.642c1.874-38.605-18.737-82.614-18.737-82.614z" fill="#9b8f00"/><path d="M854.26 410.8h-23.109s-13.74 19.302-15.614 67.944l-7.495 38.604s-15.614 46.325-6.245 54.046 27.48 6.949 31.228-8.493c3.747-15.442 29.354-105 29.354-105z" fill="#9b8f00"/><path d="M847.63 290.76a33.46 41.364 0 0 1 34.612 7.015c11.995 13.233 14.415 34.82 17.447 54.337 3.032 19.517 9.132 41.252 24.012 48.776a62.56 77.338 0 0 1-20.158-.725l22.486 24.911-37.879-15.263c-11.888-4.79-24.374-9.64-36.684-6.935-20.394 4.481-34.593 28.183-54.181 36.509l2.177-13.131-13.142-.125a25.74 31.82 0 0 0 7.53-10.906 7.287 9.008 0 0 0-5.028-3.251c-5.478-42.242 14.813-84 41.256-111.6 5.201-5.429 10.957-10.642 17.674-12 6.718-1.358 14.56 2.355 16.896 10.259" fill="#2f2e41"/><path d="M274.56 677.9c0 88.871 45.099 160.78 100.83 160.78" fill="#3f3d56"/><path d="M375.39 838.68c0-89.869 50.328-162.59 112.52-162.59M311.09 685.95c0 84.418 28.759 152.73 64.3 152.73" fill="#9b8f00"/><path d="M375.39 838.68c0-114.83 58.172-207.75 130.06-207.75" fill="#3f3d56"/><path d="M354.18 839.81s14.3-.544 18.609-4.338c4.31-3.794 21.997-8.324 23.066-2.24s21.49 30.261 5.346 30.422c-16.144.161-37.513-3.108-41.814-6.347-4.302-3.24-5.207-17.496-5.207-17.496z" fill="#a8a8a8"/><path d="M401.48 861.54c-16.144.161-37.513-3.109-41.814-6.348-3.276-2.467-4.581-11.318-5.018-15.4-.302.015-.477.022-.477.022s.906 14.257 5.207 17.496c4.301 3.24 25.669 6.509 41.814 6.348 4.66-.046 6.27-2.096 6.181-5.132-.647 1.834-2.424 2.98-5.893 3.014z" opacity=".2"/></g></svg>