<?xml version="1.0" encoding="UTF-8" standalone="no"?>
<svg
   xmlns:dc="http://purl.org/dc/elements/1.1/"
   xmlns:cc="http://creativecommons.org/ns#"
   xmlns:rdf="http://www.w3.org/1999/02/22-rdf-syntax-ns#"
   xmlns:svg="http://www.w3.org/2000/svg"
   xmlns="http://www.w3.org/2000/svg"
   xmlns:sodipodi="http://sodipodi.sourceforge.net/DTD/sodipodi-0.dtd"
   xmlns:inkscape="http://www.inkscape.org/namespaces/inkscape"
   id="b225c2ac-b0fc-4c56-8095-6e63207963c3"
   data-name="Layer 1"
   width="1200"
   height="728.02429"
   viewBox="0 0 1200 728.02433"
   version="1.1"
   sodipodi:docname="undraw_hire_te5y.svg"
   inkscape:version="0.92.4 (unknown)">
  <metadata
     id="metadata199">
    <rdf:RDF>
      <cc:Work
         rdf:about="">
        <dc:format>image/svg+xml</dc:format>
        <dc:type
           rdf:resource="http://purl.org/dc/dcmitype/StillImage" />
        <dc:title>hire</dc:title>
      </cc:Work>
    </rdf:RDF>
  </metadata>
  <defs
     id="defs197" />
  <sodipodi:namedview
     pagecolor="#ffffff"
     bordercolor="#666666"
     borderopacity="1"
     objecttolerance="10"
     gridtolerance="10"
     guidetolerance="10"
     inkscape:pageopacity="0"
     inkscape:pageshadow="2"
     inkscape:window-width="640"
     inkscape:window-height="480"
     id="namedview195"
     showgrid="false"
     fit-margin-top="0"
     fit-margin-left="0"
     fit-margin-right="0"
     fit-margin-bottom="0"
     inkscape:zoom="0.36403158"
     inkscape:cx="-190.92025"
     inkscape:cy="296.67756"
     inkscape:current-layer="b225c2ac-b0fc-4c56-8095-6e63207963c3" />
  <title
     id="title2">hire</title>
  <ellipse
     cx="763.15985"
     cy="688.71991"
     rx="436.84012"
     ry="39.304382"
     id="ellipse4"
     style="fill:#3f3d56;stroke-width:1.12298238" />
  <rect
     x="-1023.7957"
     y="-321.14944"
     width="474.15784"
     height="321.14944"
     transform="scale(-1)"
     id="rect6"
     style="opacity:0.3;fill:#3f3d56;stroke-width:1.12298238" />
  <rect
     x="853.13251"
     y="29.424683"
     width="140.3978"
     height="153.00838"
     id="rect8"
     style="fill:#f2f2f2;stroke-width:1.12298238" />
  <rect
     x="-766.53992"
     y="-38.67244"
     width="135.35356"
     height="9.2477589"
     transform="scale(-1)"
     id="rect10"
     style="fill:#f2f2f2;stroke-width:1.12298238" />
  <rect
     x="-901.0528"
     y="-215.22055"
     width="47.920204"
     height="9.2477589"
     transform="scale(-1)"
     id="rect12"
     style="fill:#f2f2f2;stroke-width:1.12298238" />
  <rect
     x="-991.84888"
     y="-232.03467"
     width="137.03497"
     height="9.2477589"
     transform="scale(-1)"
     id="rect14"
     style="fill:#f2f2f2;stroke-width:1.12298238" />
  <rect
     x="-798.48669"
     y="-72.300644"
     width="195.04364"
     height="9.2477589"
     transform="scale(-1)"
     id="rect16"
     style="fill:#f2f2f2;stroke-width:1.12298238" />
  <rect
     x="-798.48669"
     y="-98.362518"
     width="195.04364"
     height="9.2477589"
     transform="scale(-1)"
     id="rect18"
     style="fill:#f2f2f2;stroke-width:1.12298238" />
  <rect
     x="-798.48669"
     y="-124.42439"
     width="195.04364"
     height="9.2477589"
     transform="scale(-1)"
     id="rect20"
     style="fill:#f2f2f2;stroke-width:1.12298238" />
  <rect
     x="-798.48669"
     y="-150.48625"
     width="195.04364"
     height="9.2477589"
     transform="scale(-1)"
     id="rect22"
     style="fill:#f2f2f2;stroke-width:1.12298238" />
  <rect
     x="-798.48669"
     y="-176.54813"
     width="195.04364"
     height="9.2477589"
     transform="scale(-1)"
     id="rect24"
     style="fill:#f2f2f2;stroke-width:1.12298238" />
  <rect
     x="-798.48669"
     y="-202.60999"
     width="195.04364"
     height="9.2477589"
     transform="scale(-1)"
     id="rect26"
     style="fill:#f2f2f2;stroke-width:1.12298238" />
  <rect
     x="-798.48669"
     y="-228.67184"
     width="195.04364"
     height="9.2477589"
     transform="scale(-1)"
     id="rect28"
     style="fill:#f2f2f2;stroke-width:1.12298238" />
  <path
     d="m 874.21717,116.79553 a 24.835069,24.835069 0 0 1 6.79839,-3.40931 173.35134,173.35134 0 0 1 47.90042,-10.42715 c 14.24304,-1.01 29.67994,0.18961 40.80449,9.14108 a 14.030373,14.030373 0 0 1 4.13912,4.8222 c 1.39956,3.02015 0.97544,6.53077 0.52232,9.82846 a 11.105779,11.105779 0 0 1 -0.95306,3.70001 c -1.497,2.85027 -5.18272,3.84875 -8.38394,3.50697 -3.20132,-0.34178 -6.20518,-1.69626 -9.36289,-2.32427 a 41.852238,41.852238 0 0 0 -5.91349,-0.60223 l -19.80396,-1.07213 c -12.31482,-0.66671 -24.7919,-1.3223 -36.87172,1.16308 a 36.727766,36.727766 0 0 0 -10.653,3.67096 c -2.75908,1.54906 -4.61697,3.77186 -7.17709,0.91068 -4.49773,-5.02668 -6.98732,-14.26542 -1.04559,-18.90835 z"
     id="path30"
     inkscape:connector-curvature="0"
     style="fill:#2f2e41;stroke-width:1.12298238" />
  <path
     d="m 904.90541,125.55317 c 0,0 26.63715,-11.94077 36.74085,1.83704 10.10367,13.77781 -5.51113,8.2667 -5.51113,8.2667 l -17.4519,5.51112 -19.28894,-3.67408 z"
     id="path32"
     inkscape:connector-curvature="0"
     style="fill:#f2f2f2;stroke-width:1.12298238" />
  <path
     d="m 906.28318,116.82722 c 0,0 3.67408,17.4519 0.91852,22.04451 -2.75556,4.5926 15.61485,11.02225 15.61485,11.02225 l 17.4519,-7.34817 c 0,0 -4.5926,-28.47415 0,-33.98528 z"
     id="path34"
     inkscape:connector-curvature="0"
     style="fill:#ffb9b9;stroke-width:1.12298238" />
  <path
     d="m 906.28318,116.82722 c 0,0 3.67408,17.4519 0.91852,22.04451 -2.75556,4.5926 15.61485,11.02225 15.61485,11.02225 l 17.4519,-7.34817 c 0,0 -4.5926,-28.47415 0,-33.98528 z"
     id="path36"
     inkscape:connector-curvature="0"
     style="opacity:0.1;stroke-width:1.12298238" />
  <path
     d="m 948.53516,99.375322 a 27.578201,27.578201 0 0 1 -27.55565,27.555638 26.892586,26.892586 0 0 1 -4.89572,-0.44087 27.554506,27.554506 0 1 1 32.45137,-27.114768 z"
     id="path38"
     inkscape:connector-curvature="0"
     style="fill:#ffb9b9;stroke-width:1.12298238" />
  <path
     d="m 965.17336,183.27376 h -87.87898 l 1.99246,-8.65089 8.62563,-37.5879 9.97075,-6.73406 0.009,-0.009 4.68278,-3.16948 2.32878,-1.57211 c 0,0 1.37865,0.63052 2.96761,1.48806 0.46232,0.26054 0.9332,0.52965 1.40401,0.81546 0.009,-0.009 0.009,0 0.009,0 a 16.44922,16.44922 0 0 1 2.16899,1.50489 c 0.12612,0.11772 0.23543,0.21859 0.34475,0.32792 1.74864,1.74863 6.85167,11.03004 15.29239,6.28004 a 12.856351,12.856351 0 0 0 1.23581,-0.77338 61.157618,61.157618 0 0 0 6.28005,-4.98543 c 1.77398,-1.62261 2.92573,-2.87525 3.86732,-3.7412 a 6.106486,6.106486 0 0 1 1.42916,-1.0593 2.7171231,2.7171231 0 0 1 1.28631,-0.31095 c 2.75754,0 6.43141,5.50656 6.43141,5.50656 l 0.1093,0.31947 0.009,0.0252 11.59339,34.80513 z"
     id="path40"
     inkscape:connector-curvature="0"
     style="fill:#f2f2f2;stroke-width:1.12298238" />
  <path
     d="m 877.2944,183.27376 h 26.63355 a 64.819664,64.819664 0 0 0 -0.4792,-9.21412 c -0.81549,-6.14556 -2.81636,-12.06412 -4.07742,-18.13403 a 76.288548,76.288548 0 0 1 -1.60574,-16.17516 c 0.009,-0.74823 0.0252,-1.50487 0.0924,-2.26149 a 10.353897,10.353897 0 0 1 1.45442,-4.90968 c 0.63054,-0.96681 1.49645,-1.7907 2.16902,-2.71547 a 6.2308113,6.2308113 0 0 0 0.61372,-0.96683 v -0.009 a 5.588342,5.588342 0 0 0 0.22699,-0.51283 4.1510705,4.1510705 0 0 0 0.25221,-1.25266 c 0.15132,-2.77432 -2.36238,-5.44776 -5.07786,-6.59113 a 18.984657,18.984657 0 0 0 -11.89593,-0.47916 56.62315,56.62315 0 0 0 -11.18139,4.57344 c -1.2022,0.58849 -2.396,1.1938 -3.54778,1.86639 a 17.612428,17.612428 0 0 0 -3.75795,2.85841 c -2.85839,2.95088 -4.11104,7.06192 -5.1199,11.03846 a 23.33747,23.33747 0 0 0 -0.96681,9.4159 c 0.009,0.10089 0.0336,0.21018 0.0504,0.31106 1.00044,5.2376 5.27122,9.1721 7.54953,13.99775 2.63982,5.59909 2.46327,12.12297 1.41239,18.22649 -0.0504,0.31107 -0.10929,0.62213 -0.16813,0.9332 h 7.42341 z"
     id="path42"
     inkscape:connector-curvature="0"
     style="fill:#2f2e41;stroke-width:1.12298238" />
  <path
     d="m 985.7117,149.63714 a 208.14404,208.14404 0 0 0 -7.25512,33.63662 h -37.96642 q -1.48796,-4.06056 -2.96761,-8.12965 a 60.951057,60.951057 0 0 1 -2.02613,-6.25479 29.934958,29.934958 0 0 1 -0.84912,-7.53281 c 0,-0.60528 0.0252,-1.21896 0.0757,-1.82426 a 0.02561523,0.02561523 0 0 0 0,-0.0336 30.083484,30.083484 0 0 1 2.19413,-9.30666 34.713889,34.713889 0 0 1 1.93366,-3.92602 c 1.76556,-3.19473 3.90088,-6.20441 5.8009,-9.33181 a 42.828525,42.828525 0 0 0 3.08541,-5.98582 0.03090447,0.03090447 0 0 1 0.009,-0.0252 21.485246,21.485246 0 0 0 1.74018,-8.36498 c -0.0588,-3.70753 -6.3304,-10.17261 0.48753,-9.5505 9.30668,0.84071 17.30186,6.1961 24.59064,12.29962 1.94215,1.63092 3.84212,3.32075 5.70001,4.98533 2.87531,2.58944 5.91027,5.4141 6.77612,9.18885 a 9.7968976,9.7968976 0 0 1 0.24381,1.83279 25.16042,25.16042 0 0 1 -1.57217,8.32303 z"
     id="path44"
     inkscape:connector-curvature="0"
     style="fill:#2f2e41;stroke-width:1.12298238" />
  <path
     d="m 928.80616,139.49798 a 20.529061,20.529061 0 0 0 -4.31061,-6.95027 15.992088,15.992088 0 0 0 -6.58461,-3.33592 36.008979,36.008979 0 0 0 -9.6594,-1.38441 c -3.89001,-0.0243 -8.40052,1.01921 -10.05244,4.54117 -1.31179,2.79676 -0.29484,6.10855 1.02592,8.90108 a 8.7271675,8.7271675 0 0 0 2.72303,3.67847 c 1.67754,1.13342 3.84712,1.0975 5.83576,1.47713 a 26.916663,26.916663 0 0 1 8.6252,3.90848 l 6.81336,4.11842 11.70292,7.07397 c -0.30837,-0.18641 -0.19876,-8.21181 -0.5582,-9.52708 -1.15788,-4.23697 -3.76455,-8.4887 -5.56093,-12.50104 z"
     id="path46"
     inkscape:connector-curvature="0"
     style="fill:#ffb9b9;stroke-width:1.12298238" />
  <path
     d="m 947.842,85.014802 a 6.9943496,6.9943496 0 0 0 -3.03359,-3.95964 16.052359,16.052359 0 0 0 -0.6405,-5.22555 c -1.66875,-4.93341 -5.62197,-4.65063 -9.35193,-6.83177 -1.61829,-0.94633 -1.51828,-1.78273 -2.36078,-3.33705 a 12.385125,12.385125 0 0 0 -4.77229,-4.86916 c -2.39301,-1.524662 -4.91905,-3.094849 -7.74997,-3.287811 -5.94919,-0.405498 -10.51051,5.190171 -16.19666,6.986071 -2.50632,0.79155 -5.19941,0.82417 -7.71897,1.57249 -2.51956,0.74832 -5.0332,2.53512 -5.40875,5.13646 -0.17334,1.20096 0.13251,2.43298 -0.0433,3.63361 -0.34955,2.38633 -2.44312,4.05755 -3.84463,6.02031 -3.09922,4.34032 -2.74474,10.472 -0.26629,15.19444 a 21.357653,21.357653 0 0 0 1.78715,2.79666 17.203427,17.203427 0 0 0 1.88693,6.388548 c 2.47842,4.72244 6.74326,8.25132 11.19838,11.18316 a 26.432096,26.432096 0 0 1 -0.6608,-4.76876 3.289642,3.289642 0 0 1 0.20277,-1.58004 c 0.49616,-1.03715 1.80716,-1.31298 2.80674,-1.881 2.07038,-1.17652 2.88228,-3.78022 2.94214,-6.16078 0.0599,-2.380558 -0.44462,-4.765048 -0.19521,-7.133178 a 3.8976696,3.8976696 0 0 1 1.33429,-2.86713 4.6087195,4.6087195 0 0 1 2.51556,-0.59975 c 4.242,-0.17307 8.67421,-0.25099 12.4159,-2.25701 a 18.40029,18.40029 0 0 1 3.86446,-1.95488 c 3.17986,-0.82921 6.42982,1.39953 8.26243,4.12729 1.83263,2.72776 2.74632,5.9738 4.43715,8.791658 1.69083,2.81784 4.61189,5.33071 7.88109,4.99686 a 1.3082744,1.3082744 0 0 0 0.97632,-0.43414 1.4634593,1.4634593 0 0 0 0.17983,-0.8318 l 0.18267,-12.496458 a 18.888495,18.888495 0 0 0 -0.6301,-6.35165 z"
     id="path48"
     inkscape:connector-curvature="0"
     style="fill:#2f2e41;stroke-width:1.12298238" />
  <path
     d="m 875.16739,168.46896 q 0.8953,7.37715 1.08455,14.8048 h -23.11938 v -19.42871 c 0.11771,-0.47085 0.24378,-0.9332 0.3951,-1.3956 1.44604,-4.45578 4.48102,-8.18847 7.11234,-12.06411 0.12623,-0.19345 0.26067,-0.38679 0.38679,-0.58013 a 31.563664,31.563664 0 0 0 2.87525,-5.18705 c 0.37828,-0.89121 0.98356,-5.20403 1.62251,-5.57388 2.74071,-1.58895 4.96859,5.20389 5.34687,6.71721 1.3451,5.38896 2.5138,10.82829 3.39649,16.31813 q 0.51704,3.19049 0.89948,6.38934 z"
     id="path50"
     inkscape:connector-curvature="0"
     style="fill:#2f2e41;stroke-width:1.12298238" />
  <path
     d="m 992.0002,183.27376 h -53.07365 c -0.45401,-1.0677 -0.8996,-2.13541 -1.37045,-3.19471 a 93.400418,93.400418 0 0 0 -12.72819,-20.87468 5.5229843,5.5229843 0 0 1 -1.57217,-3.11908 2.6399967,2.6399967 0 0 1 0.34481,-1.40392 c 0.80705,-1.5049 2.94246,-2.38768 4.67427,-3.10216 a 16.107048,16.107048 0 0 0 4.85914,-3.06028 10.419659,10.419659 0 0 0 2.80804,-4.14462 9.0947645,9.0947645 0 0 0 0.35303,-1.42915 c 0.24384,0.31936 0.4961,0.64735 0.73993,0.96673 0.59687,0.7903 1.20215,1.57217 1.81586,2.35402 5.88494,7.55792 12.34997,15.00656 20.47967,19.48749 a 34.45521,34.45521 0 0 0 6.69204,2.85013 1.7561647,1.7561647 0 0 0 1.41225,0 1.7091791,1.7091791 0 0 0 0.6137,-1.12662 c 0.7231,-3.02652 0.97525,-6.1456 1.50487,-9.21406 a 52.483086,52.483086 0 0 1 5.54038,-15.95657 c 1.50477,-2.79959 6.39761,-13.03093 9.49986,-6.58279 q 1.3367,2.78687 2.69037,5.59072 c 0.56318,1.18541 1.13479,2.36232 1.7065,3.54784 a 22.064256,22.064256 0 0 1 2.76592,12.35833 q 0.12618,13.03924 0.24382,26.05338 z"
     id="path52"
     inkscape:connector-curvature="0"
     style="fill:#2f2e41;stroke-width:1.12298238" />
  <path
     d="m 877.2944,183.27376 h 4.59867 l -2.6062,-8.65086 -3.75794,-12.46765 a 40.6694,40.6694 0 0 1 -0.3615,6.3137 42.039394,42.039394 0 0 1 -3.66548,12.47606 c -0.3615,0.76504 -0.74823,1.53848 -1.05929,2.32875 z"
     id="path54"
     inkscape:connector-curvature="0"
     style="opacity:0.1;stroke-width:1.12298238" />
  <path
     d="m 970.96608,156.68769 c -0.64755,1.74139 -0.0597,3.66724 0.43956,5.45685 a 54.981665,54.981665 0 0 1 2.00387,15.95374 0.58067171,0.58067171 0 0 1 -0.67911,0.696 c -2.12009,0.12987 -4.54731,0.1436 -5.98573,-1.41932 z"
     id="path56"
     inkscape:connector-curvature="0"
     style="opacity:0.1;stroke-width:1.12298238" />
  <rect
     y="3.3054848"
     width="474.15784"
     height="321.14944"
     id="rect58"
     x="0"
     style="opacity:0.3;fill:#3f3d56;stroke-width:1.12298238" />
  <rect
     x="30.265396"
     y="32.730179"
     width="140.3978"
     height="153.00838"
     id="rect60"
     style="fill:#f2f2f2;stroke-width:1.12298238" />
  <rect
     x="257.25586"
     y="32.730179"
     width="135.35356"
     height="9.2477589"
     id="rect62"
     style="fill:#f2f2f2;stroke-width:1.12298238" />
  <rect
     x="31.946802"
     y="209.27831"
     width="47.920204"
     height="9.2477589"
     id="rect64"
     style="fill:#f2f2f2;stroke-width:1.12298238" />
  <rect
     x="31.946802"
     y="226.09241"
     width="137.03497"
     height="9.2477589"
     id="rect66"
     style="fill:#f2f2f2;stroke-width:1.12298238" />
  <rect
     x="225.30904"
     y="66.358398"
     width="195.04364"
     height="9.2477589"
     id="rect68"
     style="fill:#f2f2f2;stroke-width:1.12298238" />
  <rect
     x="225.30904"
     y="92.420258"
     width="195.04364"
     height="9.2477589"
     id="rect70"
     style="fill:#f2f2f2;stroke-width:1.12298238" />
  <rect
     x="225.30904"
     y="118.48213"
     width="195.04364"
     height="9.2477589"
     id="rect72"
     style="fill:#f2f2f2;stroke-width:1.12298238" />
  <rect
     x="225.30904"
     y="144.54402"
     width="195.04364"
     height="9.2477589"
     id="rect74"
     style="fill:#f2f2f2;stroke-width:1.12298238" />
  <rect
     x="225.30904"
     y="170.60587"
     width="195.04364"
     height="9.2477589"
     id="rect76"
     style="fill:#f2f2f2;stroke-width:1.12298238" />
  <rect
     x="225.30904"
     y="196.66774"
     width="195.04364"
     height="9.2477589"
     id="rect78"
     style="fill:#f2f2f2;stroke-width:1.12298238" />
  <rect
     x="225.30904"
     y="222.72958"
     width="195.04364"
     height="9.2477589"
     id="rect80"
     style="fill:#f2f2f2;stroke-width:1.12298238" />
  <path
     d="m 166.84641,186.57927 h -18.25173 q -2.10596,-5.66214 -3.74116,-11.46724 a 22.908244,22.908244 0 0 0 -5.9522,-12.13142 22.501658,22.501658 0 0 1 -2.56415,-3.48042 16.346838,16.346838 0 0 1 -1.61413,-9.91195 25.745313,25.745313 0 0 1 0.47079,-2.80804 c 0.79868,-3.58973 2.13538,-7.03661 3.25353,-10.53396 a 3.9954589,3.9954589 0 0 1 3.26194,-2.69873 6.4703548,6.4703548 0 0 1 3.56458,0.41193 4.4271894,4.4271894 0 0 1 0.71463,0.36997 c 1.99246,1.20225 3.02652,3.65705 3.8588,5.90176 q 5.71261,15.33451 11.41681,30.66893 1.10972,2.97606 2.21947,5.96898 c 1.09291,2.92564 2.1774,5.85128 3.10221,8.83582 0.0924,0.29435 0.1765,0.58004 0.26061,0.87437 z"
     id="path82"
     inkscape:connector-curvature="0"
     style="fill:#d0cde1;stroke-width:1.12298238" />
  <path
     d="m 90.864679,52.025027 c -4.537972,1.532533 -8.64921,5.117025 -9.578466,9.815785 -0.430765,2.17809 -0.166663,4.44233 -0.529161,6.63282 -0.84071,5.0802 -4.82851,8.95999 -8.506591,12.56376 -3.678082,3.60376 -7.476368,7.79125 -7.744805,12.93351 -0.293952,5.63094 3.789784,10.906208 3.083125,16.500368 -0.82099,6.49924 -7.685545,10.71066 -9.382517,17.03795 -1.13309,4.22504 0.2554,8.77621 2.539826,12.50666 4.35323,7.10873 11.794212,11.93483 19.718302,14.52202 7.924088,2.5872 16.363425,3.13148 24.698708,3.21882 10.14918,0.10635 21.16852,-0.76498 28.79411,-7.46334 A 23.067574,23.067574 0 0 0 141.6152,135.276 c 0.72442,-7.75903 -2.51399,-15.77619 -0.28022,-23.24196 1.40582,-4.69857 4.93128,-8.98964 4.40515,-13.865678 -0.51442,-4.76756 -4.67834,-8.14689 -7.53495,-11.99842 -2.66709,-3.59606 -4.28554,-7.84282 -5.87169,-12.02962 l -5.42713,-14.325381 c -1.06683,-2.816125 -2.23843,-5.777935 -4.61601,-7.626263 -4.45106,-3.460166 -11.60819,-2.780324 -16.81287,-2.066669 -4.82836,0.662088 -9.969453,0.334896 -14.612801,1.903018 z"
     id="path84"
     inkscape:connector-curvature="0"
     style="fill:#2f2e41;stroke-width:1.12298238" />
  <path
     d="m 95.062936,99.235462 c 0,0 0.531174,15.936248 -1.062408,17.529838 -1.593579,1.59361 6.374512,12.21777 6.374512,12.21777 l 14.3426,-0.53117 7.4369,-5.84328 -6.37449,-8.49933 c 0,0 -2.65604,-13.81139 -0.53117,-16.998578 2.12486,-3.18719 -20.185944,2.12475 -20.185944,2.12475 z"
     id="path86"
     inkscape:connector-curvature="0"
     style="fill:#a0616a;stroke-width:1.12298238" />
  <path
     d="m 95.062936,99.235462 c 0,0 0.531174,15.936248 -1.062408,17.529838 -1.593579,1.59361 6.374512,12.21777 6.374512,12.21777 l 14.3426,-0.53117 7.4369,-5.84328 -6.37449,-8.49933 c 0,0 -2.65604,-13.81139 -0.53117,-16.998578 2.12486,-3.18719 -20.185944,2.12475 -20.185944,2.12475 z"
     id="path88"
     inkscape:connector-curvature="0"
     style="opacity:0.1;stroke-width:1.12298238" />
  <circle
     cx="103.82787"
     cy="86.220871"
     r="19.123468"
     id="circle90"
     style="fill:#a0616a;stroke-width:1.12298238" />
  <path
     d="m 113.62975,186.57927 h 15.50262 c 0.58009,-1.05088 1.12654,-2.14378 1.75708,-3.13584 v -0.009 a 8.5824263,8.5824263 0 0 1 2.82477,-2.95928 11.130383,11.130383 0 0 0 2.09334,-1.25264 5.4000627,5.4000627 0 0 0 1.27789,-2.38761 36.99927,36.99927 0 0 0 1.74866,-10.30704 c 0.0252,-1.17699 0,-2.3708 0.0673,-3.54778 a 14.915294,14.915294 0 0 1 0.35308,-2.7323 21.516645,21.516645 0 0 1 2.29514,-5.19555 q 3.15264,-5.73782 6.3221,-11.47563 a 8.0209351,8.0209351 0 0 0 0.42876,-3.36283 8.2892829,8.2892829 0 0 0 -1.36194,-4.31281 c -0.29422,-0.52964 -0.61372,-1.05929 -0.95004,-1.57212 a 34.91689,34.91689 0 0 0 -4.50619,-5.75043 36.455196,36.455196 0 0 0 -12.82916,-8.68449 7.4453055,7.4453055 0 0 1 -1.72345,-0.8407 7.1532066,7.1532066 0 0 1 -1.58052,-1.89159 c -1.6814,-2.53052 -3.73273,-5.38051 -6.76768,-5.22075 a 4.1608741,4.1608741 0 0 0 -3.2115,-0.21857 4.390861,4.390861 0 0 0 -0.47079,0.15132 29.877732,29.877732 0 0 0 -3.37119,1.75708 15.649298,15.649298 0 0 1 -9.07963,1.64778 3.0753096,3.0753096 0 0 1 -1.05928,-0.26903 5.4279576,5.4279576 0 0 1 -0.97522,-0.79026 5.6055348,5.6055348 0 0 0 -5.573874,-0.89114 5.0612814,5.0612814 0 0 0 -2.219459,1.5637 c -0.554866,0.69779 -0.941598,1.53848 -1.55533,2.19424 -1.58893,1.69823 -4.211937,1.76548 -6.532287,1.75708 a 60.36997,60.36997 0 0 0 -14.350878,1.31993 27.280441,27.280441 0 0 0 -11.299077,5.46459 l -0.0084,0.009 c -0.453978,0.38672 -0.874332,0.78185 -1.294687,1.20221 a 9.5967042,9.5967042 0 0 0 -2.236273,3.19467 c -0.638978,1.64778 -0.554866,3.50575 -1.134954,5.17874 -0.638977,1.87478 -2.059729,3.40488 -2.631406,5.28805 -0.437165,1.42919 -0.378321,3.00972 -1.101319,4.30439 0.03362,0.0252 0.05885,0.0504 0.09247,0.0756 3.060127,2.69026 5.674756,6.22121 8.743327,8.88626 a 17.645354,17.645354 0 0 1 4.438925,4.96021 8.1937508,8.1937508 0 0 1 0.546466,1.34513 20.684436,20.684436 0 0 1 0.453976,4.8929 c 0.386722,7.8606 4.649147,14.98979 9.415904,21.24459 0.09248,0.1261 0.184955,0.25221 0.285833,0.3699 z"
     id="path92"
     inkscape:connector-curvature="0"
     style="fill:#d0cde1;stroke-width:1.12298238" />
  <path
     d="m 63.750708,158.7267 q -1.084576,7.52847 -2.185874,15.04865 a 65.563864,65.563864 0 0 1 -1.496419,7.96986 c -0.437188,1.6225 -1.000442,3.21156 -1.395608,4.83406 H 36.780861 a 20.97366,20.97366 0 0 1 0.210177,-2.71547 44.894465,44.894465 0 0 1 2.732295,-9.42427 q 3.821049,-10.31554 7.633619,-20.64777 c 1.084486,-2.93406 2.017661,-6.00265 3.211493,-8.91156 0.210177,-0.53796 0.437132,-1.07603 0.680977,-1.59727 1.269419,-2.79118 4.791979,-1.64773 7.398207,-1.22741 a 7.0252877,7.0252877 0 0 1 2.068095,0.58844 5.3363447,5.3363447 0 0 1 1.942087,1.8327 c 2.471684,3.65716 1.933607,8.49121 1.294663,12.86284 q -0.100911,0.69366 -0.201766,1.3872 z"
     id="path94"
     inkscape:connector-curvature="0"
     style="fill:#d0cde1;stroke-width:1.12298238" />
  <path
     d="m 130.88942,183.44346 c 0.0336,0.1176 0.39511,1.37024 0.99204,3.13581 h -18.25174 c 9.04599,-1.55534 17.2597,-3.14423 17.2597,-3.14423 z"
     id="path96"
     inkscape:connector-curvature="0"
     style="fill:#2f2e41;stroke-width:1.12298238" />
  <ellipse
     cx="105.42149"
     cy="75.065498"
     rx="20.717093"
     ry="11.155358"
     id="ellipse98"
     style="fill:#2f2e41;stroke-width:1.12298238" />
  <rect
     x="303.75449"
     y="121.5316"
     width="474.15784"
     height="321.14944"
     id="rect100"
     style="fill:#3f3d56;stroke-width:1.12298238" />
  <ellipse
     cx="708.97455"
     cy="414.93777"
     rx="55.486557"
     ry="5.8849325"
     id="ellipse102"
     style="opacity:0.1;stroke-width:1.12298238" />
  <rect
     x="334.0199"
     y="150.95628"
     width="140.3978"
     height="153.00838"
     id="rect104"
     style="fill:#f2f2f2;stroke-width:1.12298238" />
  <path
     d="m 379.22934,221.20745 a 2.0608186,2.0608186 0 0 0 2.41564,-0.99811 c 1.94186,-3.05955 -1.63334,-7.00465 -0.8592,-10.54475 0.62021,-2.83613 3.84299,-4.51947 4.50192,-7.34686 0.64027,-2.74728 -1.33261,-5.84394 8.5e-4,-8.32975 1.04471,-1.94752 3.65427,-2.46002 5.8378,-2.11884 2.18353,0.34118 4.2561,1.30105 6.46199,1.43555 2.93944,0.1792 5.74142,-1.11476 8.61569,-1.75589 2.87426,-0.64114 6.38016,-0.39012 8.07104,2.02097 2.1711,3.09587 -0.0313,7.40677 0.72472,11.11173 0.60028,2.94197 3.06319,5.37795 3.1161,8.38014 0.0188,1.06705 -2.78629,0.20745 -2.63718,1.2642 0.14909,1.05673 -1.17671,0.12628 -0.1169,7.4e-4 a 2.099101,2.099101 0 0 0 1.59491,-1.89703 c 0.12601,-0.88016 1.78007,-1.17351 1.76098,-2.0625 -0.0447,-2.08332 3.72183,-0.67862 4.34212,-2.66797 a 20.173423,20.173423 0 0 0 -0.82442,-14.07313 28.185599,28.185599 0 0 1 -2.40266,-5.72332 c -0.55333,-2.76231 0.31731,-5.72769 -0.5953,-8.39295 -1.22988,-3.59185 -5.29957,-5.42288 -9.07789,-5.79473 -3.7783,-0.37184 -7.61785,0.29377 -11.37459,-0.25461 -3.36542,-0.49125 -6.62351,-1.9498 -10.018,-1.73847 -4.07306,0.25357 -7.61748,2.87794 -10.4409,5.82456 -2.8234,2.94663 -5.21849,6.33574 -8.42506,8.86006 a 16.523741,16.523741 0 0 0 -2.70144,2.32564 c -1.63321,1.99028 -1.79887,4.82553 -1.34452,7.35972 0.45433,2.5342 1.44293,4.95153 1.86035,7.49207 0.39228,2.38746 0.27126,4.82672 0.44021,7.24034 a 12.726433,12.726433 0 0 0 2.12356,6.83447 6.4502309,6.4502309 0 0 0 5.0192,2.62222 c 0.67965,0.0157 1.25367,-0.59504 1.93964,-0.43578 0.85748,0.19908 1.23029,1.01335 1.99134,1.36228 z"
     id="path106"
     inkscape:connector-curvature="0"
     style="fill:#2f2e41;stroke-width:1.12298238" />
  <path
     d="m 348.3539,304.80538 c 0.61376,-8.41548 1.07614,-14.70393 1.07614,-14.70393 l 3.9681,-10.45834 12.73671,25.1623 z"
     id="path108"
     inkscape:connector-curvature="0"
     style="fill:#575a89;stroke-width:1.12298238" />
  <path
     d="m 348.3539,304.80538 c 0.61376,-8.41548 1.07614,-14.70393 1.07614,-14.70393 l 3.9681,-10.45834 12.73671,25.1623 z"
     id="path110"
     inkscape:connector-curvature="0"
     style="opacity:0.1;stroke-width:1.12298238" />
  <path
     d="m 377.87027,222.06345 c 0,0 11.87635,30.23068 5.03845,35.98893 -6.83789,5.75823 38.14827,-9.71701 38.14827,-9.71701 l -1.07967,-3.95878 c 0,0 -14.75546,-5.75823 -7.55768,-22.31314 7.19779,-16.55491 -34.54937,0 -34.54937,0 z"
     id="path112"
     inkscape:connector-curvature="0"
     style="fill:#a0616a;stroke-width:1.12298238" />
  <path
     d="m 377.87027,222.06345 c 0,0 11.87635,30.23068 5.03845,35.98893 -6.83789,5.75823 38.14827,-9.71701 38.14827,-9.71701 l -1.07967,-3.95878 c 0,0 -14.75546,-5.75823 -7.55768,-22.31314 7.19779,-16.55491 -34.54937,0 -34.54937,0 z"
     id="path114"
     inkscape:connector-curvature="0"
     style="opacity:0.1;stroke-width:1.12298238" />
  <circle
     cx="394.78506"
     cy="209.10744"
     r="25.192245"
     id="circle116"
     style="fill:#a0616a;stroke-width:1.12298238" />
  <path
     d="m 455.96419,263.45108 c 0,0 -0.10088,2.00087 -0.27744,5.49819 -0.3615,7.12083 -1.00881,20.46279 -1.65616,35.85611 h -97.65633 a 48.418653,48.418653 0 0 1 -6.21281,-11.12258 12.00257,12.00257 0 0 1 -0.73141,-3.58135 c -0.53806,-9.54204 8.01189,-22.85879 14.04815,-24.12825 6.83494,-1.44605 19.79024,-15.11593 19.79024,-15.11593 a 3.0824742,3.0824742 0 0 0 1.64775,2.48852 v 0.009 a 6.6976576,6.6976576 0 0 0 3.38804,0.73981 c 4.22036,0 22.78306,-8.56679 28.74372,-11.36635 1.16859,-0.54642 1.84955,-0.87431 1.84955,-0.87431 a 139.69916,139.69916 0 0 0 21.23618,7.20485 22.585691,22.585691 0 0 1 15.83052,14.39285 z"
     id="path118"
     inkscape:connector-curvature="0"
     style="fill:#575a89;stroke-width:1.12298238" />
  <path
     d="m 374.91067,218.68823 a 2.0608186,2.0608186 0 0 0 2.41564,-0.99813 c 1.94185,-3.05953 -1.63334,-7.00464 -0.85919,-10.54473 0.62019,-2.83614 3.84298,-4.51947 4.50191,-7.34686 0.64027,-2.74728 -1.33261,-5.84401 8.5e-4,-8.32975 1.04472,-1.94753 3.65428,-2.46002 5.83781,-2.11884 2.18352,0.34118 4.2561,1.30105 6.46198,1.43554 2.93943,0.17921 5.74142,-1.11476 8.61568,-1.75588 2.87426,-0.64113 6.38017,-0.39012 8.07105,2.02097 2.17111,3.09587 -0.0313,7.40676 0.72472,11.11173 0.60029,2.94197 7.43976,5.00691 8.06004,3.01757 a 20.17339,20.17339 0 0 0 -0.82443,-14.07312 28.186756,28.186756 0 0 1 -2.40266,-5.72332 c -0.55333,-2.76231 0.3173,-5.72769 -0.59531,-8.39297 -1.22987,-3.59183 -5.29958,-5.42288 -9.07788,-5.79472 -3.77831,-0.37185 -7.61786,0.29378 -11.3746,-0.2546 -3.36541,-0.49125 -6.6235,-1.9498 -10.01801,-1.73847 -4.07305,0.25357 -7.61746,2.87792 -10.44088,5.82456 -2.82341,2.94664 -5.21849,6.33573 -8.42506,8.86006 a 16.524068,16.524068 0 0 0 -2.70143,2.32563 c -1.63321,1.99028 -1.79888,4.82553 -1.34454,7.35973 0.45434,2.53421 1.44294,4.95152 1.86035,7.49206 0.39228,2.38752 0.27127,4.82673 0.44021,7.24034 a 12.726389,12.726389 0 0 0 2.12357,6.83447 6.4502084,6.4502084 0 0 0 5.01918,2.62223 c 0.67964,0.0157 1.25368,-0.59504 1.93964,-0.43578 0.85749,0.19908 1.23032,1.01335 1.99136,1.36228 z"
     id="path120"
     inkscape:connector-curvature="0"
     style="fill:#2f2e41;stroke-width:1.12298238" />
  <path
     d="m 468.4487,304.80538 h -28.49993 c -2.16904,-15.90619 -3.95975,-32.53532 -3.95975,-32.53532 l 5.75887,-2.52211 11.7026,-6.29687 c 0,0 0.85753,2.03448 2.23625,5.49819 2.94248,7.40661 8.28098,21.34552 12.76196,35.85611 z"
     id="path122"
     inkscape:connector-curvature="0"
     style="opacity:0.1;stroke-width:1.12298238" />
  <path
     d="m 470.9624,304.80538 h -32.16541 c -4.76678,-17.40262 -9.46634,-36.31849 -9.46634,-36.31849 l 12.24067,-8.99557 14.39287,3.95976 c 0,0 8.42389,20.05079 14.99821,41.3543 z"
     id="path124"
     inkscape:connector-curvature="0"
     style="fill:#575a89;stroke-width:1.12298238" />
  <rect
     x="561.01038"
     y="150.95628"
     width="135.35356"
     height="9.2477589"
     id="rect126"
     style="fill:#bada55;stroke-width:1.12298238" />
  <rect
     x="335.70129"
     y="327.50443"
     width="47.920204"
     height="9.2477589"
     id="rect128"
     style="fill:#bada55;stroke-width:1.12298238" />
  <rect
     x="335.70129"
     y="344.31851"
     width="137.03497"
     height="9.2477589"
     id="rect130"
     style="fill:#bada55;stroke-width:1.12298238" />
  <rect
     x="529.06354"
     y="184.5845"
     width="195.04364"
     height="9.2477589"
     id="rect132"
     style="fill:#f2f2f2;stroke-width:1.12298238" />
  <rect
     x="529.06354"
     y="210.64636"
     width="195.04364"
     height="9.2477589"
     id="rect134"
     style="fill:#f2f2f2;stroke-width:1.12298238" />
  <rect
     x="529.06354"
     y="236.70822"
     width="195.04364"
     height="9.2477589"
     id="rect136"
     style="fill:#f2f2f2;stroke-width:1.12298238" />
  <rect
     x="529.06354"
     y="262.77011"
     width="195.04364"
     height="9.2477589"
     id="rect138"
     style="fill:#f2f2f2;stroke-width:1.12298238" />
  <rect
     x="529.06354"
     y="288.83194"
     width="195.04364"
     height="9.2477589"
     id="rect140"
     style="fill:#f2f2f2;stroke-width:1.12298238" />
  <rect
     x="529.06354"
     y="314.89383"
     width="195.04364"
     height="9.2477589"
     id="rect142"
     style="fill:#f2f2f2;stroke-width:1.12298238" />
  <rect
     x="529.06354"
     y="340.95569"
     width="195.04364"
     height="9.2477589"
     id="rect144"
     style="fill:#f2f2f2;stroke-width:1.12298238" />
  <path
     d="m 761.70153,342.20511 -53.31722,53.3173 -22.40947,-22.40969 a 7.660424,7.660424 0 0 0 -10.83348,-6e-5 l -0.80504,-1.2041 c -2.99162,2.99162 -2.18659,9.04603 0.80503,12.03762 l 29.07602,29.07597 a 5.8450108,5.8450108 0 0 0 8.26393,0.002 l 60.04819,-59.98559 c 2.99352,-2.9904 4.07943,-8.47402 1.08743,-11.4659 v 0 c -2.99085,-2.99076 -8.92459,-2.35851 -11.91539,0.63231 z"
     id="path146"
     inkscape:connector-curvature="0"
     style="fill:#57b894;stroke-width:1.12298238" />
  <path
     d="m 761.70153,342.20511 -53.31722,53.3173 -22.40947,-22.40969 a 7.660424,7.660424 0 0 0 -10.83348,-6e-5 l -0.80504,-1.2041 c -2.99162,2.99162 -2.18659,9.04603 0.80503,12.03762 l 29.07602,29.07597 a 5.8450108,5.8450108 0 0 0 8.26393,0.002 l 60.04819,-59.98559 c 2.99352,-2.9904 4.07943,-8.47402 1.08743,-11.4659 v 0 c -2.99085,-2.99076 -8.92459,-2.35851 -11.91539,0.63231 z"
     id="path148"
     inkscape:connector-curvature="0"
     style="opacity:0.1;stroke-width:1.12298238" />
  <path
     d="m 761.70153,339.84128 -53.31722,53.3173 -22.40947,-22.40965 a 7.660424,7.660424 0 0 0 -10.83348,0 v 0 a 7.6604353,7.6604353 0 0 0 0,10.83351 l 29.07603,29.07596 a 5.8449995,5.8449995 0 0 0 8.26393,0.002 l 60.04819,-59.98558 a 7.6585149,7.6585149 0 0 0 0.003,-10.83368 v 0 a 7.6585149,7.6585149 0 0 0 -10.83074,-2e-5 z"
     id="path150"
     inkscape:connector-curvature="0"
     style="fill:#57b894;stroke-width:1.12298238" />
  <path
     d="m 1153.9577,648.65596 c 0,60.11713 -83.7961,41.52236 -186.39608,41.52236 -102.59989,0 -185.15112,18.59477 -185.15112,-41.52236 0,-60.11713 83.78468,-73.19212 186.38459,-73.19212 102.59991,0 185.16261,13.07498 185.16261,73.19212 z"
     id="path152"
     inkscape:connector-curvature="0"
     style="opacity:0.1;stroke-width:1.12298238" />
  <path
     d="m 1153.9577,637.42614 c 0,60.11713 -83.7961,41.52235 -186.39608,41.52235 -102.59989,0 -185.15112,18.59478 -185.15112,-41.52235 0,-60.11713 83.78468,-73.19212 186.38459,-73.19212 102.59991,0 185.16261,13.07498 185.16261,73.19212 z"
     id="path154"
     inkscape:connector-curvature="0"
     style="fill:#3f3d56;stroke-width:1.12298238" />
  <path
     d="m 803.66706,449.09128 -3.79681,4.40883 c 0,0 -46.16767,4.33497 -44.29399,11.82961 1.87369,7.49464 55.58546,-9.99289 55.58546,-9.99289 z"
     id="path156"
     inkscape:connector-curvature="0"
     style="fill:#ffc1c7;stroke-width:1.12298238" />
  <path
     d="m 887.35751,445.34394 c 0,0 -49.33989,17.48756 -76.19579,9.99289 l 12.49112,24.98224 c 0,0 63.70467,-1.87368 74.94671,-13.11567 11.24205,-11.242 -11.24204,-21.85946 -11.24204,-21.85946 z"
     id="path158"
     inkscape:connector-curvature="0"
     style="fill:#bada55;stroke-width:1.12298238" />
  <path
     d="m 887.35751,445.34394 c 0,0 -49.33989,17.48756 -76.19579,9.99289 l 12.49112,24.98224 c 0,0 63.70467,-1.87368 74.94671,-13.11567 11.24205,-11.242 -11.24204,-21.85946 -11.24204,-21.85946 z"
     id="path160"
     inkscape:connector-curvature="0"
     style="opacity:0.1;stroke-width:1.12298238" />
  <circle
     cx="853.94373"
     cy="278.2753"
     r="33.101452"
     id="circle162"
     style="fill:#ffc1c7;stroke-width:1.12298238" />
  <path
     d="m 882.16894,309.35156 a 25.820385,25.820385 0 0 0 4.28851,5.94436 54.143773,54.143773 0 0 0 15.95588,11.93968 543.69571,543.69571 0 0 1 -56.85023,8.45363 c 2.01529,-7.09618 -0.63741,-14.68621 -4.2022,-21.14454 -3.5648,-6.45831 -8.10906,-12.47777 -10.34014,-19.50911 l 22.37363,0.60141 c 4.05946,0.10911 8.13211,0.23073 12.19085,0.0319 3.03353,-0.14855 8.08735,-1.96587 10.91884,-1.29651 5.98615,1.41506 3.05169,9.66977 5.66486,14.97908 z"
     id="path164"
     inkscape:connector-curvature="0"
     style="fill:#ffc1c7;stroke-width:1.12298238" />
  <path
     d="m 957.30775,464.70518 18.73668,22.484 c 0,0 31.22777,73.07301 -36.84875,80.56768 -68.07654,7.49468 -118.66554,-5.62099 -118.66554,-5.62099 0,0 -27.4805,-13.11567 -28.105,-3.1228 -0.62451,9.99289 -3.12278,38.09791 -18.11213,65.57836 l -13.11567,29.97867 c 0,0 -6.87011,6.87012 -4.99643,16.23845 1.87366,9.36833 -41.84524,12.49111 -41.22068,0 0,0 6.24555,-10.61745 6.24555,-16.86301 0,-6.24555 9.9929,-21.23488 9.9929,-21.23488 l 18.1121,-89.93603 c 0,0 -1.24911,-46.21711 41.22068,-37.47334 42.46979,8.74378 103.0517,-1.87366 103.0517,-1.87366 l 13.74021,-48.0908 z"
     id="path166"
     inkscape:connector-curvature="0"
     style="fill:#2f2e41;stroke-width:1.12298238" />
  <path
     d="m 957.30775,464.70518 18.73668,22.484 c 0,0 31.22777,73.07301 -36.84875,80.56768 -68.07654,7.49468 -118.66554,-5.62099 -118.66554,-5.62099 0,0 -27.4805,-13.11567 -28.105,-3.1228 -0.62451,9.99289 -3.12278,38.09791 -18.11213,65.57836 l -13.11567,29.97867 c 0,0 -6.87011,6.87012 -4.99643,16.23845 1.87366,9.36833 -41.84524,12.49111 -41.22068,0 0,0 6.24555,-10.61745 6.24555,-16.86301 0,-6.24555 9.9929,-21.23488 9.9929,-21.23488 l 18.1121,-89.93603 c 0,0 -1.24911,-46.21711 41.22068,-37.47334 42.46979,8.74378 103.0517,-1.87366 103.0517,-1.87366 l 13.74021,-48.0908 z"
     id="path168"
     inkscape:connector-curvature="0"
     style="opacity:0.1;stroke-width:1.12298238" />
  <path
     d="m 887.04525,463.06018 c 0,0 57.14683,-21.46356 88.99918,24.129 0,0 8.11927,70.57479 -24.35763,73.69757 -32.47694,3.12278 -74.94676,2.49822 -84.93962,-8.11922 -9.99286,-10.61746 -73.07302,-40.59613 -73.07302,-40.59613 0,0 -31.40021,-16.01638 -37.55955,4.7952 -6.15933,20.81158 -6.78393,25.80803 -6.78393,25.80803 0,0 -32.4769,23.73311 -45.59257,28.10501 0,0 -8.74378,12.49112 -13.74023,12.49112 -4.99645,0 -35.59966,6.87011 -32.47689,-16.23845 l 50.58901,-46.21713 50.58901,-49.3399 c 0,0 14.36479,-21.23488 51.21361,-9.99289 a 761.89122,761.89122 0 0 0 74.32212,18.11212 z"
     id="path170"
     inkscape:connector-curvature="0"
     style="fill:#2f2e41;stroke-width:1.12298238" />
  <path
     d="m 754.32715,669.55944 c 0,0 11.86655,29.97867 1.87367,33.72601 -9.99288,3.74733 -31.22779,1.24912 -31.22779,1.24912 0,0 -24.98223,-3.12278 -31.22778,-2.49823 -6.24556,0.62454 -31.85233,-4.37189 -28.105,-14.36478 3.74733,-9.99289 23.10856,-7.49468 23.10856,-7.49468 l 17.48755,-8.11921 c 0,0 1.87368,-6.24556 6.24556,-3.74739 4.37188,2.49816 16.863,11.8666 41.84523,1.24916 z"
     id="path172"
     inkscape:connector-curvature="0"
     style="fill:#cbceda;stroke-width:1.12298238" />
  <path
     d="m 689.37336,580.87253 c 0,0 13.11567,29.35412 -8.11922,26.85589 -21.23489,-2.49823 -37.47335,-6.8701 -43.71891,-7.49466 -6.00767,-0.60079 -22.99521,-6.40253 -20.38936,-17.96114 a 10.280757,10.280757 0 0 0 0.16938,-2.26861 c 0,-1.55164 2.10784,-4.59637 18.97088,-4.12792 0,0 12.49111,0 17.48755,-8.74378 0,0 18.73668,23.73312 35.59968,13.74022 z"
     id="path174"
     inkscape:connector-curvature="0"
     style="fill:#cbceda;stroke-width:1.12298238" />
  <path
     d="m 831.14751,331.05025 c 0,0 44.96801,-28.105 82.44134,0 37.47335,28.10502 62.45558,156.13893 62.45558,156.13893 l -86.81328,-19.36122 c 0,0 -3.74739,-14.98935 -8.74378,-17.48756 -4.99638,-2.49823 -5.621,-13.11567 -5.621,-13.11567 0,0 -26.85589,-8.11924 -24.98223,-39.34706 1.87367,-31.22783 -18.73663,-66.82742 -18.73663,-66.82742 z"
     id="path176"
     inkscape:connector-curvature="0"
     style="fill:#bada55;stroke-width:1.12298238" />
  <path
     d="m 854.25607,332.29936 h -23.10856 c 0,0 -13.74023,15.61395 -15.61395,54.9609 l -7.49461,31.22778 c 0,0 -15.61395,37.47333 -6.24556,43.71889 9.36839,6.24555 27.48044,5.62101 31.22778,-6.87012 3.74734,-12.49112 29.35411,-84.93957 29.35411,-84.93957 z"
     id="path178"
     inkscape:connector-curvature="0"
     style="fill:#bada55;stroke-width:1.12298238" />
  <path
     d="m 847.63314,235.19647 a 33.460259,33.460259 0 0 1 34.61182,5.67475 c 11.99458,10.70427 14.41461,28.16644 17.44679,43.9543 3.03219,15.78786 9.1321,33.36951 24.01182,39.45598 a 62.559741,62.559741 0 0 1 -20.1584,-0.58654 l 22.48597,20.15091 -37.87878,-12.34652 c -11.88815,-3.87492 -24.37353,-7.79849 -36.68426,-5.61013 -20.39426,3.62531 -34.59259,22.79752 -54.18093,29.53292 l 2.17675,-10.6219 -13.14195,-0.10073 a 25.73962,25.73962 0 0 0 7.52967,-8.82168 7.2870324,7.2870324 0 0 0 -5.02727,-2.63037 c -5.47819,-34.17062 14.81292,-67.94861 41.25632,-90.27318 5.20127,-4.39114 10.9567,-8.60878 17.67449,-9.70719 6.71779,-1.09839 14.55999,1.90545 16.89604,8.29904"
     id="path180"
     inkscape:connector-curvature="0"
     style="fill:#2f2e41;stroke-width:1.12298238" />
  <path
     d="m 274.55521,548.36035 c 0,71.88899 45.09937,130.06064 100.83353,130.06064"
     id="path182"
     inkscape:connector-curvature="0"
     style="fill:#3f3d56;stroke-width:1.12298238" />
  <path
     d="m 375.38874,678.42099 c 0,-72.69672 50.32827,-131.52198 112.52435,-131.52198"
     id="path184"
     inkscape:connector-curvature="0"
     style="fill:#bada55;stroke-width:1.12298238" />
  <path
     d="m 311.0891,554.87721 c 0,68.2869 28.75901,123.54378 64.29964,123.54378"
     id="path186"
     inkscape:connector-curvature="0"
     style="fill:#bada55;stroke-width:1.12298238" />
  <path
     d="m 375.38874,678.42099 c 0,-92.89026 58.17161,-168.05586 130.06063,-168.05586"
     id="path188"
     inkscape:connector-curvature="0"
     style="fill:#3f3d56;stroke-width:1.12298238" />
  <path
     d="m 354.17596,679.33794 c 0,0 14.29986,-0.44043 18.60947,-3.50924 4.30962,-3.06882 21.99678,-6.73317 23.06589,-1.81145 1.06911,4.92172 21.49002,24.47837 5.34555,24.60859 -16.14446,0.13021 -37.51255,-2.51475 -41.81387,-5.13485 -4.30133,-2.6201 -5.20704,-14.15305 -5.20704,-14.15305 z"
     id="path190"
     inkscape:connector-curvature="0"
     style="fill:#a8a8a8;stroke-width:1.12298238" />
  <path
     d="m 401.48498,696.91257 c -16.14446,0.13027 -37.51253,-2.51473 -41.81386,-5.13485 -3.27569,-1.99535 -4.58101,-9.15515 -5.01777,-12.45837 -0.30247,0.013 -0.47739,0.0186 -0.47739,0.0186 0,0 0.90572,11.53293 5.20705,14.15305 4.30135,2.62012 25.66941,5.2651 41.81387,5.13484 4.66027,-0.0375 6.27001,-1.69564 6.18162,-4.15136 -0.64742,1.48365 -2.42482,2.41012 -5.89352,2.43808 z"
     id="path192"
     inkscape:connector-curvature="0"
     style="opacity:0.2;stroke-width:1.12298238" />
</svg>
